<?xml version="1.0" encoding="utf-8"?>
<!-- Generator: Adobe Illustrator 23.0.3, SVG Export Plug-In . SVG Version: 6.00 Build 0)  -->
<svg version="1.1" id="Layer_1" xmlns="http://www.w3.org/2000/svg" xmlns:xlink="http://www.w3.org/1999/xlink" x="0px" y="0px"
	 viewBox="0 0 902.5 439.2" style="enable-background:new 0 0 902.5 439.2;" xml:space="preserve">
<style type="text/css">
	.st0{fill:#EF4A02;}
</style>
<g id="_2">
	<path class="st0" d="M84.9,354.2c0,43-2.9,85.8-60.6,85.8c-8.7,0-19.6-0.8-24.3-1.5v-28.5c3.7,0.6,11.6,1.2,20.7,1.2
		c23.4,0,32.3-8.7,32.3-51.5V1h31.9V354.2L84.9,354.2z"/>
	<path class="st0" d="M289.2,105.8v226.9c0,70.5-26.9,107.7-81.7,107.7c-60.6,0-79-43.9-79-107.3V106.3c0-66.4,26-105.2,81.2-105.2
		C268.7,1.1,289.2,48.3,289.2,105.8z M159.2,106.8v227.1c0,56.9,19.6,77.6,50,77.6s49.6-20.7,49.6-80.4V107.2
		c0-53.4-18.3-77.3-50.1-77.3C174.8,29.9,159.2,52.9,159.2,106.8L159.2,106.8z"/>
	<path class="st0" d="M365,229.4v210.8h-32.2V1.6h65c65.3,0,93,29.5,93,97.8v22.3c0,54.1-16.2,83.5-44.7,93
		c29.4,9.1,41.1,31.9,41.1,90c0,37.9-0.8,107.3,4.5,135.8h-31.9c-5.4-27.8-4.6-102.9-4.6-132.9c0-59.2-8.8-78.1-55.1-78.1L365,229.4
		L365,229.4z M365,201h37.7c45.6,0,55.1-31.6,55.1-77.8v-22.6c0-44.2-13.6-70.5-61.6-70.5H365V201L365,201z"/>
	<path class="st0" d="M809.4,440.2c24.4-72.4,45.5-163,48.7-259.4h44.4c-2.8,92.6-27.8,197.5-55.1,259.4H809.4z M864.5,108.2V1.1
		h33.9v107L864.5,108.2L864.5,108.2z"/>
	<path class="st0" d="M679.5,30.1c64,0,74.6,34.8,74.6,92.6v191.9c0,65.7-16.2,96.8-75.5,96.8h-29.9c-10.7,0-13.3,0-24.1,0
		c0,9.6-0.2,19.2-0.2,28.8h56.9c95.9,0,105.5-67.1,105.5-134.7V128.6c0-61.6-4.6-127.4-100.7-127.4h-7.7l0.2,28.9H679.5L679.5,30.1z
		"/>
	<g>
		<path class="st0" d="M576.8,80.8C576.8,80.8,576.9,80.8,576.8,80.8c0.9-0.8,2.6-1.9,4.2-2.2l0.2-7.4h-5.6l-0.3,6.3l-0.5,0.3
			c-3.9,2.9-7.3,6.3-10.4,10.1c-4.5,5.3-8.7,12.5-11.4,18.9c1.1,2.5,2.6,4.6,4,6c2.5-1.1,4.8-2.2,7.3-3.2c-0.5-3.9-0.5-9.1,1.9-15.2
			c1.9-4.2,4.6-8,8-11.1C575.1,82.3,576,81.6,576.8,80.8L576.8,80.8z"/>
		<path class="st0" d="M557.3,128.4c2.5,4.8,2,9.4,1.5,11.6l-0.3,0.9c6.7,13.1,14.7,28.8,16.2,31.7l22-34l0.5-14.2
			c-1.9,0.5-3.6,0.6-5.3,0.6c-6.7,0-12.7-2.8-15.9-7.7c-2.2-3.2-2.6-7-2.5-9.7l-25.4,12.4C550.6,120.8,554.8,123.5,557.3,128.4
			L557.3,128.4z"/>
		<path class="st0" d="M552,103.5c2.8-6.2,6.3-12.1,10.8-17.2c3.1-3.6,6.5-7,10.4-10.1l0.3-5.3h-1.7l-0.2,3.2l-0.8,0.3
			c-4.9,1.9-11.8,5.7-16.1,13.1c-1.1,1.9-4.3,7.6-2.9,14.7C551.9,102.9,552,103.2,552,103.5z"/>
		<path class="st0" d="M581.4,62.8L599.8,48l1.4,1.9L585,63l8.2,0.2l4.6-2.9l9.6-6l0.8,0.8l3.7,3.6c0.2-0.3,0.5-0.6,0.5-0.9
			c0.5-0.9,0.8-1.9,0.9-2.9c0,0,0.5-3.2-1.4-6.3c-1.9-3.2-7.7-5.6-15.2-6c-0.9-0.2-1.9-0.2-2.8-0.2c-8.5,0-16.2,2.6-19.5,6.7
			c-1.9,2.5-2.8,5.6-2.8,5.6c-0.9,3.4-0.8,6.3-0.2,8.7L581.4,62.8L581.4,62.8z"/>
		<path class="st0" d="M566.4,108.5c0.2,0,0.2-0.2,0.3-0.2c0.9-0.5,1.9-0.9,2.9-1.2l4.2-2l0.5-18.3c-2.5,2.5-4.3,5.4-5.7,8.5
			C566.2,100.3,566.1,105.1,566.4,108.5z"/>
		<path class="st0" d="M542.1,217.1v-1.5l-3.2-4.5l2,6.5C541.3,217.4,541.8,217.2,542.1,217.1L542.1,217.1z"/>
		<path class="st0" d="M544.3,218.8l-0.8,0.3c-7.7,2.5-8.8,4.8-8.8,5.7c0,0.2,0,0.5,0.2,1.9c0.3,2.6,0.5,4.9,0.6,6.3
			c0,0.3,0.2,0.8,0.5,1.1c0.5,0.3,0.8,0.5,1.2,0.5c1.5,0.2,5.1-0.2,8.4-2.9c2.5-2.2,3.9-4.9,4.3-6.8v-12.4l-10.4-22.3l0.2-0.5
			l16.9-50.3c0.5-1.9,0.8-5.9-1.2-10.1c-2.3-4.6-6.3-6.8-8.7-7.7l-19.3,69l17,24.1L544.3,218.8L544.3,218.8z"/>
		<path class="st0" d="M533.9,207.5c-0.3,0-0.6,0-0.9,0.2l-1.5,0.5c-0.8,0.2-1.4,0.8-1.9,1.5c-0.5,0.8-0.5,1.4-0.2,2.2l0.3,0.9v-0.2
			c0.9,0,2-0.2,2.9-0.5c0.9-0.3,2-0.9,2.9-1.5l0.5,0.6l0,0l0.5,0.6c-0.9,0.8-2.2,1.4-3.4,1.9c-0.9,0.3-2,0.5-2.9,0.5l2.8,9
			c0.9-1.9,3.1-3.4,6.7-4.9l-2.6-8.5C536.4,208.2,535.3,207.5,533.9,207.5L533.9,207.5z"/>
		<path class="st0" d="M596.9,122.2l1.1-31.1c-2.5,0.2-5.6-0.2-9.1-1.5l0,0c-0.2,0-2.5-0.9-4.9-2.9c-0.5-0.5-0.9-0.8-1.5-1.4
			c-0.5-0.5-0.8-0.8-0.9-1.2l0,0l-0.2-0.2l-0.3-0.3v-0.5V83c0-0.3,0-0.5,0-0.9l0,0v-0.6c-0.8,0.3-1.4,0.6-2.2,0.9
			c-0.3,0.2-0.6,0.5-0.9,0.8c-0.6,0.5-1.1,0.9-1.5,1.5l-0.5,22c-0.3,2.6-0.2,6.3,2,9.7C581.4,121.5,589,123.9,596.9,122.2
			L596.9,122.2z"/>
		<path class="st0" d="M671.9,16.8c-0.5,0-0.9,0-1.5-0.2v33.3h5.7v-34c-0.2,0.2-0.5,0.2-0.6,0.3C674.5,16.4,673.3,16.8,671.9,16.8z"
			/>
		<path class="st0" d="M668.2,15.8c-0.6-0.3-1.1-0.8-1.5-1.2c-0.6-0.8-0.8-1.5-0.9-2.3c-0.2-0.9-0.2-1.9-0.2-2.8h-3.1v40.4h5.6v-34
			H668.2z"/>
		<path class="st0" d="M668.2,8.7c-0.3,0.9-0.5,2.2-0.2,3.1c0.2,0.8,0.2,1.1,0.5,1.5c0.9,1.4,4.2,1.5,6.3,0.8
			c0.5-0.2,0.9-0.5,1.2-0.6V3.5h-13.6v3.7h6L668.2,8.7L668.2,8.7z"/>
		<polygon class="st0" points="610.2,65.5 571.8,65 571.8,68.9 609.9,68.9 		"/>
		<path class="st0" d="M548.9,237.3l-0.6-5.4c-0.5,0.5-0.9,0.9-1.5,1.4c-0.3,0.2-0.5,0.5-0.8,0.6l0.5,1.2c0.3,0.9,0.2,2.2-0.2,2.9
			L548.9,237.3L548.9,237.3z"/>
		<path class="st0" d="M584.5,71l-1.2,0.8l-0.2,7.7c0.2,0.3,0,0.8,0,1.4l-0.2,0.9v0.8c0.5,0.3,0.8,0.8,1.1,0.9
			c0.9,0.8,1.9,1.7,2.9,2.5c2.9,1.9,6.8,2.8,11.4,2.6c3.7-2.8,6.5-5.9,8.2-9.4c1.2-2.6,2-5.3,2.5-8.2C609.4,71,584.5,71,584.5,71z"
			/>
		<polygon class="st0" points="599.3,104.1 598.1,139.3 574.9,175.1 573.5,190.5 607.4,145.4 607.9,94.1 599.8,96.6 		"/>
		<polygon class="st0" points="622.4,89.5 634,89.5 634,83.3 623.3,87.7 		"/>
		<path class="st0" d="M610.8,60.4l-3.6-3.6l-9.7,6.2l13.1,0.2C610.5,62.2,610.6,61.3,610.8,60.4z"/>
		<polygon class="st0" points="636.2,89.5 648.2,89.5 642.5,79.6 636.2,82.3 		"/>
		<path class="st0" d="M662.6,70.9l-18.1,7.7l6.3,10.8c0.8,0.3,1.4,0.8,1.7,1.5l23.7-10.1V57.3h-13.8v13.6H662.6z"/>
		<path class="st0" d="M717.1,91.5h-29.7c-0.2,0-0.3,0.2-0.5,0.2l2.3,6l26-0.2l2.2-5.9C717.4,91.5,717.4,91.5,717.1,91.5z"/>
		<rect x="633.2" y="52" class="st0" width="71" height="2.9"/>
		<path class="st0" d="M648.4,98l2.2-5.9c-0.2-0.2-0.2-0.3-0.5-0.3h-29.7c-0.2,0-0.3,0.2-0.5,0.2l2.3,6H648.4z"/>
		<path class="st0" d="M541.5,239.6l0.9-0.3l0.9-0.3c0.8-0.3,1.2-0.8,1.5-1.4c0.5-0.8,0.5-1.4,0.2-2.2l-0.3-0.8
			c-2.6,1.5-5.3,1.9-7,1.9c-0.2,0-0.5,0-0.6,0l0.3,1.1C538.1,239.3,539.8,240.3,541.5,239.6L541.5,239.6z"/>
		<polygon class="st0" points="543,377 571.5,346.7 558.8,306.5 559.4,311.6 556.8,330.7 		"/>
		<polygon class="st0" points="589.3,384.3 545.2,245.8 541.8,246.9 582,374.7 		"/>
		<path class="st0" d="M619.8,89.6l0.2-0.3l-8.4,3.6l7.3,12.5l12.7-5.3H621l-3.1-7.9v-0.2C617.8,90.8,618.7,89.9,619.8,89.6z"/>
		<path class="st0" d="M556.8,240.6c0.2-0.2,0.3-0.2,0.5-0.3c0.2-0.2,0.2-0.3,0-0.5l-0.5-1.4c-0.3-0.8-0.9-1.2-1.9-1.2
			c-0.2,0-0.5,0-0.6,0.2l-10.7,3.4c-0.2,0-0.2,0.2-0.2,0.2l-0.8,0.2l-12.2,3.9c-0.6,0.2-1.1,0.6-1.4,1.2c-0.3,0.5-0.3,1.1-0.2,1.7
			l0.3,0.9c0.2,0.3,0.5,0.5,0.8,0.5l9.4-3.1l10.5-3.4l0,0L556.8,240.6L556.8,240.6z"/>
		<polygon class="st0" points="589.4,372.5 549.2,244.4 548.9,244.6 545.7,245.7 589.6,383.8 		"/>
		<polygon class="st0" points="535.5,402.7 566.4,387 579.7,372.3 572,348.2 542.1,380.2 		"/>
		<path class="st0" d="M627.7,216.4l3.6-81.7c-1.9-3.6-3.6-7.1-5.4-10.7c-5.3-9.9-10.7-20-16.4-29.5l-0.5,51.4l-35.6,47.3
			l-22.7,37.1l0.8,6.2l2.6-0.9c1.9-0.6,3.7,0.5,4.3,2.2l0.5,1.4c0.2,0.5,0.2,1.1-0.2,1.5s-0.8,0.9-1.2,1.1l-5.3,1.7l0.8,6.7
			l27.4,87.2l52.1-55.5l1.1,0.9l-52.7,56.3l7.4,24l30.6-33.6l1.1,0.9l-31.2,34.3l2.5,7.4l0.3,17L580.8,375l-0.5-1.2L567.5,388
			l-0.2,0.2L533,405.4l-13.1,13.8l0.2,7.3l90-28.1l0.5,1.5l-90.6,28.3v0.2l-5.6,2.5v7.3h108.3l0.5-62.6l1.4-2.3l17.6-81l1.5,0.3
			l-16.9,76.7l30.5-50.4l-9.6-51.4L627.7,216.4L627.7,216.4z M565.9,228.2l39.6-46.6l1.2,0.9L567,229.1L565.9,228.2z M572.7,278.3
			l-1.2-0.9l46.4-56.8l1.2,0.9L572.7,278.3z"/>
		<polygon class="st0" points="634,68.9 634,80.8 636.3,79.9 636.3,69.3 641.3,77.7 643.3,76.8 636.3,65 636.3,57.3 634,57.3 
			634,64.2 621.9,86 625.3,84.5 		"/>
		<polygon class="st0" points="703.1,89.1 703.1,68.9 714.1,89.1 716.6,89.1 703.1,64.4 703.1,57.3 701.1,57.3 701.1,64.4 
			687.8,89.1 690.3,89.1 701.1,68.9 701.1,89.1 		"/>
	</g>
</g>
</svg>
