<?xml version="1.0" encoding="UTF-8"?>
<svg id="_2" data-name="2" xmlns="http://www.w3.org/2000/svg" viewBox="0 0 902.46 439.21">
  <defs>
    <style>
      .cls-1 {
        fill: #00457a;
      }
    </style>
  </defs>
  <path class="cls-1" d="m84.91,353.23c0,42.96-2.99,85.91-60.63,85.91-8.65,0-19.67-.75-24.27-1.61v-28.44c3.66.65,11.59,1.3,20.68,1.3,23.38,0,32.38-8.57,32.38-51.45V0h31.85v353.23Z"/>
  <path class="cls-1" d="m289.14,104.75v226.91c0,70.58-26.86,107.55-81.57,107.55-60.66,0-78.97-43.98-78.97-107.34V105.19C128.6,38.83,154.59,0,209.78,0c58.86,0,79.36,47.24,79.36,104.75Zm-130.08.92v227.09c0,56.85,19.59,77.74,50.01,77.74s49.6-20.68,49.6-80.53V106.11c0-53.42-18.18-77.3-50.11-77.3-33.89,0-49.5,23.04-49.5,76.87Z"/>
  <path class="cls-1" d="m365.04,228.27v210.87h-32.2V.37h64.88c65.34,0,92.93,29.58,92.93,97.69v22.38c0,54.18-16.32,83.63-44.67,92.95,29.38,9.17,41.17,31.87,41.17,89.99,0,37.89-.66,107.28,4.49,135.76h-31.78c-5.36-27.93-4.6-102.83-4.6-132.81,0-59.17-8.77-78.06-55.14-78.06h-35.09Zm0-28.44h37.74c45.74,0,55.12-31.47,55.12-77.76v-22.62c0-44.32-13.64-70.64-61.45-70.64h-31.42v171.02Z"/>
  <path class="cls-1" d="m809.32,439.14c24.55-72.43,45.45-163.03,48.71-259.39h44.43c-2.76,92.58-27.94,197.56-55.09,259.39h-38.05Zm55.22-332.01V0h33.76v107.13h-33.76Z"/>
  <path class="cls-1" d="m679.36,28.98c64.04,0,74.48,34.81,74.48,92.7v191.92c0,65.8-16.3,96.83-75.48,96.83h-29.76c-10.74,0-13.32,0-24.06,0,0,9.59-.17,19.18-.17,28.77h56.94c95.9,0,105.52-67.21,105.52-134.81V127.49c0-61.62-4.66-127.4-100.66-127.4h-7.82l.11,28.88h.9Z"/>
  <g>
    <path class="cls-1" d="m576.83,79.69s.04-.04.07-.06c.87-.67,2.58-1.86,4.05-2.18l.2-7.49h-5.53l-.35,6.45-.4.31c-3.81,2.97-7.31,6.33-10.4,9.97-4.48,5.28-8.66,12.52-11.39,18.92,1.13,2.54,2.65,4.55,4.02,5.99,2.39-1.1,4.78-2.2,7.17-3.31-.52-3.77-.53-9.18,1.94-15.07,1.76-4.22,4.58-8.04,8.13-11.08.7-.94,1.54-1.76,2.49-2.46Z"/>
    <path class="cls-1" d="m557.27,127.25c2.42,4.8,1.95,9.36,1.45,11.65l-.31.93c6.69,13.08,14.68,28.7,16.24,31.74l21.98-34,.49-14.28c-1.77.37-3.54.56-5.26.56-6.73,0-12.73-2.76-15.97-7.66-2.2-3.34-2.61-6.91-2.45-9.67l-25.42,12.15c2.59,1.15,6.79,3.67,9.26,8.58Z"/>
    <path class="cls-1" d="m551.99,102.42c2.75-6.21,6.36-11.98,10.76-17.17,3.08-3.63,6.55-6.99,10.33-9.97l.29-5.31h-1.74l-.07,3.34-.7.27c-4.99,1.93-11.83,5.79-16.11,13.19-1.08,1.87-4.37,7.56-2.98,14.74.06.31.14.61.22.91Z"/>
    <path class="cls-1" d="m581.35,61.77l18.39-14.81,1.41,1.75-16.22,13.1,8.2.08,4.66-2.94,9.59-6.06.69.68,3.68,3.6c.19-.28.37-.58.54-.88.48-.9.82-1.87.99-2.87,0,0,.44-3.16-1.42-6.28-1.94-3.28-7.71-5.61-15.07-6.09-.92-.06-1.84-.09-2.75-.09-8.54,0-16.31,2.58-19.47,6.61-1.92,2.45-2.83,5.45-2.84,5.48-1,3.36-.71,6.43-.2,8.62l9.83.1Z"/>
    <path class="cls-1" d="m566.4,107.31c.09-.04.17-.08.26-.12.96-.44,1.91-.89,2.86-1.33l4.06-1.96.4-18.33c-2.43,2.48-4.38,5.38-5.7,8.52-2.13,5.08-2.26,9.79-1.88,13.22Z"/>
    <path class="cls-1" d="m542.05,215.94v-1.56l-3.15-4.48,2.03,6.46c.37-.14.73-.28,1.12-.42Z"/>
    <path class="cls-1" d="m544.29,217.57l-.78.25c-7.71,2.48-8.75,4.81-8.85,5.7-.02.18,0,.45.13,1.87.26,2.69.49,4.87.64,6.33.04.34.16.82.52,1.15.36.33.81.41,1.2.45,1.48.18,5.11-.18,8.26-2.87,2.55-2.18,3.78-4.89,4.36-6.84l.04-12.36-10.32-22.18.14-.42,16.91-50.34c.4-1.88.81-5.86-1.3-10.05-2.32-4.6-6.39-6.82-8.61-7.73l-19.37,68.98,17.01,24.15v3.9Z"/>
    <path class="cls-1" d="m533.9,206.3c-.29,0-.59.04-.89.13l-1.61.47c-.79.23-1.44.75-1.82,1.46-.36.67-.43,1.44-.2,2.16l.27.86v-.06c.98.03,1.99-.11,2.95-.41,1.05-.33,2.04-.85,2.87-1.52l.48.6h0s.48.6.48.6c-.98.78-2.15,1.4-3.37,1.79-.96.3-1.96.45-2.95.47l2.81,8.95c.91-1.78,3.1-3.41,6.57-4.87l-2.68-8.54c-.4-1.26-1.6-2.07-2.91-2.07Z"/>
    <path class="cls-1" d="m596.83,121.07l1.06-31.1c-2.4.13-5.64-.1-9.09-1.54h0c-.1-.04-2.44-1.03-4.91-2.91-.5-.38-.87-.73-1.53-1.37-.48-.46-.81-.81-1.05-1.17-.01,0-.02-.02-.03-.03l-.17-.16-.27-.32-.02-.45v-.33c-.01-.26,0-.54.04-1.03h0s.01-.57.01-.57c-.74.25-1.44.57-2.1.98-.32.2-.6.44-.89.66-.59.49-1.14,1.01-1.62,1.6l-.47,21.98c-.33,2.62-.24,6.3,1.97,9.65,3.53,5.33,11.27,7.79,19.07,6.11Z"/>
    <path class="cls-1" d="m671.94,15.57c-.51,0-1.02-.04-1.51-.12v33.23h5.82V14.67c-.2.09-.39.19-.59.26-1.14.41-2.44.64-3.72.64Z"/>
    <path class="cls-1" d="m668.18,14.71c-.59-.33-1.11-.75-1.5-1.28-.57-.78-.73-1.57-.89-2.34-.18-.91-.21-1.83-.09-2.75h-3.13v40.33h5.62V14.71Z"/>
    <path class="cls-1" d="m668.17,7.56c-.32,1.04-.38,2.08-.18,3.08.14.71.23,1.09.5,1.46,1.05,1.43,4.17,1.52,6.41.72.45-.16.89-.37,1.3-.62V2.33h-13.64v3.77h6.05l-.45,1.45Z"/>
    <polygon class="cls-1" points="610.23 64.29 571.75 63.92 571.67 67.71 609.75 67.71 610.23 64.29"/>
    <path class="cls-1" d="m548.94,236.18l-.6-5.44c-.44.49-.91.97-1.45,1.43-.26.23-.53.42-.8.62l.39,1.24c.31,1,.24,2.05-.17,3l2.63-.85Z"/>
    <path class="cls-1" d="m584.54,69.96l-1.17.74-.2,7.69c.07.31.05.73,0,1.43l-.07.97-.02.74c.37.31.75.65,1.14.99.93.83,1.9,1.69,3.01,2.43,2.95,1.95,6.82,2.85,11.44,2.68,3.72-2.75,6.49-5.95,8.22-9.51,1.32-2.71,1.99-5.35,2.5-8.16h-24.85Z"/>
    <polygon class="cls-1" points="599.34 103.02 598.14 138.05 574.92 173.98 573.54 189.36 607.3 144.44 607.75 92.93 599.77 95.38 599.34 103.02"/>
    <polygon class="cls-1" points="622.4 88.41 633.93 88.41 633.95 82.16 623.34 86.74 622.4 88.41"/>
    <path class="cls-1" d="m610.68,59.31l-3.62-3.58-9.8,6.19,13.2.13c.08-.91.17-1.83.22-2.74Z"/>
    <polygon class="cls-1" points="636.17 88.41 648.21 88.41 642.43 78.49 636.19 81.19 636.17 88.41"/>
    <path class="cls-1" d="m662.57,69.79l-18.06,7.8,6.38,10.95c.79.25,1.42.85,1.7,1.62l23.67-9.97v-23.98h-13.68v13.57Z"/>
    <path class="cls-1" d="m717.07,90.32h-29.66c-.18,0-.34.1-.4.24l2.35,6.01,25.96-.11,2.16-5.89c-.06-.15-.22-.25-.41-.25Z"/>
    <rect class="cls-1" x="633.21" y="50.92" width="70.95" height="3.05"/>
    <path class="cls-1" d="m648.32,96.8l2.16-5.89c-.06-.15-.22-.25-.41-.25h-29.66c-.18,0-.34.1-.4.24l2.35,6.01,25.96-.11Z"/>
    <path class="cls-1" d="m541.39,238.58l.96-.28.87-.28c.69-.26,1.25-.73,1.59-1.37.36-.67.43-1.44.2-2.16l-.26-.82c-2.57,1.49-5.15,1.95-6.87,1.95-.22,0-.43,0-.62-.02l.33,1.05c.49,1.55,2.2,2.42,3.8,1.94Z"/>
    <polygon class="cls-1" points="543.01 375.86 571.51 345.47 558.85 305.35 559.41 310.43 556.74 329.57 543.01 375.86"/>
    <polygon class="cls-1" points="589.16 383.06 545.16 244.67 541.66 245.8 581.98 373.56 589.16 383.06"/>
    <path class="cls-1" d="m619.79,88.49l.16-.28-8.43,3.64,7.15,12.61,12.67-5.34-10.51.04-3.1-7.91v-.21c0-1.24.88-2.27,2.06-2.55Z"/>
    <path class="cls-1" d="m556.75,239.35c.17-.05.31-.17.38-.32.07-.14.08-.3.03-.44l-.48-1.39c-.26-.75-.99-1.22-1.77-1.22-.2,0-.4.03-.6.09l-10.67,3.43c-.08.03-.14.07-.22.09l-.65.19-12.2,3.92c-.61.2-1.1.61-1.39,1.17-.26.53-.3,1.13-.11,1.69l.32.92c.11.33.49.51.84.39l9.51-3.05,10.45-3.36h0s6.55-2.1,6.55-2.1Z"/>
    <polygon class="cls-1" points="589.42 371.43 549.2 243.38 548.94 243.46 545.64 244.52 589.59 382.73 589.42 371.43"/>
    <polygon class="cls-1" points="535.37 401.64 566.33 385.94 579.66 371.28 572.04 347.15 542.04 379.13 535.37 401.64"/>
    <path class="cls-1" d="m627.64,215.4l3.47-81.7c-1.78-3.54-3.6-7.1-5.41-10.57-5.2-9.94-10.72-19.88-16.42-29.59l-.45,51.41-35.55,47.3-22.84,37.07.68,6.16,2.74-.88c1.77-.57,3.69.37,4.28,2.09l.48,1.39c.19.54.15,1.12-.11,1.62-.26.52-.72.91-1.28,1.09l-5.32,1.71.75,6.73,27.36,87.18,52.14-55.58,1.12,1.05-52.73,56.21,7.52,23.95,30.59-33.63,1.13,1.03-31.19,34.29,2.37,7.55.25,17.02-10.63-14.17-.37-1.18-12.92,14.21-.12.06-34.27,17.38-13.08,13.71.17,7.22,90.05-28.14.46,1.46-90.47,28.27v.06s-5.46,2.49-5.46,2.49v7.22h107.97l.44-62.72,1.38-2.28,17.71-81.12,1.49.33-16.75,76.73,30.37-50.35-9.56-51.39-19.94-50.69Zm-61.76,11.74l39.63-46.54,1.16.99-39.63,46.54-1.16-.99Zm6.83,50.05l-1.18-.97,46.42-56.67,1.18.97-46.42,56.67Z"/>
    <polygon class="cls-1" points="634 67.76 634 79.69 636.25 78.71 636.25 68.26 641.2 76.57 643.29 75.67 636.25 63.87 636.25 56.22 634 56.22 634 63.11 621.92 84.93 625.31 83.45 634 67.76"/>
    <polygon class="cls-1" points="703.14 88.08 703.14 67.67 714.09 88.08 716.45 88.08 703.14 63.27 703.14 56.22 701.12 56.22 701.12 63.27 687.81 88.08 690.16 88.08 701.12 67.66 701.12 88.08 703.14 88.08"/>
  </g>
</svg>