<?xml version="1.0" encoding="UTF-8"?>
<svg id="_2" data-name="2" xmlns="http://www.w3.org/2000/svg" viewBox="0 0 902.46 478.07">
  <defs>
    <style>
      .cls-1 {
        fill: #00457a;
      }
    </style>
  </defs>
  <path class="cls-1" d="m84.91,392.09c0,42.96-2.99,85.91-60.63,85.91-8.65,0-19.67-.75-24.27-1.61v-28.44c3.66.65,11.59,1.3,20.68,1.3,23.38,0,32.38-8.57,32.38-51.45V38.86h31.85v353.23Z"/>
  <path class="cls-1" d="m289.14,143.62v226.91c0,70.58-26.86,107.55-81.57,107.55-60.66,0-78.97-43.98-78.97-107.34v-226.67c0-66.37,25.99-105.19,81.18-105.19,58.86,0,79.36,47.24,79.36,104.75Zm-130.08.92v227.09c0,56.85,19.59,77.74,50.01,77.74s49.6-20.68,49.6-80.53v-223.86c0-53.42-18.18-77.3-50.11-77.3-33.89,0-49.5,23.04-49.5,76.87Z"/>
  <path class="cls-1" d="m365.04,267.13v210.87h-32.2V39.23h64.88c65.34,0,92.93,29.58,92.93,97.69v22.38c0,54.18-16.32,83.63-44.67,92.95,29.38,9.17,41.17,31.87,41.17,89.99,0,37.89-.66,107.28,4.49,135.76h-31.78c-5.36-27.93-4.6-102.83-4.6-132.81,0-59.17-8.77-78.06-55.14-78.06h-35.09Zm0-28.44h37.74c45.74,0,55.12-31.47,55.12-77.76v-22.62c0-44.32-13.64-70.64-61.45-70.64h-31.42v171.02Z"/>
  <path class="cls-1" d="m809.32,478c24.55-72.43,45.45-163.03,48.71-259.39h44.43c-2.76,92.58-27.94,197.56-55.09,259.39h-38.05Zm55.22-332.01V38.86h33.76v107.13h-33.76Z"/>
  <path class="cls-1" d="m679.24,67.84c64.04,0,74.48,34.81,74.48,92.7v191.92c0,65.8-16.3,96.83-75.48,96.83h-29.76c-10.74,0-13.32,0-24.06,0,0,9.59-.17,19.18-.17,28.77h56.94c95.9,0,105.52-67.21,105.52-134.81v-176.9c0-61.62-4.66-127.4-100.66-127.4h-7.82l.11,28.88h.9Z"/>
  <g>
    <rect class="cls-1" x="555.69" y="242.49" width="61.13" height="1.53" transform="translate(20.96 531.89) rotate(-49.58)"/>
    <rect class="cls-1" x="558.67" y="286.5" width="73.26" height="1.53" transform="translate(-4.15 565.76) rotate(-50.68)"/>
    <path class="cls-1" d="m719.1,127.09l-14.63-25.13.02-6.87h.17c.95,0,1.72-.77,1.72-1.72v-4.1c0-.95-.77-1.72-1.72-1.72h-26.2v-48.6h-18.35l.11,8.26h.07v40.34h-27.64c-.95,0-1.72.77-1.72,1.72v4.1c0,.95.77,1.72,1.72,1.72h1.35l-.02,6.92-12.26,21.84-11.56,5h0l-6.01,1.95-4.27,1.04.21-3.62c3.95-2.95,6.92-6.39,8.79-10.24,1.49-3.06,2.22-6.06,2.76-9.14h.03l.14-.97c.14-.87.28-1.74.41-2.63.11-.73.18-1.48.27-2.22l.29-2.08h-.07c.08-.93.15-1.86.19-2.79.5-.61.95-1.25,1.32-1.94.6-1.11,1.01-2.31,1.23-3.57.02-.16.56-3.97-1.7-7.78-2.35-3.96-8.65-6.65-16.85-7.18-8.7-.57-19.52,1.5-24.14,7.38-2.18,2.78-3.18,6.09-3.22,6.23-1.25,4.22-.73,8.02-.05,10.51l-.18,8.84c-5.25,2.15-12.13,6.26-16.54,13.89-1.18,2.05-4.79,8.29-3.24,16.29.94,4.86,3.39,8.48,5.57,10.87l-10,4.83-20.16,71.79-.14.51,10.66,15.14c-.91-.33-1.92-.4-2.91-.11l-1.61.47c-1.19.35-2.16,1.13-2.73,2.2-.55,1.04-.67,2.22-.31,3.34l4.66,14.85c.25,2.6.47,4.71.62,6.13.11,1.04.54,1.93,1.24,2.57.36.33.73.52,1.09.67l.59,1.89c.35,1.11,1.12,1.99,2.08,2.53l-8.11,2.6c-1.01.32-1.82,1.01-2.29,1.94-.45.9-.52,1.92-.19,2.87l.32.92c.31.89,1.16,1.46,2.08,1.46.22,0,.45-.03.68-.11l9.5-3.05,15.17,48.07,1.78,16.07-2.59,18.62-21.35,72-15.69,16.45.19,8.32-5.42,2.47v10.9h112.45s.45-64.02.45-64.02l.1-.48,34.23-56.74-9.74-52.34-19.87-50.56,3.46-81.52v-.29s-.12-.26-.12-.26c-1.82-3.64-3.69-7.3-5.56-10.87-2.7-5.17-5.5-10.34-8.36-15.48l17.84-7.52,12.71-.05,2.29-6.27,26.31-11.09v-25.47h23.79l-.02,6.58-14.23,25.36c-1.18.28-2.06,1.31-2.06,2.55v.21l3.1,7.91,29.06-.12,2.85-7.8v-.2c0-1.17-.78-2.15-1.86-2.49Zm-48.7-39.54v-33.23c.49.08,1,.12,1.51.12,1.28,0,2.58-.23,3.72-.64.2-.07.39-.17.59-.26v34.01h-5.82Zm5.78-46.35v9.87c-.41.25-.85.46-1.3.62-2.25.81-5.36.71-6.42-.72-.27-.36-.36-.75-.5-1.46-.21-1.01-.15-2.05.18-3.09l.45-1.45h-6.05v-3.77h13.64Zm-13.64,6.02h3.13c-.12.92-.09,1.84.09,2.75.16.77.32,1.56.89,2.34.39.54.91.96,1.5,1.28v33.97h-5.62v-40.34Zm-29.36,42.58h70.96v3.05h-70.96v-3.05Zm-9.87,35.82l10.61-4.58-.02,6.26h-11.52l.94-1.67Zm12.9-18.88l5.05,8.68-5.09,2.2.04-10.88Zm-2.28,11.85l-8.8,3.8,8.85-15.76-.04,11.96Zm2.24,1.48l6.24-2.69,5.77,9.92h-12.04l.03-7.23Zm.06-17.76l.03-7.2h24.04v12.1l-16.96,7.33-7.11-12.22Zm-87.33,172.78l-2.63.85c.41-.95.49-2,.17-3l-.39-1.24c.27-.2.54-.39.8-.62.54-.46,1.01-.94,1.45-1.43l.6,5.44Zm-7.01-47.24l15.49-46.14c6.65,13,14.18,27.72,15.36,30.02l-1.73,19.31-19.04,30.45.08-11.83-10.15-21.82Zm6.09-70.28l25.43-12.15c-.15,2.77.25,6.34,2.45,9.68,3.24,4.9,9.25,7.66,15.97,7.66,1.72,0,3.48-.19,5.26-.56l-.49,14.28-21.98,34.01c-1.56-3.04-9.54-18.66-16.24-31.74l.31-.93c.5-2.29.97-6.85-1.45-11.66-2.47-4.91-6.67-7.43-9.26-8.58Zm23.74-54.77l38.48.38-.48,3.42h-38.08l.08-3.8Zm4.04,41.4l.47-21.98c.49-.59,1.04-1.11,1.62-1.6.29-.23.57-.47.89-.66.66-.41,1.37-.73,2.1-.98v.56s-.02,0-.02,0c-.03.49-.05.77-.03,1.03v.33s0,.45,0,.45l.27.32.17.16s.02.02.03.03c.24.35.57.71,1.05,1.17.66.64,1.03.99,1.53,1.37,2.47,1.89,4.81,2.87,4.91,2.91h0c3.45,1.44,6.69,1.67,9.09,1.54l-1.06,31.11c-7.8,1.68-15.55-.78-19.08-6.11-2.21-3.35-2.3-7.03-1.97-9.65Zm-.53-28.9l.35-6.45h5.53l-.2,7.49c-1.47.31-3.18,1.51-4.05,2.18-.02.02-.04.04-.07.06-.95.7-1.79,1.52-2.49,2.46-3.56,3.03-6.37,6.86-8.14,11.08-2.47,5.89-2.46,11.31-1.94,15.07-2.39,1.11-4.79,2.22-7.17,3.31-1.37-1.44-2.89-3.45-4.02-5.99,2.73-6.4,6.91-13.64,11.39-18.92,3.09-3.65,6.59-7,10.4-9.97l.4-.31Zm-6.99,17.68c1.32-3.14,3.27-6.05,5.7-8.53l-.4,18.33-4.06,1.96c-.95.44-1.9.89-2.86,1.33-.09.04-.17.08-.26.12-.39-3.43-.25-8.14,1.88-13.22Zm6.65,79.89l23.23-35.93,1.2-35.03.43-7.64,7.98-2.45-.45,51.51-33.77,44.93,1.38-15.39Zm31.98-95.87c-1.74,3.56-4.5,6.77-8.22,9.52-4.62.17-8.49-.73-11.44-2.68-1.11-.74-2.08-1.6-3.01-2.43-.39-.35-.77-.68-1.14-.99l.02-.74.07-.97c.05-.7.07-1.11,0-1.43l.2-7.69,1.17-.74h24.86c-.51,2.81-1.19,5.46-2.5,8.16Zm-9.63-16.2l9.8-6.19,3.63,3.58c-.04.91-.13,1.83-.22,2.74l-13.2-.13Zm-25.54-8.87s.91-3.03,2.84-5.48c3.16-4.03,10.93-6.61,19.47-6.61.91,0,1.83.03,2.75.09,7.35.48,13.12,2.81,15.07,6.09,1.85,3.12,1.42,6.27,1.42,6.28-.18,1.01-.51,1.97-.99,2.87-.16.3-.34.6-.54.88l-3.68-3.6-.69-.68-9.59,6.06-4.66,2.94-8.2-.08,16.23-13.1-1.41-1.75-18.39,14.82-9.84-.1c-.51-2.19-.8-5.26.2-8.62Zm-16.97,33.72c4.28-7.4,11.12-11.26,16.11-13.2l.7-.27.07-3.35h1.74l-.29,5.31c-3.77,2.99-7.25,6.34-10.33,9.97-4.4,5.19-8.01,10.97-10.76,17.17-.07-.3-.16-.6-.22-.91-1.39-7.17,1.9-12.87,2.98-14.74Zm-13.83,129.6l-2.03-6.46,3.15,4.48v1.56c-.4.14-.75.28-1.12.42Zm-8,5.43l-2.81-8.95c1-.02,1.99-.17,2.95-.47,1.23-.38,2.4-1,3.37-1.79l-.48-.6h0s-.48-.6-.48-.6c-.83.67-1.82,1.19-2.87,1.52-.96.3-1.98.44-2.95.41v.06s-.27-.86-.27-.86c-.23-.72-.15-1.49.2-2.16.38-.71,1.02-1.23,1.82-1.46l1.61-.47c.3-.09.6-.13.89-.13,1.31,0,2.51.81,2.91,2.07l2.68,8.54c-3.47,1.46-5.66,3.09-6.57,4.87Zm1.74,1.74c.09-.89,1.14-3.22,8.85-5.7l.78-.25v-3.9l-17.01-24.15,19.37-68.99c2.22.91,6.3,3.13,8.61,7.73,2.11,4.19,1.7,8.17,1.3,10.05l-16.91,50.35-.14.42,10.32,22.18-.04,12.36c-.58,1.95-1.8,4.66-4.36,6.84-3.15,2.69-6.79,3.05-8.26,2.87-.39-.05-.85-.13-1.2-.45-.37-.34-.49-.81-.52-1.15-.15-1.46-.38-3.64-.64-6.33-.14-1.42-.15-1.68-.13-1.87Zm2.92,13.11l-.33-1.05c.19.01.4.02.62.02,1.72,0,4.3-.45,6.88-1.95l.26.82c.23.72.15,1.49-.2,2.16-.34.64-.9,1.11-1.59,1.37l-.87.28-.96.28c-1.6.48-3.31-.4-3.8-1.94Zm2.15,8.17l-9.51,3.05c-.36.11-.73-.06-.84-.39l-.32-.92c-.19-.56-.15-1.16.11-1.69.28-.56.77-.97,1.39-1.17l12.21-3.92.65-.19c.08-.02.15-.06.22-.09l10.67-3.43c.2-.06.4-.09.6-.09.78,0,1.51.47,1.77,1.22l.48,1.39c.05.15.04.3-.03.44-.08.15-.21.27-.38.32l-6.55,2.1h0s-10.45,3.36-10.45,3.36Zm49.68,126.64l.17,11.3-43.95-138.22,3.3-1.06.25-.08,40.22,128.06Zm-44.26-126.77l44.01,138.4-7.17-9.51-40.33-127.77,3.5-1.12Zm11.58,84.91l2.67-19.14-.56-5.09,12.67,40.13-28.51,30.39,13.73-46.29Zm-14.7,49.56l30-31.99,7.62,24.13-13.33,14.66-30.96,15.7,6.68-22.51Zm89.08-245.45l-3.47,81.7,19.95,50.7,9.56,51.4-30.38,50.36,16.75-76.73-1.49-.33-17.71,81.13-1.38,2.28-.44,62.73h-107.98v-7.22l5.46-2.49v-.06s90.48-28.27,90.48-28.27l-.46-1.46-90.06,28.14-.17-7.22,13.08-13.71,34.28-17.38.12-.06,12.92-14.21.37,1.18,10.64,14.17-.26-17.02-2.37-7.55,31.19-34.3-1.13-1.03-30.59,33.64-7.52-23.95,52.74-56.22-1.12-1.05-52.15,55.59-27.36-87.19-.75-6.73,5.32-1.71c.57-.18,1.02-.57,1.28-1.09.26-.51.3-1.09.11-1.62l-.48-1.39c-.59-1.72-2.51-2.65-4.28-2.09l-2.74.88-.68-6.16,22.84-37.07h0s35.55-47.31,35.55-47.31l.45-51.41c5.7,9.71,11.23,19.65,16.43,29.59,1.82,3.47,3.64,7.03,5.41,10.57Zm-12.45-29.25l-7.15-12.61,8.43-3.64-.16.28c-1.18.28-2.06,1.31-2.06,2.55v.21l3.1,7.91,10.52-.04-12.68,5.34Zm29.65-7.66l-25.96.11-2.35-6.01c.06-.14.22-.24.4-.24h29.66c.19,0,.35.11.41.25l-2.16,5.89Zm27.93-16.61l-23.67,9.97c-.28-.77-.9-1.37-1.7-1.62l-6.38-10.96,18.06-7.8v-13.57h13.68v23.98Zm40.2,7.88h-12.04l.07-20.56,11.96,20.56Zm-14.28,0h-11.52l11.6-20.66-.07,20.66Zm14.39,8.39l-25.96.11-2.35-6.01c.06-.14.22-.24.4-.24h29.66c.19,0,.35.11.41.25l-2.16,5.89Z"/>
  </g>
</svg>