<?xml version="1.0" encoding="UTF-8"?>
<svg id="inspo" xmlns="http://www.w3.org/2000/svg" viewBox="0 0 1997.43 3401.12">
  <defs>
    <style>
      .cls-1 {
        fill: none;
        stroke: #ef4903;
        stroke-linecap: round;
        stroke-linejoin: round;
        stroke-width: 4px;
      }
    </style>
  </defs>
  <g>
    <g>
      <g>
        <polygon class="cls-1" points="1427.99 421.91 1399.35 421.91 1424.29 406.74 1452.94 406.74 1427.99 421.91"/>
        <polygon class="cls-1" points="1466.9 421.91 1438.26 421.91 1463.2 406.74 1491.84 406.74 1466.9 421.91"/>
        <polygon class="cls-1" points="1505.8 421.91 1477.17 421.91 1502.11 406.74 1530.74 406.74 1505.8 421.91"/>
        <polygon class="cls-1" points="1544.71 421.91 1516.07 421.91 1541.01 406.74 1569.65 406.74 1544.71 421.91"/>
        <polygon class="cls-1" points="1583.61 421.91 1554.97 421.91 1579.91 406.74 1608.55 406.74 1583.61 421.91"/>
        <polygon class="cls-1" points="1622.52 421.91 1593.88 421.91 1618.82 406.74 1647.46 406.74 1622.52 421.91"/>
        <polygon class="cls-1" points="1661.43 421.91 1632.79 421.91 1657.73 406.74 1686.37 406.74 1661.43 421.91"/>
        <polygon class="cls-1" points="1700.33 421.91 1671.69 421.91 1696.63 406.74 1725.27 406.74 1700.33 421.91"/>
        <polygon class="cls-1" points="1739.23 421.91 1710.6 421.91 1735.54 406.74 1764.18 406.74 1739.23 421.91"/>
        <polygon class="cls-1" points="1778.14 421.91 1749.5 421.91 1774.44 406.74 1803.08 406.74 1778.14 421.91"/>
        <polygon class="cls-1" points="1817.04 421.91 1788.4 421.91 1813.34 406.74 1841.99 406.74 1817.04 421.91"/>
        <polygon class="cls-1" points="1855.95 421.91 1827.3 421.91 1852.25 406.74 1880.89 406.74 1855.95 421.91"/>
        <polygon class="cls-1" points="1894.85 421.91 1866.21 421.91 1891.15 406.74 1919.79 406.74 1894.85 421.91"/>
        <polygon class="cls-1" points="1932.68 421.91 1904.04 421.91 1928.98 406.74 1957.62 406.74 1932.68 421.91"/>
        <polygon class="cls-1" points="1394.1 442.53 1365.46 442.53 1390.41 427.35 1419.05 427.35 1394.1 442.53"/>
        <polygon class="cls-1" points="1433.01 442.53 1404.37 442.53 1429.31 427.35 1457.95 427.35 1433.01 442.53"/>
        <polygon class="cls-1" points="1471.91 442.53 1443.27 442.53 1468.22 427.35 1496.86 427.35 1471.91 442.53"/>
        <polygon class="cls-1" points="1510.82 442.53 1482.18 442.53 1507.12 427.35 1535.76 427.35 1510.82 442.53"/>
        <polygon class="cls-1" points="1549.72 442.53 1521.08 442.53 1546.02 427.35 1574.66 427.35 1549.72 442.53"/>
        <polygon class="cls-1" points="1588.63 442.53 1559.98 442.53 1584.93 427.35 1613.57 427.35 1588.63 442.53"/>
        <polygon class="cls-1" points="1627.54 442.53 1598.89 442.53 1623.83 427.35 1652.48 427.35 1627.54 442.53"/>
        <polygon class="cls-1" points="1666.44 442.53 1637.79 442.53 1662.74 427.35 1691.38 427.35 1666.44 442.53"/>
        <polygon class="cls-1" points="1705.34 442.53 1676.7 442.53 1701.65 427.35 1730.29 427.35 1705.34 442.53"/>
        <polygon class="cls-1" points="1744.24 442.53 1715.6 442.53 1740.55 427.35 1769.19 427.35 1744.24 442.53"/>
        <polygon class="cls-1" points="1783.15 442.53 1754.51 442.53 1779.45 427.35 1808.1 427.35 1783.15 442.53"/>
        <polygon class="cls-1" points="1822.06 442.53 1793.41 442.53 1818.36 427.35 1847 427.35 1822.06 442.53"/>
        <polygon class="cls-1" points="1860.96 442.53 1832.32 442.53 1857.27 427.35 1885.9 427.35 1860.96 442.53"/>
        <polygon class="cls-1" points="1898.79 442.53 1870.14 442.53 1895.09 427.35 1923.73 427.35 1898.79 442.53"/>
        <polygon class="cls-1" points="1360.21 463.14 1331.57 463.14 1356.52 447.97 1385.16 447.97 1360.21 463.14"/>
        <polygon class="cls-1" points="1399.12 463.14 1370.48 463.14 1395.43 447.97 1424.07 447.97 1399.12 463.14"/>
        <polygon class="cls-1" points="1438.02 463.14 1409.38 463.14 1434.33 447.97 1462.97 447.97 1438.02 463.14"/>
        <polygon class="cls-1" points="1476.93 463.14 1448.29 463.14 1473.24 447.97 1501.88 447.97 1476.93 463.14"/>
        <polygon class="cls-1" points="1515.83 463.14 1487.19 463.14 1512.14 447.97 1540.78 447.97 1515.83 463.14"/>
        <polygon class="cls-1" points="1554.74 463.14 1526.09 463.14 1551.04 447.97 1579.69 447.97 1554.74 463.14"/>
        <polygon class="cls-1" points="1593.64 463.14 1565 463.14 1589.95 447.97 1618.59 447.97 1593.64 463.14"/>
        <polygon class="cls-1" points="1632.54 463.14 1603.9 463.14 1628.85 447.97 1657.49 447.97 1632.54 463.14"/>
        <polygon class="cls-1" points="1671.45 463.14 1642.81 463.14 1667.76 447.97 1696.4 447.97 1671.45 463.14"/>
        <polygon class="cls-1" points="1710.35 463.14 1681.72 463.14 1706.66 447.97 1735.31 447.97 1710.35 463.14"/>
        <polygon class="cls-1" points="1749.26 463.14 1720.62 463.14 1745.57 447.97 1774.21 447.97 1749.26 463.14"/>
        <polygon class="cls-1" points="1788.17 463.14 1759.52 463.14 1784.47 447.97 1813.12 447.97 1788.17 463.14"/>
        <polygon class="cls-1" points="1827.07 463.14 1798.43 463.14 1823.38 447.97 1852.02 447.97 1827.07 463.14"/>
        <polygon class="cls-1" points="1864.9 463.14 1836.26 463.14 1861.21 447.97 1889.85 447.97 1864.9 463.14"/>
        <polygon class="cls-1" points="1329.15 482.04 1300.51 482.04 1325.46 466.86 1354.1 466.86 1329.15 482.04"/>
        <polygon class="cls-1" points="1368.06 482.04 1339.42 482.04 1364.36 466.86 1393 466.86 1368.06 482.04"/>
        <polygon class="cls-1" points="1757.1 482.04 1378.32 482.04 1403.27 466.86 1782.05 466.86 1757.1 482.04"/>
        <polygon class="cls-1" points="1796.01 482.04 1767.37 482.04 1792.32 466.86 1820.96 466.86 1796.01 482.04"/>
        <polygon class="cls-1" points="1833.84 482.04 1805.2 482.04 1830.14 466.86 1858.78 466.86 1833.84 482.04"/>
        <polygon class="cls-1" points="1553.32 535 1407.96 535 1487.97 486.33 1633.33 486.33 1553.32 535"/>
      </g>
      <polygon class="cls-1" points="1755.39 541.58 1181.54 541.58 1181.54 566.8 1755.39 566.8 1995.43 420.79 1995.43 395.58 1755.39 541.58"/>
    </g>
    <g>
      <path class="cls-1" d="m496.08,574.04s1.22,0,0,0c7.34-6.11,20.79-14.68,33.02-17.12l1.22-58.7h-44.03l-2.45,50.14-3.67,2.45c-30.57,23.24-57.48,50.14-81.94,79.49-35.47,41.58-68.49,99.06-90.5,149.2,8.56,19.57,20.79,36.69,31.8,47.7,19.57-8.56,37.91-17.12,57.48-25.68-3.67-30.57-3.67-72.16,14.68-119.85,14.68-33.02,36.69-63.59,63.6-88.05,7.34-7.34,14.68-13.45,20.79-19.57h0Z"/>
      <path class="cls-1" d="m341.99,950.72c19.57,37.91,15.9,74.6,12.23,91.72l-2.45,7.34c52.59,103.95,116.18,227.47,128.41,250.71l173.66-269.06,3.67-112.51c-14.68,3.67-28.13,4.89-41.58,4.89-52.59,0-100.28-22.01-125.97-61.15-17.12-25.68-20.79-55.03-19.57-77.05l-200.57,97.84c19.57,7.34,52.59,28.13,72.16,67.26h0Z"/>
      <path class="cls-1" d="m300.41,753.82c22.01-48.92,50.14-95.39,85.61-135.75,24.46-28.13,51.37-55.03,81.94-79.49l2.45-41.58h-13.45l-1.22,25.68-6.11,2.45c-39.14,14.68-92.95,45.25-127.19,103.95-8.56,14.68-34.24,59.93-23.24,116.18,0,3.67,1.22,6.11,1.22,8.56Z"/>
      <path class="cls-1" d="m532.77,432.18l145.53-117.41,11.01,14.68-128.41,103.95,64.82,1.22,36.69-23.24,75.82-47.7,6.11,6.11,29.35,28.13c1.22-2.45,3.67-4.89,3.67-7.34,3.67-7.34,6.11-14.68,7.34-23.24,0,0,3.67-25.68-11.01-50.14-14.68-25.68-61.15-44.03-119.85-47.7-7.34-1.22-14.68-1.22-22.01-1.22-67.26,0-128.41,20.79-154.1,52.59-14.68,19.57-22.01,44.03-22.01,44.03-7.34,26.91-6.11,50.14-1.22,68.49l78.27-1.22h0Z"/>
      <path class="cls-1" d="m414.14,792.95c1.22,0,1.22-1.22,2.45-1.22,7.34-3.67,14.68-7.34,23.24-9.78l33.02-15.9,3.67-144.31c-19.57,19.57-34.24,42.8-45.25,67.26-18.35,39.14-19.57,77.05-17.12,103.95Z"/>
      <path class="cls-1" d="m222.14,1651.49v-12.23l-25.68-35.47,15.9,51.37c3.67-1.22,7.34-2.45,9.78-3.67h0Z"/>
      <path class="cls-1" d="m239.26,1664.94l-6.11,2.45c-61.15,19.57-69.71,37.91-69.71,45.25,0,1.22,0,3.67,1.22,14.68,2.45,20.79,3.67,39.14,4.89,50.14,0,2.45,1.22,6.11,3.67,8.56,3.67,2.45,6.11,3.67,9.78,3.67,12.23,1.22,40.36-1.22,66.04-23.24,19.57-17.12,30.57-39.14,34.24-53.81v-97.84l-81.94-176.11,1.22-3.67,133.3-397.47c3.67-14.68,6.11-46.47-9.78-79.49-18.34-36.69-50.14-53.81-68.49-61.15l-152.87,545.45,134.53,190.78v31.8h0Z"/>
      <path class="cls-1" d="m157.32,1575.66c-2.45,0-4.89,0-7.34,1.22l-12.23,3.67c-6.11,1.22-11.01,6.11-14.68,12.23-3.67,6.11-3.67,11.01-1.22,17.12l2.45,7.34v-1.22c7.34,0,15.9-1.22,23.24-3.67s15.9-7.34,23.24-12.23l3.67,4.89h0l3.67,4.89c-7.34,6.11-17.12,11.01-26.91,14.68-7.34,2.45-15.9,3.67-23.24,3.67l22.01,70.93c7.34-14.68,24.46-26.91,52.59-39.14l-20.79-67.26c-4.89-11.01-13.45-17.12-24.46-17.12h0Z"/>
      <path class="cls-1" d="m655.07,901.8l8.56-245.82c-19.57,1.22-44.03-1.22-72.16-12.23h0c-1.22,0-19.57-7.34-39.14-23.24-3.67-3.67-7.34-6.11-12.23-11.01-3.67-3.67-6.11-6.11-7.34-9.78h0l-1.22-1.22-2.45-2.45v-12.23h0v-4.89c-6.11,2.45-11.01,4.89-17.12,7.34-2.45,1.22-4.89,3.67-7.34,6.11-4.89,3.67-8.56,7.34-12.23,12.23l-3.67,173.66c-2.45,20.79-1.22,50.14,15.9,77.05,28.13,40.36,88.05,59.93,150.43,46.47h0Z"/>
      <polygon class="cls-1" points="760.25 452.97 456.95 449.3 456.95 479.87 757.8 479.87 760.25 452.97"/>
      <path class="cls-1" d="m275.95,1811.7l-4.89-42.8c-3.67,3.67-7.34,7.34-12.23,11.01-2.45,1.22-3.67,3.67-6.11,4.89l3.67,9.78c2.45,7.34,1.22,17.12-1.22,23.24l20.79-6.11h0Z"/>
      <path class="cls-1" d="m557.23,496.99l-9.78,6.11-1.22,61.15c1.22,2.45,0,6.11,0,11.01l-1.22,7.34v6.11c3.67,2.45,6.11,6.11,8.56,7.34,7.34,6.11,14.68,13.45,23.24,19.57,23.24,14.68,53.81,22.01,90.5,20.79,29.35-22.01,51.37-46.47,64.82-74.6,9.78-20.79,15.9-41.58,19.57-64.82,2.44,0-194.45,0-194.45,0Z"/>
      <polygon class="cls-1" points="674.64 758.71 664.86 1036.33 481.41 1320.06 470.4 1441.13 738.23 1085.25 741.9 679.22 678.31 698.79 674.64 758.71"/>
      <path class="cls-1" d="m765.14,412.61l-28.13-28.13-77.05,48.92,103.95,1.22c-1.22-7.34,0-14.68,1.22-22.01Z"/>
      <path class="cls-1" d="m1353.52,748.04c40.39-53.56,80.86-107.07,121.4-160.53h-135.8c-24.81,32.94-49.61,65.87-74.42,98.81,0,0,0,0,.01,0-21.47,28.82-42.93,57.64-64.4,86.46-142.32-34.83-284.63-69.66-426.95-104.49,24.15,42.82,48.29,85.64,72.44,128.46,130.87,34.76,261.74,69.52,392.62,104.29,38.3-51.04,76.67-102.04,115.1-152.99Z"/>
      <path class="cls-1" d="m217.25,1830.04l7.34-2.45,7.34-2.45c6.11-2.45,9.78-6.11,12.23-11.01,3.67-6.11,3.67-11.01,1.22-17.12l-2.45-6.11c-20.79,12.23-41.58,14.68-55.03,14.68h-4.89l2.45,8.56c4.89,13.45,18.34,20.79,31.8,15.9h0Z"/>
      <polygon class="cls-1" points="229.47 2916.05 454.5 2676.34 354.22 2358.37 359.11 2398.73 338.32 2550.38 229.47 2916.05"/>
      <polygon class="cls-1" points="595.15 2973.53 246.6 1878.96 219.69 1887.52 537.67 2897.7 595.15 2973.53"/>
      <path class="cls-1" d="m338.32,1837.38c1.22-1.22,2.45-1.22,3.67-2.45,1.22-1.22,1.22-2.45,0-3.67l-3.67-11.01c-2.45-6.11-7.34-9.78-14.68-9.78-1.22,0-3.67,0-4.89,1.22l-84.39,26.91c-1.22,0-1.22,1.22-1.22,1.22l-6.11,1.22-96.62,30.57c-4.89,1.22-8.56,4.89-11.01,9.78-2.45,3.67-2.45,8.56-1.22,13.45l2.45,7.34c1.22,2.45,3.67,3.67,6.11,3.67l74.6-24.46,83.16-26.91h0l53.81-17.12h0Z"/>
      <polygon class="cls-1" points="596.37 2880.58 278.39 1867.95 275.95 1869.18 250.27 1877.74 597.59 2969.86 596.37 2880.58"/>
      <polygon class="cls-1" points="169.55 3119.06 414.14 2995.54 519.32 2879.36 458.17 2688.57 222.14 2941.73 169.55 3119.06"/>
      <path class="cls-1" d="m898.44,1646.59l28.13-645.73c-14.68-28.13-28.13-56.26-42.8-84.39-41.58-78.27-84.39-157.76-129.64-233.59l-3.67,406.03-281.29,374.23-179.78,293.52,6.11,48.92,20.79-7.34c14.68-4.89,29.35,3.67,34.24,17.12l3.67,11.01c1.22,3.67,1.22,8.56-1.22,12.23-2.45,3.67-6.11,7.34-9.78,8.56l-41.58,13.45,6.11,52.59,216.47,689.76,412.14-439.05,8.56,7.34-417.04,445.16,58.7,189.56,242.15-265.39,8.56,7.34-247.04,271.5,19.57,58.7,2.45,134.53-84.39-112.51-3.67-9.78-101.51,112.51-1.22,1.22-271.5,136.97-103.95,108.85,1.22,57.48,711.77-222.58,3.67,12.23-716.67,223.81v1.22l-44.03,19.57v57.48h856.09l3.67-495.31,11.01-18.34,139.42-640.84,12.23,2.45-133.31,606.6,240.93-398.69-75.82-406.03-157.76-402.36h0Zm-487.97,92.95l313.08-368.12,9.78,7.34-314.31,368.12-8.56-7.34Zm53.81,396.25l-9.78-7.34,366.89-448.83,9.78,7.34-366.89,448.83Z"/>
    </g>
  </g>
  <path class="cls-1" d="m1420.19,2v377.18h573.85V2h-573.85Z"/>
</svg>