<svg id="Layer_1" data-name="Layer 1" xmlns="http://www.w3.org/2000/svg" viewBox="0 0 2480 2480"><defs><style>.cls-1{fill:#ef4903;}</style></defs><title>Artboard 1</title><rect class="cls-1" x="1653.23" y="49.94" width="407.77" height="268.02"/><polygon class="cls-1" points="1657.78 342.54 1637.43 342.54 1655.15 331.75 1675.51 331.75 1657.78 342.54"/><polygon class="cls-1" points="1685.43 342.54 1665.08 342.54 1682.8 331.75 1703.15 331.75 1685.43 342.54"/><polygon class="cls-1" points="1713.07 342.54 1692.72 342.54 1710.45 331.75 1730.8 331.75 1713.07 342.54"/><polygon class="cls-1" points="1740.72 342.54 1720.37 342.54 1738.09 331.75 1758.44 331.75 1740.72 342.54"/><polygon class="cls-1" points="1768.36 342.54 1748.01 342.54 1765.73 331.75 1786.09 331.75 1768.36 342.54"/><polygon class="cls-1" points="1796.01 342.54 1775.66 342.54 1793.38 331.75 1813.73 331.75 1796.01 342.54"/><polygon class="cls-1" points="1823.66 342.54 1803.31 342.54 1821.03 331.75 1841.38 331.75 1823.66 342.54"/><polygon class="cls-1" points="1851.3 342.54 1830.95 342.54 1848.67 331.75 1869.02 331.75 1851.3 342.54"/><polygon class="cls-1" points="1878.95 342.54 1858.6 342.54 1876.32 331.75 1896.67 331.75 1878.95 342.54"/><polygon class="cls-1" points="1906.59 342.54 1886.24 342.54 1903.96 331.75 1924.32 331.75 1906.59 342.54"/><polygon class="cls-1" points="1934.24 342.54 1913.88 342.54 1931.61 331.75 1951.96 331.75 1934.24 342.54"/><polygon class="cls-1" points="1961.88 342.54 1941.53 342.54 1959.25 331.75 1979.61 331.75 1961.88 342.54"/><polygon class="cls-1" points="1989.53 342.54 1969.18 342.54 1986.9 331.75 2007.25 331.75 1989.53 342.54"/><polygon class="cls-1" points="2016.41 342.54 1996.06 342.54 2013.78 331.75 2034.13 331.75 2016.41 342.54"/><polygon class="cls-1" points="1633.7 357.18 1613.35 357.18 1631.07 346.4 1651.42 346.4 1633.7 357.18"/><polygon class="cls-1" points="1661.34 357.18 1640.99 357.18 1658.72 346.4 1679.07 346.4 1661.34 357.18"/><polygon class="cls-1" points="1688.99 357.18 1668.64 357.18 1686.37 346.4 1706.71 346.4 1688.99 357.18"/><polygon class="cls-1" points="1716.63 357.18 1696.29 357.18 1714.01 346.4 1734.36 346.4 1716.63 357.18"/><polygon class="cls-1" points="1744.28 357.18 1723.93 357.18 1741.65 346.4 1762.01 346.4 1744.28 357.18"/><polygon class="cls-1" points="1771.93 357.18 1751.57 357.18 1769.3 346.4 1789.65 346.4 1771.93 357.18"/><polygon class="cls-1" points="1799.58 357.18 1779.22 357.18 1796.94 346.4 1817.3 346.4 1799.58 357.18"/><polygon class="cls-1" points="1827.22 357.18 1806.86 357.18 1824.59 346.4 1844.94 346.4 1827.22 357.18"/><polygon class="cls-1" points="1854.86 357.18 1834.51 357.18 1852.24 346.4 1872.59 346.4 1854.86 357.18"/><polygon class="cls-1" points="1882.51 357.18 1862.15 357.18 1879.88 346.4 1900.23 346.4 1882.51 357.18"/><polygon class="cls-1" points="1910.15 357.18 1889.8 357.18 1907.53 346.4 1927.88 346.4 1910.15 357.18"/><polygon class="cls-1" points="1937.8 357.18 1917.44 357.18 1935.17 346.4 1955.53 346.4 1937.8 357.18"/><polygon class="cls-1" points="1965.44 357.18 1945.09 357.18 1962.82 346.4 1983.17 346.4 1965.44 357.18"/><polygon class="cls-1" points="1992.32 357.18 1971.97 357.18 1989.7 346.4 2010.05 346.4 1992.32 357.18"/><polygon class="cls-1" points="1609.62 371.83 1589.26 371.83 1606.99 361.05 1627.35 361.05 1609.62 371.83"/><polygon class="cls-1" points="1637.26 371.83 1616.91 371.83 1634.64 361.05 1654.99 361.05 1637.26 371.83"/><polygon class="cls-1" points="1664.91 371.83 1644.56 371.83 1662.29 361.05 1682.63 361.05 1664.91 371.83"/><polygon class="cls-1" points="1692.55 371.83 1672.2 371.83 1689.93 361.05 1710.28 361.05 1692.55 371.83"/><polygon class="cls-1" points="1720.2 371.83 1699.84 371.83 1717.58 361.05 1737.93 361.05 1720.2 371.83"/><polygon class="cls-1" points="1747.85 371.83 1727.49 371.83 1745.22 361.05 1765.57 361.05 1747.85 371.83"/><polygon class="cls-1" points="1775.49 371.83 1755.14 371.83 1772.87 361.05 1793.22 361.05 1775.49 371.83"/><polygon class="cls-1" points="1803.13 371.83 1782.78 371.83 1800.51 361.05 1820.86 361.05 1803.13 371.83"/><polygon class="cls-1" points="1830.78 371.83 1810.43 371.83 1828.16 361.05 1848.51 361.05 1830.78 371.83"/><polygon class="cls-1" points="1858.42 371.83 1838.08 371.83 1855.8 361.05 1876.16 361.05 1858.42 371.83"/><polygon class="cls-1" points="1886.07 371.83 1865.72 371.83 1883.45 361.05 1903.8 361.05 1886.07 371.83"/><polygon class="cls-1" points="1913.72 371.83 1893.37 371.83 1911.09 361.05 1931.45 361.05 1913.72 371.83"/><polygon class="cls-1" points="1941.36 371.83 1921.01 371.83 1938.74 361.05 1959.09 361.05 1941.36 371.83"/><polygon class="cls-1" points="1968.24 371.83 1947.89 371.83 1965.62 361.05 1985.97 361.05 1968.24 371.83"/><polygon class="cls-1" points="1587.55 385.26 1567.19 385.26 1584.92 374.48 1605.27 374.48 1587.55 385.26"/><polygon class="cls-1" points="1615.19 385.26 1594.84 385.26 1612.57 374.48 1632.92 374.48 1615.19 385.26"/><polygon class="cls-1" points="1891.64 385.26 1622.49 385.26 1640.21 374.48 1909.37 374.48 1891.64 385.26"/><polygon class="cls-1" points="1919.29 385.26 1898.94 385.26 1916.67 374.48 1937.02 374.48 1919.29 385.26"/><polygon class="cls-1" points="1946.17 385.26 1925.82 385.26 1943.55 374.48 1963.9 374.48 1946.17 385.26"/><polygon class="cls-1" points="1746.83 422.89 1643.54 422.89 1700.4 388.31 1803.69 388.31 1746.83 422.89"/><polygon class="cls-1" points="1890.43 427.57 1482.65 427.57 1482.65 445.49 1890.43 445.49 2061 341.74 2061 323.82 1890.43 427.57"/><path class="cls-1" d="M944.66,436.35h0c5.21-4.35,14.77-10.43,23.46-12.17l.87-41.71H937.71L936,418.1l-2.61,1.74c-21.72,16.51-40.84,35.63-58.22,56.48-25.21,29.55-48.67,70.39-64.31,106,6.08,13.9,14.77,26.07,22.59,33.89,13.91-6.09,26.94-12.17,40.85-18.25a174.72,174.72,0,0,1,10.43-85.17,189.1,189.1,0,0,1,45.19-62.57c5.21-5.21,10.42-9.56,14.77-13.9Z"/><path class="cls-1" d="M835.16,704c13.9,26.94,11.3,53,8.69,65.18l-1.74,5.21c37.37,73.87,82.56,161.64,91.25,178.16l123.4-191.19,2.61-80a119.31,119.31,0,0,1-29.55,3.47c-37.36,0-71.26-15.64-89.51-43.45-12.16-18.25-14.77-39.11-13.9-54.75L783.89,656.21c13.9,5.22,37.37,20,51.27,47.8Z"/><path class="cls-1" d="M805.61,564.1c15.65-34.77,35.63-67.79,60.84-96.47a449.6,449.6,0,0,1,58.22-56.49l1.74-29.54h-9.56L916,399.85l-4.34,1.74c-27.81,10.42-66,32.15-90.38,73.86C815.17,485.88,796.92,518,804.74,558,804.74,560.62,805.61,562.36,805.61,564.1Z"/><path class="cls-1" d="M970.73,335.54l103.42-83.43,7.82,10.43-91.25,73.87,46.06.87,26.07-16.52,53.88-33.89,4.34,4.35,20.86,20c.87-1.74,2.61-3.48,2.61-5.22a52.36,52.36,0,0,0,5.21-16.51,59.58,59.58,0,0,0-7.82-35.63c-10.43-18.25-43.45-31.29-85.16-33.89a94.44,94.44,0,0,0-15.65-.87c-47.79,0-91.25,14.77-109.5,37.37C921.2,270.36,916,287.74,916,287.74c-5.21,19.12-4.34,35.63-.87,48.67l55.62-.87Z"/><path class="cls-1" d="M886.43,591.9c.87,0,.87-.86,1.74-.86,5.22-2.61,10.43-5.22,16.51-7l23.47-11.29,2.6-102.55c-13.9,13.9-24.33,30.42-32.15,47.8C885.56,545.85,884.7,572.79,886.43,591.9Z"/><path class="cls-1" d="M750,1202v-8.69l-18.25-25.2,11.3,36.5a59,59,0,0,0,7-2.61Z"/><path class="cls-1" d="M762.16,1211.53l-4.34,1.74c-43.46,13.9-49.54,26.94-49.54,32.15a94.57,94.57,0,0,0,.87,10.43c1.74,14.77,2.61,27.81,3.48,35.63a9.34,9.34,0,0,0,2.6,6.08c2.61,1.74,4.35,2.61,6.95,2.61,8.69.87,28.68-.87,46.93-16.51,13.91-12.17,21.73-27.81,24.34-38.24V1175.9l-58.23-125.14.87-2.61,94.72-282.44c2.61-10.43,4.35-33-6.95-56.48-13-26.08-35.63-38.24-48.66-43.46L666.57,1053.36l95.59,135.57v22.6Z"/><path class="cls-1" d="M703.93,1148.09a11,11,0,0,0-5.21.87l-8.69,2.61c-4.34.87-7.82,4.34-10.43,8.69s-2.61,7.82-.87,12.16l1.74,5.22v-.87a54.45,54.45,0,0,0,16.51-2.61c5.22-1.74,11.3-5.21,16.51-8.69l2.61,3.48h0l2.61,3.47c-5.22,4.35-12.17,7.82-19.12,10.43a54.55,54.55,0,0,1-16.51,2.61l15.64,50.4c5.21-10.43,17.38-19.12,37.37-27.81l-14.78-47.79c-3.47-7.82-9.55-12.17-17.38-12.17Z"/><path class="cls-1" d="M1057.63,669.25l6.09-174.68c-13.91.87-31.29-.87-51.28-8.69h0c-.86,0-13.9-5.21-27.81-16.51-2.6-2.61-5.21-4.34-8.69-7.82-2.6-2.61-4.34-4.35-5.21-6.95h0l-.87-.87L968.12,452V443.3h0v-3.48c-4.34,1.74-7.82,3.48-12.16,5.22a23,23,0,0,0-5.22,4.34,41.62,41.62,0,0,0-8.69,8.69l-2.61,123.41c-1.73,14.77-.86,35.63,11.3,54.75,20,28.67,62.57,42.58,106.89,33Z"/><polygon class="cls-1" points="1132.37 350.31 916.85 347.7 916.85 369.43 1130.63 369.43 1132.37 350.31"/><path class="cls-1" d="M788.23,1315.81l-3.47-30.41a79.17,79.17,0,0,1-8.69,7.82c-1.74.87-2.61,2.61-4.35,3.48l2.61,7c1.74,5.21.87,12.16-.87,16.51l14.77-4.35Z"/><path class="cls-1" d="M988.11,381.6l-7,4.34-.87,43.45a22.63,22.63,0,0,1,.33,3.26,29.43,29.43,0,0,1-.33,4.57c-.17,1.34-.44,3.12-.87,5.21v4.35c2.61,1.73,4.35,4.34,6.08,5.21,5.22,4.34,10.43,9.56,16.52,13.9,16.51,10.43,38.23,15.65,64.31,14.78,20.85-15.64,36.5-33,46.05-53a166.31,166.31,0,0,0,13.91-46.06Z"/><polygon class="cls-1" points="1071.54 567.57 1064.59 764.84 934.23 966.46 926.41 1052.5 1116.73 799.61 1119.34 511.08 1074.14 524.99 1071.54 567.57"/><path class="cls-1" d="M1135.85,321.63l-20-20-54.75,34.76,73.87.87C1134.11,332.06,1135,326.85,1135.85,321.63Z"/><path class="cls-1" d="M1554,560c7.21-9.56,22.41-29.52,43.09-57.06,15-20,27.25-36.41,35.29-47.2h-96.22l-45.28,60.4h0l-45.76,61.43-303.39-74.25,51.48,91.28,279,74.11Q1513,614.31,1554,560Z"/><path class="cls-1" d="M746.52,1328.85l5.21-1.74,5.22-1.74a15.52,15.52,0,0,0,8.69-7.82c2.6-4.34,2.6-7.82.87-12.16l-1.74-4.35a77.41,77.41,0,0,1-39.11,10.43h-3.48l1.74,6.08c3.48,9.56,13,14.78,22.6,11.3Z"/><polygon class="cls-1" points="755.21 2100.56 915.11 1930.22 843.85 1704.28 847.33 1732.95 832.55 1840.71 755.21 2100.56"/><polygon class="cls-1" points="1015.05 2141.4 767.38 1363.61 748.26 1369.69 974.21 2087.52 1015.05 2141.4"/><path class="cls-1" d="M832.55,1334.06c.87-.86,1.74-.86,2.61-1.73a1.63,1.63,0,0,0,0-2.61l-2.61-7.82c-1.74-4.35-5.21-7-10.43-7-.86,0-2.6,0-3.47.86l-60,19.12a.85.85,0,0,0-.86.87l-4.35.87-68.65,21.73c-3.48.87-6.09,3.47-7.83,6.95-1.73,2.61-1.73,6.08-.86,9.56l1.73,5.21a4.78,4.78,0,0,0,4.35,2.61l53-17.38,59.1-19.12h0l38.23-12.17Z"/><polygon class="cls-1" points="1015.92 2075.36 789.97 1355.79 788.23 1356.66 769.98 1362.74 1016.79 2138.8 1015.92 2075.36"/><polygon class="cls-1" points="712.63 2244.82 886.43 2157.05 961.17 2074.49 917.72 1938.92 749.99 2118.81 712.63 2244.82"/><path class="cls-1" d="M1230.57,1198.49l20-458.85c-10.43-20-20-40-30.42-60-29.54-55.62-60-112.11-92.11-166l-2.61,288.52L925.54,1068.14,797.79,1276.71l4.35,34.76,14.77-5.21c10.43-3.48,20.86,2.6,24.33,12.16l2.61,7.82a10.27,10.27,0,0,1-.87,8.69c-1.74,2.61-4.34,5.22-7,6.09l-29.55,9.56,4.35,37.36,153.82,490.14,292.86-312,6.09,5.21L967.25,1887.64l41.72,134.7L1181,1833.76l6.08,5.22L1011.57,2031.9l13.91,41.72,1.74,95.59-60-79.95-2.6-7-72.13,80-.87.87-192.93,97.33-73.87,77.34.87,40.85,505.78-158.17,2.61,8.69-509.26,159v.87L593.57,2403v40.85h608.32l2.61-352,7.82-13,99.07-455.38,8.69,1.74-94.72,431,171.2-283.31-53.88-288.52-112.11-285.92Zm-346.74,66L1106.3,1003l7,5.21L889.91,1269.76Zm38.23,281.57-6.95-5.21L1175.82,1222l7,5.21Z"/></svg>