<?xml version="1.0" encoding="UTF-8"?>
<svg id="Camada_1" data-name="Camada 1" xmlns="http://www.w3.org/2000/svg" viewBox="0 0 183.4 62.23">
  <defs>
    <style>
      .cls-1 {
        fill: #0a0b09;
      }

      .cls-2 {
        fill: #ef7851;
      }
    </style>
  </defs>
  <g>
    <path class="cls-1" d="m86.87,27.84c0-1.62-1.46-2.59-3-2.59h-2.67c-1.66,0-3,1.34-3,3v7.05c0,1.66,1.34,3.08,3,3.08h2.67c1.66,0,3-.73,3-2.59h2.59c0,2.27-1.58,5.11-5.43,5.11h-3c-3.08,0-5.43-2.47-5.43-5.55v-7.01c0-3.08,2.51-5.59,5.59-5.59h2.67c3.04,0,5.59,2.19,5.59,5.11h-2.59Z"/>
    <path class="cls-2" d="m96.67,33.18v2.43c0,1.7,1.58,2.76,3.2,2.76h2.79c1.26,0,2.11-.49,2.47-1.86h2.71c-.61,2.43-2.51,4.38-5.14,4.38h-3.08c-3.08,0-5.55-2.27-5.55-5.35v-7.29c0-3.08,2.51-5.51,5.59-5.51h2.75c3.08,0,5.63,2.51,5.63,5.59v4.86h-11.38Zm8.79-5.02c0-1.66-1.42-2.92-3.04-2.92h-2.71c-1.66,0-3.04,1.26-3.04,2.92v2.55h8.79v-2.55Z"/>
    <path class="cls-1" d="m122.35,40.88h-5.59c-2.39,0-4.29-1.95-4.25-4.38h2.55c.04,1.05.81,1.86,1.94,1.86h5.39c1.05,0,1.82-.85,1.82-1.9v-1.66c0-1.05-.77-1.82-1.82-1.82h-5.14c-2.51,0-4.29-1.9-4.29-4.42v-1.42c0-2.55,2.03-4.42,4.5-4.42h4.21c2.47,0,4.46,2.11,4.46,4.46h-2.59c0-1.01-.77-1.95-2.03-1.95h-4.13c-1.05,0-1.82.77-1.82,1.82v1.54c0,1.05.77,1.86,1.82,1.86h5.23c2.51,0,4.21,1.86,4.21,4.37v1.62c0,2.51-1.94,4.42-4.46,4.42Z"/>
    <path class="cls-1" d="m131.59,18.68v-3h3v3h-3Zm.2,21.96v-17.58h2.59v17.58h-2.59Z"/>
    <path class="cls-1" d="m142.45,23.06v12.44c0,1.66,1.26,2.88,2.92,2.88h3.08c1.62,0,3-.97,3-2.67v-12.64h2.59v17.58h-2.59v-1.3c-.89.89-1.7,1.54-3.44,1.54h-2.67c-3.08,0-5.47-2.43-5.47-5.51v-12.32h2.59Z"/>
    <path class="cls-1" d="m167.44,25.24h-2.71c-1.58,0-2.96,1.05-2.96,2.76v12.64h-2.59v-17.58h2.59v1.3c.89-.89,1.7-1.62,3.4-1.62h2.39c.89,0,2.63.65,3.93,2.07,1.38-1.5,2.43-2.07,4.37-2.07h2.11c3,0,5.43,2.43,5.43,5.47v12.44h-2.59v-12.44c0-1.66-1.13-2.96-2.75-2.96h-2.31c-1.7,0-3,1.22-3,2.88v12.52h-2.59v-12.48c0-1.62-1.26-2.8-2.71-2.92Z"/>
  </g>
  <path class="cls-2" d="m17.13,35.44l-7.84-4.53v-9.06l17.12,9.89v9.06l-9.28-5.36Zm2.16-30.91L27.13,0l26.4,15.25-26.41,15.24-17.12-9.89,7.84-4.53,9.28,5.36,10.73-6.19L19.29,4.53Zm-1.44.83l17.12,9.89-7.84,4.53-9.28-5.36-9.28,5.36L.72,15.25,17.85,5.36ZM0,16.5l7.84,4.53v10.72l9.28,5.36v9.06S0,36.27,0,36.27v-19.77Zm0,21.44l18.56,10.72v-10.72s7.84,4.53,7.84,4.53v19.77L0,46.99v-9.06Zm27.85,24.3v-19.77l17.13-9.89v9.05l-9.28,5.36v10.72l-7.84,4.53Zm26.41-15.25l-17.13,9.89v-9.05l17.13-9.89v9.05Zm-7.84-6.19v-8.22l7.12,4.11-7.12,4.11Zm7.84-15.25l-26.41,15.25v-9.06s26.41-15.25,26.41-15.25v9.05Z"/>
</svg>