<svg id="Layer_1" data-name="Layer 1" xmlns="http://www.w3.org/2000/svg" viewBox="0 0 494.32 174.51"><defs><style>.cls-1{fill:#4698cb;}.cls-2{fill:#fff;}</style></defs><title>joyn-logo</title><path class="cls-1" d="M86.55,157.17a1,1,0,0,1,1.06-1h5.48c2.77,0,5.51,1.44,5.51,4.6a4,4,0,0,1-2.37,4v.05a4.41,4.41,0,0,1,3.86,4.63c0,3.38-3,4.84-6,4.84H87.61a1,1,0,0,1-1.06-1Zm2.13,7h4.44A3,3,0,0,0,96.47,161c0-2-1.57-3.11-3.7-3.11h-4.1Zm0,8.33h5c2.29,0,4.18-.83,4.26-3.33,0-1.89-1.33-3.27-3.86-3.27h-5.4Zm14.71-15.32a1,1,0,0,1,1.06-1h6.36a7.9,7.9,0,0,1,4.42,1,5,5,0,0,1,2.15,4.49,5.11,5.11,0,0,1-2.13,4.33,6.21,6.21,0,0,1-2.61,1.06l4.44,5.67a1.19,1.19,0,0,1,.29.72,1.09,1.09,0,0,1-1.09,1.06,1,1,0,0,1-.9-.5l-5.19-6.83h-4.68v6.3a1.06,1.06,0,0,1-2.13,0Zm2.13,8.22h5a6.52,6.52,0,0,0,3.11-.61,3.88,3.88,0,0,0,.05-6.2,6.17,6.17,0,0,0-3.11-.64h-5.05Zm15.16-8.46c-.05-1.33,2.21-1.33,2.13,0v16.54c.08,1.33-2.18,1.33-2.13,0Zm6.12.11a1.18,1.18,0,0,1,1.2-1.14,1.3,1.3,0,0,1,1.06.58l11.38,14.31V156.88a1,1,0,0,1,1-1,1,1,0,0,1,1,1v16.49a1.16,1.16,0,0,1-1.22,1.14,1.41,1.41,0,0,1-1.06-.58l-11.36-14.31v13.94a1,1,0,0,1-1,1,1,1,0,0,1-1-1Zm28.37-1.14a11.41,11.41,0,0,1,4.44.88c.88.37,1.3.82,1.3,1.33a1,1,0,0,1-1,1,20.39,20.39,0,0,1-2.21-.88,7.94,7.94,0,0,0-2.58-.4,7.35,7.35,0,0,0-7.21,7.37,7.06,7.06,0,0,0,7.21,7.45,8.48,8.48,0,0,0,5.05-1.6v-3.88h-4.89a.94.94,0,0,1,0-1.89h6a.94.94,0,0,1,1,1v7.18c.13,1.36-2.23,1.36-2.07,0V173a9,9,0,0,1-5.13,1.46c-5.16,0-9.33-3.32-9.33-9.33A9.43,9.43,0,0,1,155.16,155.89Zm17.6,1.86a1.92,1.92,0,0,1,3.83,0v14.89a1.92,1.92,0,0,1-3.83,0Zm19.92-1.62a1.7,1.7,0,0,1,0,3.4h-4.42v13.11a1.92,1.92,0,0,1-3.83,0V159.53H180a1.7,1.7,0,0,1,0-3.4ZM201.45,173l6.38-16a1.54,1.54,0,0,1,3,0l6.36,16a1.44,1.44,0,0,1,.13.56,1,1,0,0,1-1.06,1,1.06,1.06,0,0,1-1.06-.77l-1.57-4H205l-1.62,4a1,1,0,0,1-1.06.77.94.94,0,0,1-1-1A1.82,1.82,0,0,1,201.45,173Zm4.07-4.92H213l-3.75-9.42Zm14-11.12a1.06,1.06,0,0,1,2.13,0v15.43h8.67a.95.95,0,0,1,0,1.89h-9.73a1,1,0,0,1-1.06-1Zm14.17,0a1.06,1.06,0,0,1,2.13,0v15.43h8.67a.95.95,0,0,1,0,1.89h-9.73a1,1,0,0,1-1.06-1Zm19.86-.8h13.17a.95.95,0,0,1,0,1.89h-5.53v15.45c.08,1.33-2.18,1.33-2.13,0V158h-5.51a.94.94,0,0,1,0-1.89Zm23.69-.24a9.31,9.31,0,1,1-9.47,9.34A9.39,9.39,0,0,1,277.21,155.89Zm0,16.65a7.33,7.33,0,1,0-7.21-7.31A7.24,7.24,0,0,0,277.21,172.54Zm21.41-16.65a11.41,11.41,0,0,1,4.44.88c.88.37,1.3.82,1.3,1.33a1,1,0,0,1-1,1,20.39,20.39,0,0,1-2.21-.88,7.94,7.94,0,0,0-2.58-.4,7.35,7.35,0,0,0-7.21,7.37,7.06,7.06,0,0,0,7.21,7.45,8.48,8.48,0,0,0,5.05-1.6v-3.88h-4.89a.94.94,0,0,1,0-1.89h6a.94.94,0,0,1,1,1v7.18c.13,1.36-2.23,1.36-2.07,0V173a9,9,0,0,1-5.13,1.46c-5.16,0-9.33-3.32-9.33-9.33A9.43,9.43,0,0,1,298.62,155.89Zm11,1.28a1,1,0,0,1,1.06-1h11.2a.9.9,0,0,1,.9.93.93.93,0,0,1-.9,1H311.78v6.2h8.75c1.2,0,1.2,2,0,1.89h-8.75v6.25h10.13a.95.95,0,0,1,0,1.89h-11.2a1,1,0,0,1-1.06-1Zm16-1h13.17a.95.95,0,0,1,0,1.89h-5.53v15.45c.08,1.33-2.18,1.33-2.13,0V158h-5.51a.94.94,0,0,1,0-1.89Zm16.06.8c-.05-1.33,2.21-1.33,2.13,0v7.29H354.7v-7.29a1.06,1.06,0,0,1,2.13,0v16.54a1.08,1.08,0,0,1-1.06,1,1,1,0,0,1-1.06-1V166.1H343.82v7.37c.08,1.33-2.18,1.33-2.13,0Zm19.09.24a1,1,0,0,1,1.06-1H373a.9.9,0,0,1,.9.93.93.93,0,0,1-.9,1H362.91v6.2h8.75c1.2,0,1.2,2,0,1.89h-8.75v6.25H373a.95.95,0,0,1,0,1.89h-11.2a1,1,0,0,1-1.06-1Zm16,0a1,1,0,0,1,1.06-1h6.36a7.9,7.9,0,0,1,4.42,1,5,5,0,0,1,2.15,4.49,5.11,5.11,0,0,1-2.13,4.33,6.21,6.21,0,0,1-2.61,1.06l4.44,5.67a1.19,1.19,0,0,1,.29.72,1.09,1.09,0,0,1-1.09,1.06,1,1,0,0,1-.9-.5l-5.19-6.83h-4.68v6.3a1.06,1.06,0,0,1-2.13,0Zm2.13,8.22h5a6.52,6.52,0,0,0,3.11-.61,3.88,3.88,0,0,0,.05-6.2,6.17,6.17,0,0,0-3.11-.64h-5.05Zm15.31-8.91H398a.59.59,0,0,1,0,1.18h-1.23v4c0,.8-1.36.8-1.29,0v-4h-1.25a.59.59,0,0,1,0-1.18Zm5,.54a.6.6,0,0,1,.67-.61c.43,0,.57.14.83.54l1.42,2.39,1.4-2.39c.25-.4.4-.54.83-.54a.62.62,0,0,1,.69.61v4.64a.63.63,0,0,1-.62.61.62.62,0,0,1-.64-.61v-2.86l-1.12,1.88a.66.66,0,0,1-.54.35.57.57,0,0,1-.56-.35l-1.12-1.88v2.86a.63.63,0,0,1-.62.61.61.61,0,0,1-.62-.61Z"/><path class="cls-2" d="M488.41,8.35l1.36,1.6a.78.78,0,0,1,.2.52.67.67,0,0,1-.64.68.81.81,0,0,1-.64-.36l-1.84-2.24h-1.44v1.88a.71.71,0,0,1-.68.72.68.68,0,0,1-.68-.72V4.6a.67.67,0,0,1,.68-.68h2.52c1.56,0,2.72.76,2.72,2.24A2.24,2.24,0,0,1,488.41,8.35Zm.16-2.08c0-.76-.52-1.16-1.44-1.16h-1.72V7.44h1.72C488,7.44,488.57,7,488.57,6.28Zm5.76,1.27v0a7.55,7.55,0,1,1-15.1,0v0a7.55,7.55,0,1,1,15.1,0Zm-1.4,0a6.15,6.15,0,1,0-12.3,0v0a6.15,6.15,0,1,0,12.3,0ZM469.67,17.61v91.81A21.14,21.14,0,0,1,454.46,130a22.29,22.29,0,0,1-6.53,1,21.09,21.09,0,0,1-17.59-9.51L394,67.71v45.92a17.28,17.28,0,0,1-17.28,17.28h-.36A16.92,16.92,0,0,1,359.42,114V51a5.13,5.13,0,0,1,5.12-5.12h0A5.12,5.12,0,0,1,369.68,51v63a6.68,6.68,0,0,0,6.68,6.68h.36a7,7,0,0,0,7-7V51a5.12,5.12,0,0,1,9.37-2.87l45.72,67.62a11.26,11.26,0,0,0,20.59-6.31V17.61a7,7,0,1,0-14.06,0V81.78a5.12,5.12,0,0,1-9.35,2.9L389.78,17.43a16.35,16.35,0,0,0-13.61-7.18h0a16.34,16.34,0,0,0-13.6,7.11L317.22,82.58l0,31.32a17,17,0,0,1-17,17h-.37a17.34,17.34,0,0,1-17.35-17.35v-31L262.61,53.91A5.12,5.12,0,0,1,271,48.07l20.84,30a5.13,5.13,0,0,1,.92,2.92v32.58a7.1,7.1,0,0,0,7.1,7.1h.37A6.75,6.75,0,0,0,307,113.9L307,81a5.13,5.13,0,0,1,.92-2.93l46.24-66.54A26.81,26.81,0,0,1,376.13,0h.07a26.81,26.81,0,0,1,22,11.62l36.89,53.66V17.61a17.28,17.28,0,0,1,34.55,0Zm-230.13,8a15,15,0,0,0,1.83,7.19,65.49,65.49,0,1,1-114.57,2.11H108V64.4c0,36-28.79,65.8-64.19,66.49H42.51A65.27,65.27,0,0,1,7.94,121a16.77,16.77,0,0,1-7.82-12.4A17,17,0,0,1,5,94.59l.33-.32A17.21,17.21,0,0,1,26.5,91.9a30.88,30.88,0,0,0,16,4.46h.1c17-.05,30.84-14.31,30.84-31.78V51a5.12,5.12,0,1,1,10.25,0V64.57c0,23.11-18.42,42-41.06,42a41.87,41.87,0,0,1-21.44-5.94,7,7,0,0,0-8.61.84l-.33.32a6.85,6.85,0,0,0-2,5.65,6.58,6.58,0,0,0,3.06,4.87,55.09,55.09,0,0,0,30.25,8.3c29.85-.58,54.14-25.81,54.14-56.24V34.89H31.84a17.28,17.28,0,0,1,0-34.55H90.42A17.59,17.59,0,0,1,108,17.91v6.73h25.55A65.45,65.45,0,0,1,209.88,5.07a5.12,5.12,0,1,1-4,9.45,55.23,55.23,0,0,0-58.4,10.12H183.8c22.18,0,40.85,17.64,41.62,39.31a40.79,40.79,0,0,1-40.77,42.28,5.16,5.16,0,0,1-1.22-.15,40.75,40.75,0,0,1-36.06-57.17,5.12,5.12,0,1,1,9.37,4.15,30.5,30.5,0,0,0,27.89,42.8,5.13,5.13,0,0,1,1.06.11,30.55,30.55,0,0,0,29.47-31.65c-.58-16.23-14.65-29.43-31.38-29.43H138.71a55.2,55.2,0,1,0,93.73,2.92,25.26,25.26,0,0,1,42.83-26.66l24.58,35.36L330,2.56a5.12,5.12,0,0,1,8.45,5.8L304.1,58.43a5.12,5.12,0,0,1-4.21,2.23h0a5.12,5.12,0,0,1-4.21-2.2L266.85,17a15,15,0,0,0-27.32,8.58ZM97.74,17.91a7.33,7.33,0,0,0-7.32-7.32H31.84a7,7,0,0,0,0,14.05H97.74Z"/></svg>