<?xml version="1.0" encoding="UTF-8"?> <svg xmlns="http://www.w3.org/2000/svg" xmlns:xlink="http://www.w3.org/1999/xlink" version="1.1" id="Layer_1" x="0px" y="0px" viewBox="0 0 719.2 190.1" style="enable-background:new 0 0 719.2 190.1;" xml:space="preserve"> <style type="text/css"> .st0{fill:#FFFFFF;} </style> <g> <path class="st0" d="M710.6,12.2l2,2.3c0.2,0.3,0.3,0.5,0.3,0.8c0,0.5-0.4,1-0.9,1c-0.4,0-0.7-0.2-0.9-0.5l-2.7-3.3h-2.1v2.7 c0,0.6-0.5,1-1,1c-0.6,0-1-0.5-1-1V6.7c0-0.5,0.4-1,1-1h3.7c2.3,0,4,1.1,4,3.3C712.9,10.5,712,11.6,710.6,12.2z M710.8,9.1 c0-1.1-0.8-1.7-2.1-1.7h-2.5v3.4h2.5C710.1,10.8,710.8,10.1,710.8,9.1z M719.2,11L719.2,11c0,6.1-4.9,11.1-11,11.1 c-6.2,0-11-5-11-11v-0.1c0-6,4.9-11.1,11-11.1C714.4,0,719.2,5,719.2,11z M717.2,11c0-4.9-3.8-9-9-9c-5.1,0-9,4.1-9,9.1v0.1 c0,4.9,3.8,9,9,9C713.3,20.1,717.2,16,717.2,11L717.2,11z M658.1,0.6c-13.5,0-24.6,11-24.6,24.6v71.8l-55.1-80.1 c-7.2-10.4-19-16.7-31.6-16.7c0,0-0.1,0-0.1,0c-12.6,0-24.4,6.2-31.6,16.5l-67.5,97.2c-0.8,1.1-1.2,2.5-1.2,3.9l0,48.1 c0,2.8-1.1,5.5-3.1,7.4s-4.6,3.1-7.4,3.1h-0.5c-3,0-5.7-1.1-7.8-3.2c-2.1-2.1-3.2-4.9-3.2-7.8l0-47.6c0-1.4-0.4-2.8-1.2-3.9 L392.6,70c-2.1-3.1-6.4-3.9-9.5-1.7c-3.1,2.2-3.9,6.4-1.7,9.5l29.2,42l0,45.4c0,6.6,2.6,12.8,7.2,17.5c4.7,4.7,10.9,7.2,17.5,7.2 h0.5c6.5,0,12.5-2.5,17.1-7.1c4.6-4.6,7.1-10.6,7.1-17.1l0-46l66.3-95.4c4.7-6.8,12.1-10.7,20.4-10.7c0,0,0,0,0.1,0 c8.3,0,15.7,3.9,20.4,10.8l67.5,98.2c1.7,2.5,4.8,3.5,7.6,2.7c2.9-0.9,4.8-3.5,4.8-6.5V25.2c0-6,4.9-10.9,10.9-10.9 c6,0,10.9,4.9,10.9,10.9v134.1c0,9.3-6.3,14.6-12.1,16.4c-5.9,1.8-14,1-19.2-6.8L571,70.1c-1.7-2.5-4.8-3.6-7.7-2.7 c-2.9,0.9-4.8,3.5-4.8,6.5c0,0,0,60.6,0,91.5c0,2.9-1.1,5.7-3.2,7.7c-2.1,2.1-4.8,3.2-7.7,3.2H547c-5.7,0-10.4-4.7-10.4-10.4l0-92 c0-3.8-3.1-6.8-6.8-6.8h0c-3.8,0-6.8,3.1-6.8,6.8l0,92c0,13.3,10.8,24.1,24.1,24.1h0.5c6.6,0,12.7-2.6,17.4-7.2 c4.6-4.6,7.2-10.8,7.2-17.4c0-18.9,0-48.8,0-69.2l54.3,80.3c5.9,8.7,15.2,13.6,25.2,13.6c3.1,0,6.2-0.5,9.3-1.4 c13.2-4,21.7-15.6,21.7-29.4V25.2C682.7,11.6,671.7,0.6,658.1,0.6z M369.1,14.3c7.4,0,14.3,3.6,18.5,9.7l42.1,60.5 c1.3,1.8,3.4,2.9,5.6,2.9c0,0,0,0,0,0c2.2,0,4.3-1.1,5.6-3l50.2-73.1c2.1-3.1,1.3-7.4-1.8-9.5c-3.1-2.1-7.4-1.3-9.5,1.8l-44.6,65 l-36.4-52.4C392.1,6.4,381,0.6,369.1,0.6c-20,0-36.2,16.3-36.2,36.2c0,6.1,1.5,12.1,4.5,17.5c7.2,12.3,10.9,26.4,10.9,40.8 c0,44.8-36.5,81.3-81.3,81.3s-81.3-36.5-81.3-81.3c0-16.8,5.1-32.4,13.9-45.4h66.2c24.8,0,45.6,19.6,46.5,43.6 c0.4,12.4-4.1,24.2-12.7,33.1c-8.3,8.6-19.3,13.4-31.1,13.8c-0.5-0.1-1-0.2-1.5-0.2c-24.9,0-45.2-20.3-45.2-45.2 c0-6.4,1.3-12.5,3.8-18.3c1.5-3.4,0-7.5-3.5-9c-3.4-1.5-7.5,0-9,3.5c-3.3,7.5-5,15.5-5,23.8c0,31.9,25.5,57.9,57.2,58.8 c0.5,0.1,1.1,0.2,1.7,0.2c16.1,0,31.2-6.4,42.4-18c11.2-11.6,17.1-26.9,16.5-43.1c-1.1-31.3-28.1-56.8-60.1-56.8h-54.6 c14.6-13.8,34.2-22.3,55.9-22.3c10.9,0,21.4,2.1,31.3,6.3c3.5,1.5,7.5-0.2,8.9-3.7c1.5-3.5-0.2-7.5-3.7-8.9 C292,2.6,279.7,0.2,267,0.2c-30.1,0-56.9,14.1-74.3,36h-36.3V25.6c0-13.8-11.2-25-25-25H45.8c-13.5,0-24.6,11-24.6,24.6 s11,24.6,24.6,24.6h96.9v43.8c0,44.8-35.8,82-79.7,82.8c-15.9,0.3-31.2-3.9-44.6-12.2c-2.7-1.7-4.4-4.4-4.8-7.6 c-0.4-3.3,0.7-6.5,3.1-8.8l0.5-0.5c3.5-3.5,9-4,13.4-1.3c9.3,5.6,19.9,8.6,30.8,8.6c0.1,0,0.1,0,0.2,0 c32.7-0.1,59.3-27.3,59.3-60.7V73.9c0-3.8-3.1-6.8-6.8-6.8c-3.8,0-6.8,3.1-6.8,6.8v19.8c0,25.9-20.5,47-45.7,47.1 c-8.5,0-16.7-2.3-23.9-6.6c-9.8-5.9-22.2-4.6-30.1,3.4l-0.5,0.5c-5.3,5.3-7.8,12.6-7,20c0.8,7.3,4.9,13.7,11.1,17.6 c15.1,9.4,32.4,14.3,50.2,14.3c0.6,0,1.2,0,1.9,0c51.3-1,93.1-44.3,93.1-96.5V49.8h27.2c-7.4,13.5-11.6,28.9-11.6,45.4 c0,52.4,42.6,95,95,95s95-42.6,95-95c0-16.8-4.4-33.2-12.7-47.5c-1.8-3.3-2.7-7-2.7-10.8C346.5,24.4,356.7,14.3,369.1,14.3z M142.8,36.1H45.8c-6,0-10.9-4.9-10.9-10.9s4.9-10.9,10.9-10.9h85.6c6.3,0,11.4,5.1,11.4,11.4V36.1z"></path> </g> </svg> 