<?xml version="1.0" standalone="no"?>
<!DOCTYPE svg PUBLIC "-//W3C//DTD SVG 20010904//EN"
 "http://www.w3.org/TR/2001/REC-SVG-20010904/DTD/svg10.dtd">
<svg version="1.0" xmlns="http://www.w3.org/2000/svg"
 width="719.000000pt" height="190.000000pt" viewBox="0 0 719.000000 190.000000"
 preserveAspectRatio="xMidYMid meet">

<g transform="translate(0.000000,190.000000) scale(0.100000,-0.100000)"
fill="#000000" stroke="none">
<path d="M390 1891 c-137 -42 -209 -181 -169 -325 13 -48 82 -123 134 -147 37
-17 78 -19 553 -19 l512 0 0 -260 c0 -199 -4 -279 -16 -338 -62 -303 -292
-549 -591 -634 -117 -33 -295 -30 -416 6 -105 31 -193 74 -227 111 -38 40 -34
98 8 136 43 38 73 37 164 -6 355 -169 755 16 852 392 11 43 16 108 16 225 0
186 -4 198 -73 198 -59 0 -67 -22 -67 -175 0 -206 -34 -308 -136 -415 -96
-101 -211 -146 -351 -137 -72 4 -96 11 -171 47 -154 74 -264 63 -352 -37 -50
-57 -63 -98 -58 -183 7 -124 78 -196 267 -269 127 -49 224 -64 379 -58 185 6
299 39 456 131 84 50 222 178 282 262 60 84 129 232 155 334 19 75 22 120 26
378 l5 292 128 0 127 0 -22 -47 c-60 -127 -85 -242 -85 -401 0 -199 41 -348
141 -510 126 -205 335 -357 577 -418 137 -35 329 -34 468 1 366 93 644 397
704 769 8 47 11 124 7 203 -6 149 -34 259 -99 387 -55 111 -61 171 -21 246 57
108 179 149 287 96 60 -29 35 2 344 -441 92 -131 179 -246 193 -254 55 -31 60
-25 339 381 216 313 264 389 264 417 0 58 -62 90 -110 57 -11 -8 -119 -159
-240 -335 -120 -176 -221 -320 -224 -320 -3 0 -86 118 -185 262 -194 281 -235
331 -307 365 -181 88 -396 23 -487 -147 -68 -127 -63 -225 18 -400 64 -139 86
-235 84 -376 -3 -310 -187 -588 -477 -720 -112 -51 -195 -69 -326 -69 -145 0
-223 19 -360 86 -94 45 -115 61 -206 152 -91 91 -107 112 -152 206 -66 134
-85 215 -86 355 -1 139 22 236 83 359 l46 91 345 3 c391 3 444 -3 546 -64 226
-133 298 -420 156 -627 -68 -98 -190 -178 -299 -196 -186 -29 -385 74 -468
242 -61 124 -67 214 -25 351 24 76 17 107 -28 125 -49 20 -82 -2 -111 -74 -33
-81 -41 -250 -17 -345 80 -318 407 -512 726 -431 204 51 372 220 425 426 19
76 19 214 0 290 -52 202 -222 372 -433 431 -44 13 -126 18 -367 23 l-310 6 55
42 c74 55 179 107 276 135 65 18 102 22 209 22 113 -1 141 -5 215 -28 122 -40
141 -41 168 -16 28 26 30 80 3 104 -26 24 -141 61 -234 76 -118 19 -310 8
-420 -24 -165 -49 -298 -129 -422 -255 l-69 -71 -172 0 -172 0 -4 88 c-3 73
-9 96 -33 141 -32 58 -89 103 -155 121 -41 12 -952 12 -990 1z m996 -175 c32
-32 34 -38 34 -105 l0 -71 -480 0 c-516 0 -529 1 -564 51 -27 38 -21 96 13
130 l29 29 467 0 467 0 34 -34z"/>
<path d="M5355 1887 c-67 -23 -124 -56 -163 -95 -20 -21 -193 -263 -384 -539
l-348 -501 0 -264 c0 -240 -2 -266 -19 -294 -22 -37 -70 -59 -107 -50 -15 4
-39 20 -55 36 l-29 28 0 269 0 269 -167 239 c-166 237 -168 240 -206 243 -50
4 -77 -19 -77 -65 0 -28 28 -74 150 -249 l150 -215 0 -252 c0 -244 1 -254 24
-303 28 -60 95 -120 150 -135 114 -31 233 13 291 105 l30 49 5 271 5 271 338
485 c186 267 352 497 369 512 43 37 120 62 173 56 61 -7 130 -43 163 -86 16
-20 179 -255 362 -522 183 -267 339 -491 348 -497 24 -19 69 -16 92 7 19 19
20 33 20 505 0 521 1 534 51 569 40 27 86 21 125 -18 l34 -34 0 -704 0 -705
-23 -43 c-26 -49 -90 -90 -139 -90 -40 0 -88 23 -120 56 -14 16 -171 245 -349
509 -177 264 -331 490 -342 503 -26 28 -86 30 -110 4 -15 -17 -17 -66 -17
-496 0 -532 0 -529 -64 -560 -47 -22 -88 -14 -121 26 l-25 30 0 489 c0 476 -1
490 -20 509 -40 40 -112 20 -125 -33 -3 -12 -5 -242 -3 -512 3 -480 3 -491 25
-530 48 -90 123 -135 223 -135 98 0 181 46 223 123 21 41 22 52 27 419 l5 377
273 -404 c151 -222 292 -421 314 -441 63 -56 110 -74 204 -74 70 0 89 4 142
30 68 35 115 82 146 149 21 45 21 58 24 775 3 826 6 793 -74 872 -96 97 -265
95 -355 -3 -65 -69 -64 -61 -69 -484 l-5 -386 -275 400 c-151 221 -292 419
-313 440 -22 21 -69 53 -105 70 -55 26 -81 32 -152 34 -52 2 -101 -2 -125 -10z"/>
<path d="M7007 1880 c-48 -38 -54 -124 -11 -171 24 -27 77 -39 119 -28 50 14
75 51 75 111 0 41 -5 54 -29 79 -25 24 -38 29 -79 29 -35 0 -57 -6 -75 -20z
m130 -32 c67 -63 -15 -176 -96 -133 -49 25 -58 90 -18 133 27 29 82 30 114 0z"/>
<path d="M7040 1790 c0 -59 16 -82 27 -39 6 20 6 20 29 -2 27 -25 44 -18 26
11 -7 12 -8 21 -2 25 16 10 12 52 -6 59 -9 3 -29 6 -45 6 -29 0 -29 0 -29 -60z
m60 20 c0 -5 -9 -10 -20 -10 -11 0 -20 5 -20 10 0 6 9 10 20 10 11 0 20 -4 20
-10z"/>
</g>
</svg>
