<?xml version="1.0" standalone="no"?>
<!DOCTYPE svg PUBLIC "-//W3C//DTD SVG 20010904//EN"
 "http://www.w3.org/TR/2001/REC-SVG-20010904/DTD/svg10.dtd">
<svg version="1.0" xmlns="http://www.w3.org/2000/svg"
 width="5760.000000pt" height="3240.000000pt" viewBox="0 0 5760.000000 3240.000000"
 preserveAspectRatio="xMidYMid meet">

<g transform="translate(0.000000,3240.000000) scale(0.100000,-0.100000)"
fill="#000000" stroke="none">
<path d="M24080 28738 c-25 -14 -25 -15 -22 -123 4 -118 13 -148 53 -177 27
-20 147 -25 1084 -47 211 -5 340 -12 358 -19 42 -18 50 -51 37 -169 -6 -57
-17 -120 -24 -140 -7 -21 -16 -71 -20 -111 -4 -40 -16 -106 -26 -145 -10 -40
-21 -103 -25 -142 -4 -38 -15 -95 -25 -125 -10 -30 -20 -89 -23 -130 -4 -42
-15 -105 -26 -140 -10 -36 -22 -102 -25 -148 -4 -45 -15 -104 -25 -130 -10
-26 -21 -86 -25 -134 -3 -48 -15 -111 -25 -140 -11 -29 -22 -93 -26 -143 -4
-49 -15 -108 -24 -131 -10 -22 -21 -82 -25 -135 -5 -56 -15 -112 -27 -137 -12
-28 -21 -79 -25 -140 -4 -65 -13 -111 -26 -139 -13 -28 -22 -78 -27 -145 -4
-57 -15 -121 -25 -142 -9 -21 -20 -84 -25 -140 -5 -56 -16 -117 -24 -136 -8
-19 -18 -71 -22 -115 -3 -44 -13 -104 -21 -134 -9 -29 -22 -103 -30 -163 -8
-60 -18 -117 -23 -126 -5 -9 -14 -60 -21 -112 -6 -52 -17 -117 -25 -145 -7
-27 -18 -90 -25 -140 -6 -49 -17 -110 -25 -135 -7 -25 -18 -88 -24 -140 -7
-52 -18 -115 -26 -140 -8 -25 -19 -88 -24 -140 -5 -53 -16 -111 -25 -130 -8
-19 -19 -80 -25 -135 -6 -56 -17 -120 -26 -144 -8 -24 -19 -88 -24 -143 -5
-55 -16 -109 -24 -121 -8 -13 -19 -71 -25 -132 -6 -61 -18 -130 -27 -155 -9
-25 -21 -89 -25 -144 -6 -57 -16 -108 -24 -122 -9 -13 -20 -67 -26 -131 -5
-59 -19 -135 -29 -168 -11 -33 -22 -95 -25 -138 -3 -42 -13 -93 -21 -114 -8
-20 -20 -79 -26 -132 -5 -53 -15 -114 -21 -136 -6 -22 -19 -92 -29 -155 -10
-63 -30 -171 -44 -240 -14 -69 -32 -163 -40 -208 -15 -88 -44 -230 -75 -372
-11 -47 -22 -110 -26 -140 -3 -30 -14 -89 -24 -130 -10 -41 -23 -107 -29 -146
-6 -39 -17 -89 -25 -111 -8 -23 -17 -63 -21 -90 -6 -50 -43 -215 -76 -343 -10
-41 -26 -110 -34 -152 -7 -43 -18 -85 -23 -95 -5 -10 -15 -43 -21 -73 -19 -83
-112 -395 -142 -475 -11 -27 -25 -72 -33 -100 -13 -44 -30 -94 -90 -252 -43
-116 -203 -400 -294 -523 -154 -208 -186 -245 -381 -440 -150 -149 -293 -275
-416 -366 -95 -70 -286 -198 -335 -225 -19 -11 -55 -33 -80 -49 -97 -62 -317
-172 -465 -233 -78 -32 -325 -116 -390 -132 -27 -7 -111 -29 -185 -48 -74 -20
-166 -41 -205 -47 -38 -6 -97 -17 -130 -25 -33 -7 -127 -19 -210 -25 -82 -6
-172 -15 -198 -21 -63 -12 -325 -12 -396 1 -31 5 -108 14 -172 19 -218 18
-477 92 -679 195 -111 56 -155 82 -274 162 -109 74 -203 267 -258 529 -14 70
-6 530 11 570 7 17 19 72 27 123 7 50 20 104 27 120 8 15 17 51 21 81 4 30 14
70 23 90 8 20 21 62 29 94 8 32 20 68 28 80 8 12 17 42 21 67 4 25 15 59 25
75 10 17 21 50 25 75 4 25 15 59 26 75 10 17 23 53 29 80 6 27 17 56 24 65 8
8 19 32 26 53 14 44 14 44 175 52 66 4 167 10 225 15 58 4 186 13 285 19 278
17 442 31 493 41 26 5 109 14 185 20 76 6 168 17 205 25 37 7 114 19 172 25
58 6 133 18 168 26 35 8 100 19 145 25 45 5 102 16 127 24 25 8 77 19 115 25
39 6 106 20 150 31 178 46 273 71 330 89 33 10 107 33 165 51 58 17 133 42
167 55 34 13 70 24 80 24 10 0 41 12 68 25 28 14 59 25 70 25 11 0 43 12 70
25 28 14 56 25 64 25 8 0 39 12 70 26 31 14 79 37 106 49 28 13 80 37 116 54
36 17 68 31 72 31 9 0 265 144 345 194 235 145 427 302 577 472 28 31 59 66
70 78 11 12 28 33 37 46 10 14 32 45 49 70 18 25 54 82 80 126 43 72 65 119
139 294 10 25 22 61 26 80 3 19 14 49 23 65 13 25 17 75 19 313 3 261 2 289
-17 350 -11 37 -25 98 -31 136 -6 38 -16 78 -21 88 -6 11 -16 41 -24 66 -16
58 -51 146 -105 262 -6 14 -24 48 -40 75 -16 28 -38 68 -48 90 -11 22 -27 46
-36 54 -9 7 -16 19 -16 26 0 7 -13 26 -30 43 -16 18 -30 36 -30 41 0 6 -10 21
-22 35 -13 14 -33 38 -46 53 -12 15 -51 60 -86 98 -35 39 -77 86 -93 105 -15
20 -48 54 -73 75 -25 22 -76 68 -115 103 -38 35 -114 94 -168 130 -103 71
-103 70 -182 117 -27 16 -60 37 -73 46 -13 10 -36 20 -52 24 -16 3 -34 13 -40
20 -6 8 -28 19 -48 26 -20 6 -49 20 -63 30 -14 10 -38 21 -55 25 -16 3 -45 15
-64 25 -19 10 -55 26 -80 34 -25 9 -88 31 -140 50 -132 46 -344 102 -475 125
-60 11 -117 22 -125 26 -35 14 -441 57 -625 66 -201 10 -492 0 -650 -22 -38
-5 -126 -14 -195 -20 -69 -5 -172 -19 -230 -29 -58 -11 -181 -34 -275 -52
-169 -31 -483 -107 -560 -134 -22 -8 -67 -19 -100 -26 -32 -6 -68 -17 -80 -25
-11 -7 -40 -16 -65 -20 -25 -3 -58 -15 -75 -24 -16 -10 -48 -22 -70 -26 -22
-4 -60 -18 -84 -31 -24 -12 -53 -23 -65 -23 -12 0 -43 -11 -70 -25 -27 -14
-59 -25 -71 -25 -12 0 -33 -8 -46 -19 -13 -10 -35 -21 -49 -25 -27 -8 -132
-52 -215 -91 -27 -13 -92 -43 -144 -67 -52 -24 -127 -60 -165 -80 -39 -21 -93
-49 -121 -62 -27 -14 -86 -45 -130 -70 -44 -25 -101 -56 -126 -70 -25 -13 -51
-32 -58 -40 -8 -9 -19 -16 -26 -16 -8 0 -27 -11 -43 -25 -17 -14 -34 -25 -40
-25 -5 0 -15 -7 -23 -16 -7 -8 -29 -24 -48 -35 -20 -11 -56 -35 -81 -54 -25
-19 -58 -42 -75 -51 -41 -23 -301 -228 -399 -315 -12 -10 -48 -42 -81 -71 -60
-53 -304 -295 -348 -346 -216 -249 -329 -401 -492 -662 -82 -130 -209 -388
-264 -537 -17 -45 -31 -88 -31 -95 0 -7 -7 -26 -16 -43 -8 -16 -21 -59 -29
-95 -8 -36 -20 -83 -28 -105 -8 -22 -18 -65 -22 -95 -4 -30 -16 -91 -27 -135
-17 -69 -20 -125 -25 -400 -2 -176 0 -367 5 -425 10 -118 46 -327 69 -410 9
-30 22 -80 29 -110 17 -74 78 -256 124 -370 43 -104 92 -216 101 -230 5 -8 14
-26 21 -40 62 -129 205 -367 307 -510 194 -271 382 -478 662 -730 82 -74 232
-191 319 -251 36 -24 69 -50 73 -56 4 -7 12 -13 17 -13 6 0 42 -21 82 -47 40
-26 87 -54 103 -64 17 -9 50 -28 75 -42 25 -15 68 -37 96 -51 28 -13 54 -28
58 -34 3 -6 19 -13 35 -17 16 -3 43 -17 62 -31 18 -13 43 -24 55 -24 12 0 36
-11 52 -25 17 -14 42 -25 60 -25 16 0 41 -9 55 -20 14 -11 46 -24 70 -29 25
-4 57 -18 72 -30 15 -11 42 -21 60 -21 18 0 52 -11 76 -23 24 -13 64 -26 89
-30 25 -3 59 -13 75 -21 17 -9 46 -18 65 -22 19 -3 71 -16 115 -29 120 -35
210 -56 308 -71 49 -8 98 -19 109 -25 11 -6 71 -15 132 -20 61 -6 149 -19 196
-31 79 -19 113 -21 510 -21 367 0 434 2 490 17 35 9 120 23 187 31 68 8 131
19 141 24 10 5 56 16 103 25 46 8 100 21 119 29 19 8 57 18 85 22 27 4 62 13
77 21 15 8 49 19 77 25 27 6 66 19 87 30 21 10 47 19 59 19 11 0 43 11 70 25
28 13 59 25 70 25 11 0 38 12 60 25 22 14 49 25 61 25 11 0 35 11 54 25 19 14
43 25 55 25 12 0 36 11 55 25 19 14 41 25 50 25 9 0 31 11 49 24 19 14 46 28
62 31 15 4 33 13 39 20 6 8 28 19 48 26 20 6 44 17 52 24 8 7 32 21 52 31 59
30 216 120 313 180 83 51 108 67 189 120 36 24 83 53 126 79 18 11 45 30 60
43 15 12 32 22 37 22 5 0 20 11 33 25 13 14 28 25 33 25 5 0 22 10 38 23 72
55 110 84 144 107 83 58 353 264 513 392 145 115 144 114 183 147 20 17 40 31
44 31 4 0 19 8 33 19 15 10 40 21 57 24 24 4 35 -1 61 -29 18 -18 38 -51 44
-71 28 -88 88 -239 136 -338 13 -27 29 -61 34 -75 6 -14 23 -47 40 -75 16 -27
43 -75 60 -105 68 -122 251 -358 328 -424 20 -17 53 -46 72 -65 35 -33 83 -68
147 -107 20 -12 38 -26 42 -30 3 -5 23 -18 45 -29 74 -39 112 -60 136 -77 14
-10 34 -18 46 -18 13 0 36 -11 52 -25 21 -17 42 -25 70 -25 25 0 52 -9 74 -23
22 -16 56 -26 96 -30 35 -4 77 -14 95 -24 20 -10 72 -19 137 -24 58 -5 131
-15 163 -24 81 -21 508 -22 599 0 36 8 125 19 199 23 99 7 142 14 161 26 15
10 53 20 85 23 32 3 74 14 93 25 19 11 59 24 89 29 30 5 57 12 60 17 9 14 48
32 68 32 10 0 35 11 55 25 20 14 43 25 51 25 7 0 28 11 46 24 19 14 46 28 62
31 16 4 29 11 29 16 0 5 18 18 39 29 103 52 251 169 391 310 127 127 218 237
281 341 12 21 32 42 44 49 30 16 81 4 100 -23 9 -12 32 -47 52 -77 44 -65 35
-54 127 -165 155 -188 414 -402 582 -480 17 -7 36 -21 43 -29 7 -8 27 -18 44
-21 18 -4 41 -15 52 -25 11 -10 39 -23 62 -29 23 -7 49 -18 57 -26 8 -9 30
-18 48 -21 18 -4 52 -17 75 -30 23 -13 54 -24 70 -24 15 0 51 -11 78 -23 28
-13 71 -27 98 -30 26 -4 61 -13 77 -22 16 -8 60 -19 97 -25 38 -5 85 -16 104
-24 20 -8 80 -19 134 -25 53 -5 127 -17 164 -25 36 -9 113 -22 171 -30 58 -8
123 -19 145 -24 22 -6 98 -15 169 -22 71 -6 138 -16 149 -22 11 -6 90 -14 176
-19 85 -5 198 -17 251 -26 80 -15 186 -18 665 -21 558 -3 626 -1 745 29 19 5
82 11 140 15 58 3 133 14 167 24 34 11 90 22 125 25 34 4 90 15 123 26 33 10
87 25 120 33 128 31 213 56 241 71 16 8 36 15 44 15 8 0 39 11 68 25 30 14 63
25 74 25 10 0 36 11 56 25 20 14 45 25 54 25 16 0 61 20 148 66 14 8 40 21 59
29 18 9 42 24 53 35 11 10 31 21 44 24 14 4 32 13 42 22 9 8 65 47 123 85 94
62 226 178 284 249 140 175 214 323 271 545 27 105 28 122 30 358 2 225 4 251
21 269 25 28 63 46 141 68 37 10 109 30 160 44 51 14 101 30 112 36 10 5 28
10 40 10 11 0 48 9 81 20 64 22 205 50 252 50 18 0 39 -10 57 -28 27 -28 28
-29 35 -198 4 -93 14 -198 22 -234 8 -36 19 -103 25 -150 5 -47 18 -109 29
-137 10 -29 21 -77 25 -105 4 -29 18 -75 31 -103 12 -27 23 -61 23 -75 0 -14
9 -42 20 -62 11 -21 25 -59 30 -84 6 -26 20 -58 30 -72 11 -13 20 -30 20 -37
0 -7 18 -45 40 -86 21 -41 47 -90 57 -109 10 -19 28 -48 40 -63 13 -16 23 -33
23 -38 0 -33 281 -339 360 -392 103 -70 141 -93 214 -132 45 -25 88 -45 94
-45 6 0 36 -11 66 -25 30 -14 63 -25 73 -25 10 0 50 -12 88 -26 65 -23 86 -25
310 -30 266 -6 559 7 595 26 13 7 64 19 113 26 49 7 95 18 101 23 7 6 45 17
84 26 40 8 82 21 95 29 12 7 35 17 52 21 49 11 235 100 305 145 25 16 59 37
75 46 17 9 38 24 47 33 9 9 36 30 58 46 54 39 218 203 250 250 14 20 37 52 53
70 15 18 27 37 27 43 0 6 11 23 23 39 13 15 27 42 31 58 4 17 15 38 23 48 9 9
21 27 27 39 13 25 36 33 71 24 27 -7 20 0 155 -150 141 -157 286 -298 504
-489 12 -10 30 -26 41 -35 58 -51 247 -151 324 -172 24 -6 54 -18 65 -25 12
-7 48 -16 81 -20 33 -4 76 -14 95 -23 52 -24 516 -30 580 -8 25 9 83 21 130
27 47 6 108 19 135 29 28 10 73 23 100 29 28 5 64 17 80 25 17 9 36 16 43 16
15 0 148 55 172 71 8 5 29 16 45 24 17 9 50 28 75 43 25 15 60 36 79 47 18 11
44 29 57 40 12 11 39 34 60 50 69 56 214 211 263 281 117 166 179 328 188 490
3 64 2 104 -5 108 -5 3 -25 -15 -43 -40 -128 -174 -243 -290 -327 -331 -43
-21 -72 -28 -118 -28 -75 0 -104 20 -104 72 0 39 28 232 35 244 3 4 12 61 21
126 8 65 21 143 29 173 8 30 18 98 24 150 6 52 20 138 31 190 11 52 20 109 20
125 0 17 11 91 24 165 14 74 32 180 41 235 29 188 36 230 61 365 13 74 24 147
24 162 0 15 11 87 24 160 32 174 63 360 81 478 8 52 26 164 40 248 52 315 76
461 95 587 11 72 24 146 30 165 5 19 17 105 25 190 9 85 20 167 24 182 8 21 6
28 -7 33 -9 4 -222 12 -472 17 -250 5 -599 14 -775 19 -176 5 -584 12 -906 14
l-586 5 -7 -66 c-4 -37 -15 -83 -25 -103 -10 -20 -21 -67 -24 -105 -9 -98 -58
-177 -99 -161 -7 3 -36 40 -64 83 -67 100 -187 238 -225 257 -16 9 -29 20 -29
25 0 6 -11 16 -25 22 -13 6 -27 19 -30 29 -3 9 -18 20 -32 24 -15 3 -40 17
-56 31 -16 13 -36 24 -46 24 -9 0 -32 11 -51 25 -19 14 -45 25 -58 25 -13 0
-36 9 -51 19 -15 11 -45 22 -66 26 -22 4 -60 15 -85 25 -25 10 -72 21 -105 25
-33 4 -94 15 -137 26 -110 27 -427 27 -543 0 -44 -10 -116 -22 -159 -26 -43
-4 -97 -15 -120 -25 -23 -9 -63 -20 -91 -24 -27 -4 -63 -16 -80 -26 -16 -9
-49 -20 -72 -24 -23 -3 -57 -15 -75 -25 -18 -11 -49 -22 -68 -26 -19 -4 -42
-13 -50 -21 -9 -7 -36 -20 -60 -29 -24 -9 -51 -22 -60 -29 -8 -7 -30 -18 -48
-24 -18 -6 -45 -20 -59 -32 -14 -11 -30 -20 -35 -20 -4 0 -27 -12 -51 -27 -23
-14 -58 -36 -77 -48 -359 -223 -536 -392 -768 -737 -88 -131 -141 -213 -186
-288 -22 -36 -49 -77 -60 -91 -12 -15 -41 -54 -65 -88 -38 -54 -46 -60 -70
-55 -14 4 -33 14 -42 23 -16 17 -51 106 -68 176 -33 142 -184 411 -314 563
-163 192 -451 434 -672 567 -18 12 -42 28 -53 38 -10 9 -23 17 -29 17 -6 0
-27 14 -48 30 -21 17 -44 30 -51 30 -7 0 -19 8 -26 18 -7 9 -29 25 -48 35 -67
35 -101 55 -118 70 -9 8 -30 21 -47 29 -37 18 -306 176 -360 211 -22 15 -53
36 -70 47 -16 12 -55 36 -85 55 -30 18 -63 41 -73 49 -10 9 -29 22 -42 28 -14
6 -25 15 -25 19 0 5 -17 18 -37 29 -53 29 -106 69 -116 86 -4 8 -14 14 -22 14
-7 0 -26 10 -42 23 -29 23 -38 28 -113 74 -25 15 -49 33 -53 40 -4 7 -13 13
-19 13 -6 0 -20 8 -30 17 -11 10 -34 26 -53 38 -43 26 -219 147 -270 185 -22
17 -51 38 -65 47 -26 18 -131 104 -165 136 -11 10 -44 36 -73 57 -30 22 -72
57 -95 79 -23 21 -57 51 -75 67 -75 64 -233 233 -294 313 -15 20 -34 45 -43
56 -107 138 -163 245 -171 328 -3 28 -12 76 -21 105 -13 47 -13 58 0 100 8 26
18 72 22 102 5 45 18 73 69 150 87 132 131 176 266 266 30 20 67 45 82 55 15
11 31 19 35 19 4 0 35 14 68 30 33 17 67 30 75 30 9 0 41 9 73 20 72 25 253
44 422 44 177 -1 431 -21 480 -39 22 -8 71 -19 109 -25 37 -6 86 -20 107 -30
21 -11 47 -20 57 -20 11 0 40 -11 66 -25 26 -14 53 -25 61 -25 7 0 27 -11 43
-25 17 -14 36 -25 43 -25 34 -1 171 -132 226 -217 l38 -58 0 -205 c0 -189 -2
-210 -22 -263 -13 -32 -23 -66 -23 -75 0 -10 -9 -35 -19 -56 -11 -21 -23 -52
-27 -69 -3 -18 -17 -52 -30 -77 -13 -25 -24 -52 -24 -61 0 -9 -11 -37 -25 -63
-14 -26 -25 -57 -25 -70 0 -13 -9 -35 -21 -50 -11 -14 -24 -52 -29 -84 -5 -31
-14 -82 -20 -112 -8 -42 -7 -79 4 -160 8 -58 17 -124 19 -148 3 -24 12 -51 20
-60 9 -9 21 -38 27 -64 7 -27 16 -48 19 -48 4 0 18 -19 31 -42 13 -24 33 -56
44 -72 28 -38 125 -137 156 -158 14 -10 45 -32 70 -49 76 -54 248 -134 380
-177 113 -37 197 -55 390 -84 80 -12 402 -4 450 11 19 6 73 16 120 21 171 22
504 141 634 228 67 44 147 120 175 166 12 20 26 36 31 36 5 0 12 10 16 23 3
12 12 29 19 37 20 23 85 148 85 164 0 7 11 33 23 57 13 24 27 61 31 81 4 20
17 59 29 85 21 45 22 61 21 278 0 227 0 231 -27 292 -15 34 -27 71 -27 81 0
10 -11 33 -25 52 -14 19 -25 41 -25 50 0 9 -11 31 -25 50 -14 19 -25 40 -25
46 0 7 -11 25 -25 40 -14 15 -25 30 -25 34 0 4 -14 22 -30 41 -17 19 -40 46
-53 61 -34 42 -177 182 -224 220 -71 56 -193 138 -207 138 -5 0 -17 7 -26 15
-62 56 -569 291 -780 362 -25 8 -67 23 -95 33 -72 26 -203 68 -250 79 -22 5
-103 26 -180 46 -261 67 -608 130 -910 165 -392 45 -747 63 -1170 57 -365 -5
-616 -22 -988 -67 -336 -40 -834 -170 -1092 -285 -212 -94 -349 -168 -508
-274 -55 -36 -107 -71 -117 -77 -51 -29 -209 -175 -274 -254 -112 -134 -177
-253 -234 -426 -47 -141 -76 -426 -53 -517 5 -24 13 -86 17 -139 8 -109 7
-109 -75 -123 -24 -4 -59 -14 -78 -21 -18 -8 -79 -19 -133 -24 -55 -5 -113
-16 -130 -25 -16 -8 -52 -20 -81 -26 -28 -6 -66 -19 -83 -29 -17 -10 -41 -21
-54 -25 -94 -28 -314 -229 -372 -338 -9 -18 -21 -41 -27 -52 -32 -61 -63 -139
-63 -160 0 -13 -9 -61 -20 -107 -25 -104 -25 -151 0 -268 11 -51 20 -113 20
-137 0 -24 11 -70 25 -103 14 -33 25 -68 25 -78 0 -11 11 -39 24 -64 13 -25
27 -59 30 -76 4 -17 14 -36 21 -42 8 -6 19 -28 26 -48 7 -20 16 -39 20 -42 5
-3 19 -24 31 -47 23 -41 112 -174 136 -203 112 -136 153 -182 247 -276 100
-100 191 -185 256 -239 13 -11 51 -42 84 -70 33 -28 71 -58 85 -68 14 -10 41
-30 61 -45 115 -86 357 -256 504 -355 61 -40 143 -96 184 -123 122 -82 178
-118 213 -139 92 -55 240 -133 388 -206 91 -45 216 -107 277 -138 62 -31 130
-64 150 -74 21 -10 45 -22 53 -27 8 -6 35 -19 60 -31 24 -11 47 -24 50 -28 3
-5 25 -18 50 -30 67 -33 109 -57 129 -75 10 -9 22 -16 28 -16 6 0 26 -12 46
-27 20 -16 58 -41 84 -58 124 -76 285 -220 397 -355 66 -80 126 -167 126 -184
0 -5 8 -19 19 -30 20 -23 81 -156 81 -178 0 -7 7 -23 15 -36 9 -12 22 -54 30
-94 8 -40 21 -102 31 -138 34 -132 6 -321 -70 -480 -53 -112 -177 -224 -314
-287 -42 -19 -91 -41 -109 -49 -17 -8 -36 -14 -42 -14 -6 0 -43 -11 -83 -24
-40 -13 -104 -26 -143 -30 -38 -4 -95 -14 -125 -23 -78 -23 -458 -22 -512 0
-20 8 -79 18 -130 22 -84 6 -164 22 -368 72 -85 21 -266 80 -301 99 -65 33
-74 91 -35 219 14 44 36 118 50 165 13 47 32 108 41 135 9 28 23 78 31 113 7
34 20 75 28 90 7 15 17 50 20 77 4 28 16 77 26 110 20 63 45 283 44 395 0 112
-24 303 -44 345 -10 22 -24 56 -31 75 -17 48 -159 193 -239 245 -195 127 -416
198 -715 229 -320 34 -382 38 -483 33 -150 -7 -271 -51 -421 -154 -171 -118
-314 -305 -481 -632 -25 -49 -50 -94 -56 -102 -7 -8 -15 -28 -19 -46 -3 -18
-14 -42 -24 -55 -10 -13 -23 -40 -30 -60 -7 -20 -18 -42 -26 -48 -7 -6 -17
-24 -20 -40 -4 -16 -14 -39 -24 -52 -10 -13 -22 -34 -26 -48 -4 -14 -17 -41
-29 -60 -12 -19 -40 -62 -61 -95 -61 -96 -142 -191 -209 -243 -203 -159 -354
-145 -306 28 5 19 16 80 24 135 8 55 22 134 30 175 8 41 31 170 51 285 19 116
49 289 65 385 17 96 42 243 56 325 14 83 34 195 45 250 10 55 26 147 34 204 8
57 17 107 20 111 2 4 14 65 25 136 11 71 27 161 35 199 7 39 21 115 31 170 16
99 39 226 89 505 14 80 35 196 45 258 11 63 29 164 40 225 12 62 32 175 46
252 14 77 36 201 49 275 14 74 32 178 40 230 9 52 26 149 40 215 13 66 26 147
30 180 3 33 12 80 19 105 8 25 22 99 30 165 9 66 23 142 31 169 8 27 15 66 15
87 0 21 9 78 21 126 11 48 26 135 34 194 8 58 19 117 24 133 6 15 15 66 21
114 5 48 19 123 30 166 11 44 20 92 20 108 0 15 11 85 24 155 23 123 49 269
102 568 14 77 34 187 44 245 11 58 25 139 31 180 6 41 17 100 24 130 7 30 16
82 20 115 4 33 13 83 20 110 8 28 21 101 29 163 9 63 20 122 26 132 5 10 14
60 20 111 6 52 19 130 30 174 10 44 24 121 29 172 5 51 15 102 21 113 6 11 17
73 25 138 8 64 21 136 29 160 8 23 18 77 22 120 3 42 14 109 25 147 10 39 21
102 25 140 3 39 14 104 25 145 10 41 23 116 29 166 5 50 16 112 24 138 8 27
18 78 21 114 4 37 15 101 25 142 10 41 22 104 25 140 4 36 13 90 21 120 7 30
20 100 28 156 9 55 22 130 30 165 8 35 17 91 21 124 3 33 13 83 20 110 8 28
19 91 26 140 6 50 19 123 30 164 10 41 19 90 19 109 0 18 11 81 24 140 13 59
27 140 31 180 3 40 13 91 20 113 14 38 13 40 -8 49 -13 6 -335 15 -782 21
-418 6 -866 15 -995 20 -284 10 -1240 24 -2365 33 -690 6 -834 5 -855 -6z
m-3080 -5043 c46 -14 91 -25 99 -25 33 1 138 -64 162 -99 33 -51 69 -137 84
-202 7 -31 19 -74 26 -95 21 -60 19 -449 -3 -579 -9 -55 -20 -133 -23 -174 -4
-40 -15 -101 -25 -135 -10 -33 -21 -89 -24 -123 -3 -34 -14 -88 -25 -120 -11
-32 -22 -85 -26 -118 -4 -32 -15 -80 -25 -105 -9 -25 -21 -72 -25 -105 -4 -33
-15 -76 -25 -95 -10 -19 -21 -62 -25 -95 -4 -33 -16 -76 -26 -96 -10 -20 -21
-60 -25 -90 -4 -30 -17 -77 -30 -105 -13 -28 -24 -68 -24 -90 0 -21 -9 -53
-20 -71 -10 -18 -22 -56 -26 -85 -4 -29 -18 -75 -31 -103 -12 -27 -23 -63 -23
-80 0 -16 -9 -49 -19 -71 -10 -23 -22 -57 -26 -75 -3 -19 -17 -65 -29 -104
-30 -89 -66 -206 -101 -320 -15 -49 -35 -112 -45 -140 -10 -27 -22 -68 -28
-90 -6 -22 -17 -60 -26 -85 -8 -25 -20 -64 -26 -87 -8 -34 -22 -52 -68 -88
-31 -25 -64 -51 -72 -58 -30 -26 -160 -96 -270 -145 -124 -56 -357 -117 -500
-133 -118 -13 -491 -23 -524 -15 -39 10 -51 69 -37 178 6 48 16 100 21 114 6
14 17 71 25 126 9 55 18 104 21 109 4 8 42 187 70 339 8 41 19 91 26 110 6 19
19 71 28 115 17 78 36 157 67 280 8 33 21 92 29 130 8 39 23 96 34 128 11 31
20 68 20 82 0 13 11 54 25 91 14 36 25 79 25 95 0 16 11 64 24 107 23 73 45
148 68 237 5 22 21 76 34 120 31 108 62 215 124 430 29 99 69 232 90 295 20
63 53 169 74 235 40 126 83 243 96 260 4 6 17 37 28 70 73 211 121 309 188
383 77 86 167 137 264 151 41 6 98 17 125 25 83 24 227 20 325 -9z m8802
-1542 c29 -14 107 -56 173 -93 66 -37 134 -74 150 -82 81 -42 109 -58 124 -71
9 -8 27 -18 41 -22 14 -4 33 -15 44 -24 18 -16 63 -41 141 -79 22 -11 46 -27
54 -36 7 -9 18 -16 23 -16 16 0 409 -238 597 -362 57 -38 115 -75 130 -84 14
-8 46 -30 71 -49 25 -19 59 -41 75 -50 17 -8 46 -26 65 -40 19 -14 64 -45 100
-70 243 -170 470 -332 497 -354 18 -14 49 -39 70 -54 21 -16 76 -57 123 -93
47 -36 96 -72 110 -82 14 -9 70 -54 125 -100 55 -46 109 -90 120 -98 11 -8 72
-56 135 -107 107 -85 144 -116 284 -235 90 -77 190 -166 217 -194 15 -16 32
-28 37 -28 6 0 17 -8 24 -18 7 -9 60 -58 118 -108 58 -50 186 -170 285 -265
99 -96 188 -181 198 -189 37 -31 284 -278 316 -316 18 -21 82 -88 141 -149
107 -109 190 -210 190 -230 0 -6 9 -16 20 -23 11 -7 20 -17 20 -23 0 -6 9 -23
19 -38 36 -50 6 -101 -61 -101 -48 0 -117 51 -265 195 -347 338 -763 728 -908
850 -32 28 -84 73 -115 100 -147 131 -213 188 -305 265 -55 45 -109 91 -120
101 -53 49 -166 139 -173 139 -6 0 -87 71 -137 120 -12 11 -24 20 -28 20 -6 0
-268 205 -402 315 -30 25 -79 62 -148 112 -21 15 -48 37 -60 48 -12 11 -29 25
-38 30 -31 19 -75 50 -175 125 -200 148 -278 205 -289 209 -5 2 -24 16 -42 30
-17 14 -48 37 -68 51 -19 14 -52 37 -72 53 -20 15 -40 27 -46 27 -5 0 -19 9
-31 21 -34 33 -98 79 -111 79 -6 0 -22 11 -35 25 -13 14 -28 25 -33 25 -5 0
-22 10 -37 23 -35 27 -53 39 -265 179 -93 62 -171 116 -173 120 -2 5 -9 8 -16
8 -7 0 -29 12 -49 28 -20 15 -59 41 -87 57 -29 17 -64 39 -78 50 -15 12 -38
26 -52 33 -14 7 -45 28 -70 47 -25 19 -56 39 -70 45 -14 5 -32 15 -40 20 -8 6
-41 27 -74 48 -32 20 -88 56 -124 80 -36 24 -82 52 -102 62 -19 10 -45 29 -58
43 -28 29 -40 91 -22 112 19 23 82 18 142 -12z m9435 -1424 c44 -21 87 -55
152 -121 50 -50 91 -97 91 -104 0 -6 6 -14 13 -17 30 -11 84 -143 119 -286 15
-63 5 -317 -14 -361 -9 -19 -18 -71 -21 -116 -3 -45 -15 -105 -26 -135 -11
-30 -23 -92 -26 -139 -4 -47 -15 -112 -25 -145 -11 -36 -20 -108 -23 -181 -4
-93 -9 -130 -25 -160 -11 -23 -22 -72 -27 -119 -4 -44 -15 -100 -26 -124 -11
-25 -22 -80 -25 -130 -4 -51 -14 -104 -26 -131 -11 -25 -23 -83 -27 -130 -4
-47 -15 -100 -25 -118 -10 -19 -21 -71 -26 -117 -5 -46 -16 -97 -25 -114 -8
-17 -20 -61 -25 -99 -5 -37 -18 -93 -29 -124 -12 -32 -21 -64 -21 -72 0 -9
-25 -91 -56 -183 -70 -207 -126 -334 -236 -531 -50 -91 -60 -105 -108 -151
-68 -66 -138 -109 -213 -132 -66 -20 -71 -20 -135 -4 -77 19 -186 76 -207 108
-7 12 -26 76 -42 142 l-28 120 1 555 c1 463 4 577 18 685 10 72 22 211 27 310
5 99 18 230 28 290 11 61 22 148 26 193 4 46 13 105 21 130 7 26 18 83 24 127
5 45 19 106 30 138 11 31 20 73 20 94 0 21 9 58 20 82 11 24 23 62 26 85 4 22
17 67 30 98 13 32 24 67 24 78 0 12 11 42 25 68 14 26 25 56 25 67 0 11 11 38
25 60 13 22 25 49 25 61 0 11 11 35 24 53 14 19 28 46 31 62 4 15 13 33 20 39
8 6 19 28 26 47 6 20 22 51 35 71 13 19 24 40 24 47 0 6 9 20 20 30 11 10 20
23 20 30 0 21 111 124 169 157 114 66 216 71 328 17z"/>
<path d="M47158 12224 c-64 -60 -63 -114 4 -176 23 -21 47 -38 53 -38 7 0 29
13 49 29 21 16 42 31 48 33 13 5 23 91 12 111 -15 27 -86 77 -108 77 -11 0
-38 -16 -58 -36z"/>
<path d="M50152 12240 c-7 -11 -18 -20 -26 -20 -19 0 -26 -23 -26 -90 0 -57 1
-59 42 -89 51 -38 61 -38 102 -5 73 61 75 125 7 196 -32 34 -80 38 -99 8z"/>
<path d="M6367 12236 c-9 -7 -35 -16 -56 -20 -21 -3 -44 -13 -51 -21 -7 -9
-33 -20 -57 -26 -61 -16 -72 -41 -29 -62 25 -11 41 -31 60 -71 l26 -55 0 -806
0 -806 -30 -58 c-16 -32 -36 -61 -45 -64 -8 -4 -15 -11 -15 -17 0 -6 58 -10
165 -10 91 0 165 4 165 8 0 5 -11 19 -24 32 -53 48 -56 80 -56 507 0 318 3
399 14 421 20 40 23 77 6 97 -13 15 -16 92 -20 489 -4 408 -7 471 -20 473 -8
2 -23 -3 -33 -11z"/>
<path d="M33011 12224 c-40 -13 -81 -30 -90 -37 -9 -8 -31 -17 -49 -21 -19 -3
-44 -14 -57 -25 l-24 -18 38 -18 c31 -13 44 -29 67 -77 l29 -61 0 -259 c0
-245 -1 -260 -19 -274 -28 -20 -63 -17 -102 7 -19 11 -46 19 -60 17 -26 -3
-25 -4 19 -36 55 -39 100 -99 135 -179 25 -57 25 -64 29 -367 6 -362 2 -409
-35 -443 -26 -24 -24 -33 11 -46 10 -3 26 -72 27 -114 0 -33 15 -45 40 -31 8
4 35 15 60 24 157 55 165 59 165 78 0 14 -10 22 -32 28 -18 5 -41 21 -50 35
-17 25 -18 91 -23 934 l-5 906 -74 -23z"/>
<path d="M4315 12150 c-4 -6 -11 -48 -16 -93 -4 -45 -11 -95 -14 -112 -5 -26
-4 -27 4 -7 6 12 19 22 31 22 11 0 20 5 20 11 0 18 63 69 125 101 59 31 62 32
234 36 197 5 246 -3 261 -44 6 -15 10 -351 10 -852 0 -706 -2 -831 -15 -852
-8 -14 -20 -37 -28 -52 -7 -15 -25 -36 -40 -48 -15 -12 -25 -26 -22 -31 8 -12
405 -12 405 0 0 5 -13 20 -29 33 -39 34 -49 55 -66 147 -13 67 -15 198 -13
865 l3 785 23 23 c22 22 28 23 220 23 183 0 200 -2 237 -22 22 -11 54 -26 71
-33 17 -6 51 -31 75 -56 24 -24 47 -44 51 -44 9 0 11 134 2 179 l-6 31 -759 0
c-518 0 -760 -3 -764 -10z"/>
<path d="M9840 12153 c0 -4 16 -23 35 -43 60 -61 60 -66 60 -925 0 -872 1
-863 -66 -916 -21 -17 -39 -35 -39 -40 0 -5 257 -9 633 -9 719 0 656 -8 676
87 6 29 20 69 31 90 18 35 27 83 15 83 -3 0 -36 -31 -74 -69 -75 -75 -98 -91
-131 -91 -11 0 -23 -7 -26 -15 -11 -29 -79 -35 -402 -35 l-323 0 -41 40 c-55
52 -56 65 -57 501 -1 292 2 359 13 375 14 18 29 19 331 19 316 0 317 0 335
-22 10 -13 23 -23 28 -23 18 0 63 -43 74 -69 10 -24 11 -25 18 -6 5 11 9 79 9
150 0 72 -4 139 -9 150 -7 19 -9 18 -19 -7 -15 -39 -69 -86 -114 -98 -23 -7
-148 -10 -338 -8 -284 3 -301 4 -315 22 -11 16 -14 85 -14 385 0 201 3 376 6
387 11 41 38 44 405 44 293 0 355 -2 382 -15 80 -38 136 -81 143 -111 5 -20 9
-22 20 -13 15 12 20 122 8 167 l-6 22 -624 0 c-343 0 -624 -3 -624 -7z"/>
<path d="M22050 12153 c1 -5 19 -21 40 -38 47 -36 66 -88 75 -210 3 -44 7
-357 10 -695 3 -469 0 -643 -10 -735 -16 -143 -25 -171 -71 -208 -19 -16 -34
-33 -34 -38 0 -6 249 -8 643 -7 l642 3 14 45 c7 25 21 68 31 95 23 64 32 105
24 105 -4 0 -31 -21 -60 -47 -82 -75 -111 -94 -151 -100 -21 -3 -56 -15 -78
-27 -38 -20 -54 -21 -331 -21 l-292 0 -43 31 c-24 17 -54 46 -67 64 l-22 33 2
810 c3 752 4 809 20 821 10 7 21 22 25 34 5 11 23 31 42 44 68 46 60 48 -183
48 -124 0 -226 -3 -226 -7z"/>
<path d="M28500 12144 c-19 -8 -57 -20 -85 -25 -98 -18 -237 -136 -299 -254
-24 -46 -26 -59 -26 -178 0 -124 1 -129 32 -185 39 -70 77 -115 137 -165 25
-21 58 -49 74 -62 15 -14 32 -25 38 -25 6 0 24 -11 41 -25 16 -14 36 -25 43
-25 8 0 20 -8 27 -19 7 -10 28 -22 46 -26 19 -4 43 -18 55 -31 11 -13 31 -24
43 -24 12 0 36 -11 52 -25 17 -14 36 -25 43 -25 7 0 29 -10 48 -23 52 -33 72
-44 115 -68 51 -27 129 -90 162 -128 14 -17 39 -56 55 -87 29 -53 31 -63 27
-145 -2 -74 -6 -91 -25 -111 -13 -14 -23 -32 -23 -41 0 -23 -97 -103 -174
-143 l-67 -34 -155 0 c-145 0 -157 1 -192 23 -20 13 -52 27 -70 30 -19 4 -47
18 -64 32 -16 14 -35 25 -42 25 -7 0 -41 28 -76 62 -45 45 -73 84 -100 141
l-37 79 -6 -47 c-9 -59 -9 -288 -1 -308 4 -13 11 -13 36 -5 43 15 206 5 245
-15 17 -9 64 -21 105 -27 40 -6 93 -18 117 -26 57 -18 198 -18 242 0 19 8 54
17 79 21 51 7 171 61 183 82 4 7 13 13 19 13 13 0 88 74 88 88 0 5 7 15 15 22
9 7 31 47 50 88 32 69 35 82 35 171 0 83 -3 102 -25 143 -14 26 -25 54 -25 62
0 14 -17 38 -72 99 -16 16 -28 34 -28 38 0 5 -11 11 -25 15 -13 3 -27 14 -30
24 -3 10 -18 21 -32 25 -15 3 -40 17 -56 31 -16 13 -34 24 -41 24 -7 0 -20 8
-30 18 -9 11 -34 24 -56 31 -21 6 -42 16 -45 21 -3 5 -25 19 -48 30 -68 34
-101 50 -117 61 -8 5 -37 20 -65 34 -27 13 -59 30 -70 37 -107 66 -131 83
-138 94 -4 8 -13 14 -20 14 -11 0 -34 19 -89 77 -32 33 -78 133 -78 168 0 32
46 164 63 183 62 66 106 101 137 108 14 3 32 9 40 15 43 26 74 33 165 33 85 1
106 -2 143 -21 23 -13 53 -23 66 -23 13 0 39 -11 59 -24 19 -13 44 -27 54 -30
22 -7 120 -102 136 -132 6 -11 16 -23 24 -27 7 -4 18 -28 24 -52 11 -44 22
-55 34 -35 12 19 6 303 -6 311 -6 4 -28 2 -48 -3 -46 -13 -135 -3 -186 22 -22
10 -69 24 -105 30 -36 7 -80 18 -99 26 -45 19 -176 18 -221 -2z"/>
<path d="M38382 12129 c-46 -45 -57 -92 -44 -176 6 -37 16 -102 22 -143 7 -41
20 -113 31 -159 11 -46 23 -120 26 -165 l7 -81 16 65 c9 36 24 86 33 110 8 25
18 79 21 120 3 41 14 102 26 134 15 44 20 85 20 160 l0 102 -42 32 c-52 40
-76 40 -116 1z"/>
<path d="M40520 12130 c0 -8 -11 -37 -24 -65 -61 -126 -86 -185 -86 -199 0 -8
-4 -17 -9 -21 -5 -3 -17 -27 -27 -53 -9 -26 -25 -65 -35 -87 -9 -22 -31 -71
-48 -110 -17 -38 -38 -83 -46 -98 -8 -16 -15 -34 -15 -40 0 -11 -46 -114 -85
-190 -14 -26 -25 -55 -25 -66 0 -10 -11 -35 -25 -55 -14 -20 -25 -44 -25 -53
0 -9 -11 -35 -24 -57 -13 -23 -26 -57 -30 -77 -3 -20 -15 -44 -25 -53 -11 -10
-22 -34 -26 -54 -4 -20 -15 -46 -25 -57 -10 -11 -21 -36 -25 -55 -4 -19 -16
-51 -26 -70 -10 -19 -30 -62 -44 -95 -84 -189 -134 -269 -197 -310 -21 -14
-38 -30 -38 -35 0 -6 60 -10 155 -10 92 0 155 4 155 10 0 5 -18 24 -41 42
l-41 33 4 80 c2 62 8 87 25 110 11 17 24 46 27 66 4 21 13 42 21 49 8 7 20 31
26 53 6 23 19 52 29 64 10 13 21 38 24 57 4 23 17 43 35 56 28 19 43 20 411
20 229 0 389 -4 400 -10 19 -10 63 -80 75 -120 8 -27 59 -143 76 -174 17 -30
51 -158 51 -192 0 -39 -24 -86 -56 -112 -14 -11 -22 -22 -19 -26 11 -10 463
-7 463 4 0 5 -12 17 -27 27 -44 30 -94 86 -110 123 -8 19 -23 44 -33 55 -9 11
-21 34 -24 50 -4 17 -14 38 -23 47 -8 9 -19 36 -24 59 -5 23 -19 53 -29 67
-11 13 -20 32 -20 40 0 15 -42 112 -80 184 -11 20 -20 43 -20 51 0 8 -11 34
-23 58 -13 24 -29 60 -36 80 -6 20 -20 53 -31 74 -11 22 -20 45 -20 53 0 8 -6
26 -14 40 -34 65 -126 276 -126 291 0 5 -11 31 -25 57 -14 26 -25 54 -25 63 0
9 -12 34 -25 56 -14 22 -25 49 -25 60 0 11 -12 38 -25 60 -14 22 -25 49 -25
61 0 11 -11 35 -25 54 -14 19 -25 41 -25 50 0 9 -16 47 -35 86 -19 38 -35 62
-35 54z m-24 -402 c7 -5 15 -25 19 -45 4 -20 15 -47 25 -60 10 -13 21 -40 25
-60 4 -20 15 -47 25 -60 10 -13 21 -40 25 -60 4 -20 15 -47 25 -60 10 -13 21
-40 25 -60 4 -20 15 -48 26 -61 10 -13 21 -40 25 -61 4 -20 13 -43 21 -53 8
-9 21 -37 28 -62 8 -26 21 -56 30 -68 21 -31 19 -75 -4 -88 -13 -6 -141 -10
-350 -10 -372 0 -369 -1 -356 69 6 34 43 121 86 202 10 20 19 43 19 50 1 8 9
32 20 54 11 22 19 43 20 47 0 7 36 87 91 204 10 22 19 44 19 48 0 14 63 141
74 148 13 9 65 0 82 -14z"/>
<path d="M29936 11847 c-3 -19 -17 -44 -31 -57 -14 -13 -25 -29 -25 -37 0 -34
-132 -180 -214 -236 -52 -35 -57 -41 -40 -48 10 -4 44 -8 75 -8 30 -1 60 -6
67 -13 9 -9 12 -132 12 -490 0 -463 1 -480 21 -536 12 -31 24 -69 26 -84 3
-15 19 -38 37 -51 41 -31 122 -67 152 -67 30 0 145 54 168 79 16 18 14 18 -48
23 -53 5 -71 11 -105 38 -73 59 -71 40 -71 589 0 475 1 491 19 501 11 5 71 10
135 10 127 0 146 4 146 30 0 15 -14 18 -134 22 -90 3 -140 9 -150 17 -13 11
-16 41 -16 177 0 154 -10 214 -24 141z"/>
<path d="M49354 11841 c-4 -23 -15 -50 -24 -59 -10 -10 -25 -34 -35 -55 -22
-47 -166 -193 -224 -227 -40 -23 -41 -25 -19 -31 13 -4 46 -7 73 -8 28 -1 60
-8 73 -17 l22 -15 0 -474 c0 -433 2 -481 19 -554 22 -91 51 -130 114 -150 20
-7 39 -17 42 -22 18 -28 145 11 209 64 l30 24 -67 5 c-73 6 -107 27 -156 96
l-26 37 -3 485 -3 485 22 18 c17 14 41 17 133 17 129 0 156 6 156 30 0 16 -14
18 -134 22 -184 5 -176 -3 -176 192 0 155 -13 220 -26 137z"/>
<path d="M36572 11807 c-10 -34 -45 -92 -88 -142 -13 -16 -29 -34 -33 -40 -15
-18 -119 -110 -147 -129 -25 -18 -26 -20 -8 -27 10 -4 42 -8 70 -8 34 -1 59
-7 73 -18 21 -18 21 -23 23 -545 l3 -527 23 -28 c12 -15 27 -38 33 -49 6 -12
29 -27 50 -34 22 -7 44 -19 50 -27 6 -7 27 -13 46 -13 36 0 172 60 193 85 11
13 7 15 -31 15 -59 0 -108 15 -131 40 -10 11 -23 20 -28 20 -5 0 -18 30 -29
68 -18 62 -20 103 -25 516 l-5 448 24 24 c23 23 31 24 152 24 131 0 160 7 150
33 -4 12 -33 15 -141 19 -125 3 -138 5 -159 26 -19 20 -22 31 -19 95 4 104 -7
194 -23 201 -10 3 -17 -6 -23 -27z"/>
<path d="M31417 11510 l-109 -5 35 -28 c64 -51 67 -71 67 -517 0 -333 -2 -399
-15 -416 -8 -10 -14 -30 -14 -44 0 -14 6 -34 14 -44 11 -14 15 -46 15 -110 0
-50 4 -97 9 -104 6 -11 20 -9 71 8 34 11 72 27 84 34 11 8 34 17 51 21 65 15
72 45 18 72 -32 15 -40 26 -57 78 -17 55 -19 105 -24 557 -4 448 -6 497 -21
500 -9 1 -65 1 -124 -2z"/>
<path d="M35588 11510 c-20 -4 -43 -11 -50 -17 -7 -6 -31 -16 -53 -23 -55 -18
-155 -85 -155 -104 0 -13 53 -5 90 14 53 27 116 25 182 -5 71 -33 104 -68 127
-140 37 -114 43 -196 39 -535 -3 -318 -4 -326 -27 -378 -13 -29 -34 -61 -47
-71 -13 -10 -20 -21 -17 -25 11 -10 323 -7 323 4 0 5 -10 19 -22 30 -47 43
-51 80 -59 490 -8 447 -17 558 -48 589 -12 12 -21 26 -21 32 0 15 -86 99 -102
99 -7 0 -26 7 -43 16 -46 25 -76 31 -117 24z"/>
<path d="M53016 11512 c-16 -2 -39 -10 -50 -17 -12 -7 -38 -18 -60 -25 -40
-13 -92 -44 -121 -74 -9 -9 -21 -16 -26 -16 -5 0 -9 -4 -9 -10 0 -17 53 -11
95 10 56 28 114 26 188 -9 75 -35 103 -70 130 -165 18 -64 21 -107 24 -434 5
-402 1 -440 -57 -506 -17 -18 -30 -36 -30 -40 0 -10 318 -7 325 3 3 5 -6 19
-21 30 -51 40 -57 89 -65 521 -7 441 -15 524 -50 569 -13 17 -37 47 -53 68
-40 51 -159 102 -220 95z"/>
<path d="M6845 11500 c-3 -5 -30 -17 -59 -25 -48 -14 -124 -70 -112 -83 3 -2
19 1 37 7 45 16 124 14 162 -4 92 -43 132 -90 159 -188 17 -63 20 -115 25
-434 5 -350 5 -363 -16 -426 -12 -35 -33 -75 -46 -87 -14 -13 -25 -27 -25 -32
0 -9 313 -11 322 -3 3 3 -7 18 -22 34 -49 49 -52 76 -61 526 -4 231 -12 439
-17 462 -11 52 -56 139 -91 176 -38 42 -144 87 -202 87 -26 0 -51 -4 -54 -10z"/>
<path d="M8077 11491 l-38 -18 62 -7 c34 -3 78 -6 97 -6 25 0 54 -13 99 -42
34 -24 63 -46 63 -50 0 -3 11 -20 25 -36 27 -32 77 -204 68 -229 -11 -29 -59
-33 -351 -33 -335 0 -348 2 -346 60 2 73 96 259 132 260 6 0 12 5 12 10 0 15
-16 12 -30 -5 -7 -8 -16 -15 -21 -15 -17 0 -119 -111 -134 -145 -8 -20 -21
-42 -28 -50 -8 -8 -18 -35 -22 -60 -3 -26 -15 -67 -26 -92 -28 -65 -27 -289 1
-350 10 -23 22 -62 25 -87 4 -25 18 -60 31 -77 13 -18 24 -38 24 -45 0 -20
138 -151 189 -179 25 -15 69 -33 98 -40 28 -7 61 -18 72 -24 28 -16 147 -14
179 3 15 7 52 19 82 26 50 12 64 22 145 104 80 81 130 156 104 156 -5 0 -9 -4
-9 -8 0 -5 -12 -15 -27 -22 -16 -8 -39 -24 -53 -36 -37 -32 -239 -64 -288 -46
-15 6 -53 14 -85 17 -36 4 -64 13 -75 25 -9 10 -33 25 -53 33 -43 18 -134 108
-160 159 -10 20 -23 39 -28 42 -5 4 -12 21 -16 39 -4 17 -15 55 -25 84 -24 65
-28 166 -9 189 36 44 61 46 483 43 221 -2 407 0 414 5 16 10 12 53 -13 141
-41 146 -139 241 -305 295 -108 35 -202 39 -263 11z"/>
<path d="M11580 11487 c14 -12 37 -35 50 -50 l25 -29 5 -468 c5 -432 6 -469
23 -488 10 -11 21 -36 24 -56 11 -70 163 -176 252 -176 57 1 167 44 227 91 30
23 57 46 60 50 10 18 -50 8 -83 -12 -28 -17 -46 -20 -93 -17 -33 2 -67 11 -77
20 -10 8 -33 20 -51 26 -35 12 -61 37 -90 87 -15 27 -17 78 -20 538 l-3 507
-137 0 -137 0 25 -23z"/>
<path d="M12386 11481 c41 -41 53 -57 64 -86 6 -16 10 -189 10 -431 0 -391 -1
-405 -20 -424 -11 -11 -20 -24 -20 -28 0 -4 9 -25 20 -47 16 -31 20 -59 20
-135 0 -53 3 -100 6 -103 4 -4 19 0 33 8 14 8 46 22 71 31 163 59 171 63 151
88 -6 8 -23 17 -36 20 -13 3 -30 16 -37 29 -20 37 -29 199 -34 665 l-5 442
-126 0 -125 0 28 -29z"/>
<path d="M13630 11474 c-66 -43 -121 -94 -114 -106 3 -4 30 -8 60 -8 43 0 59
-5 76 -22 13 -13 39 -31 58 -40 19 -10 43 -23 52 -30 15 -11 23 -7 53 22 66
64 54 145 -28 193 -61 36 -92 34 -157 -9z"/>
<path d="M14520 11495 c-14 -8 -34 -15 -45 -16 -46 -3 67 -18 144 -18 79 -1
87 -3 137 -36 59 -39 144 -121 144 -138 0 -6 9 -21 21 -33 11 -12 25 -42 30
-65 6 -24 17 -51 26 -61 9 -10 21 -61 31 -130 31 -226 14 -472 -40 -558 -36
-58 -90 -120 -103 -120 -6 0 -16 -9 -23 -20 -11 -17 -10 -20 7 -20 11 0 23 5
26 10 3 6 13 10 21 10 22 0 114 76 156 129 20 25 46 55 57 67 12 12 21 30 21
40 0 11 11 36 25 56 14 20 25 45 25 56 0 10 11 56 25 102 14 46 25 108 25 138
0 65 -53 258 -84 309 -46 74 -128 166 -173 195 -27 17 -60 39 -76 50 -15 10
-53 23 -85 29 -31 6 -72 17 -91 25 -44 18 -168 18 -201 -1z"/>
<path d="M16180 11495 c-14 -8 -47 -24 -75 -36 -66 -30 -166 -126 -145 -139
10 -6 22 -3 38 13 20 19 37 22 125 25 77 3 112 0 140 -11 20 -9 37 -20 37 -25
0 -6 11 -13 24 -16 14 -3 28 -15 31 -26 3 -11 13 -20 20 -20 8 0 21 -13 30
-30 9 -16 20 -30 25 -30 5 0 17 -17 25 -37 9 -21 22 -44 30 -53 8 -8 18 -40
23 -70 5 -30 17 -84 27 -120 22 -82 17 -258 -9 -307 -9 -18 -16 -45 -16 -60 0
-15 -9 -44 -19 -63 -11 -19 -26 -49 -34 -66 -8 -18 -22 -36 -30 -40 -8 -5 -19
-19 -26 -31 -6 -13 -18 -23 -25 -23 -7 0 -24 -13 -37 -28 -18 -22 -37 -31 -79
-37 -73 -11 -174 -12 -232 -1 -34 6 -48 5 -48 -3 0 -6 13 -11 29 -11 16 0 45
-7 64 -15 20 -8 53 -15 74 -15 45 0 215 41 235 57 7 6 27 17 43 26 46 23 131
106 167 162 52 81 68 116 90 195 36 131 38 143 38 255 0 90 -5 127 -28 206
-15 52 -34 106 -42 120 -9 13 -22 36 -29 51 -14 27 -86 105 -130 141 -69 56
-255 93 -311 62z"/>
<path d="M17477 11491 l-38 -18 53 -6 c29 -4 70 -7 91 -7 48 0 139 -54 182
-107 33 -42 61 -110 78 -191 18 -89 29 -87 -337 -90 l-314 -3 -27 23 -27 23
17 45 c9 25 20 60 25 78 10 39 55 109 88 135 12 10 20 23 17 28 -7 11 -57 -24
-101 -71 -18 -19 -42 -44 -52 -55 -11 -11 -25 -37 -32 -58 -6 -21 -18 -41 -26
-44 -7 -2 -16 -26 -19 -51 -3 -26 -12 -69 -19 -97 -33 -116 -35 -202 -10 -290
8 -27 19 -78 23 -112 6 -39 17 -69 29 -81 11 -11 23 -34 27 -51 4 -17 15 -36
26 -41 10 -6 19 -16 19 -23 1 -7 19 -28 42 -47 22 -19 48 -42 58 -51 25 -24
116 -65 197 -89 51 -16 87 -21 130 -17 62 5 184 38 205 56 7 6 32 26 54 44 51
39 138 144 146 175 7 24 -9 31 -18 7 -3 -8 -16 -17 -27 -21 -12 -3 -33 -17
-47 -29 -67 -62 -379 -62 -453 1 -16 13 -34 24 -41 24 -19 0 -166 144 -166
162 0 8 -9 27 -21 42 -12 15 -28 55 -35 89 -47 200 -47 209 3 243 27 18 50 19
451 19 464 0 448 -2 436 60 -8 42 -42 142 -61 178 -21 42 -98 122 -151 158
-24 16 -64 34 -89 39 -25 6 -58 17 -74 25 -40 21 -163 18 -212 -4z"/>
<path d="M18766 11502 c-3 -5 23 -14 57 -20 136 -25 148 -29 182 -64 61 -61
87 -122 93 -219 l5 -86 -37 -39 c-20 -21 -36 -42 -36 -46 0 -4 -18 -8 -39 -8
-22 0 -42 -4 -45 -9 -4 -5 23 -8 60 -8 96 3 94 9 94 -265 0 -228 0 -229 -24
-251 -13 -12 -25 -31 -27 -42 -2 -10 -15 -22 -29 -26 -21 -6 -18 -7 16 -8 51
-1 64 -15 64 -66 0 -22 4 -45 8 -50 21 -29 85 -75 105 -75 27 0 140 55 162 80
15 17 14 18 -12 28 -15 6 -41 23 -58 36 l-30 26 -7 372 c-9 523 -17 580 -98
650 -38 33 -68 48 -132 67 -87 25 -261 40 -272 23z"/>
<path d="M20375 11488 c-22 -12 -58 -30 -80 -41 -45 -23 -105 -68 -105 -79 0
-14 44 -8 85 12 60 29 121 26 194 -11 34 -17 69 -43 79 -57 9 -15 20 -29 24
-32 26 -20 31 -81 36 -447 2 -211 1 -416 -2 -456 -7 -65 -11 -77 -41 -109 -19
-19 -31 -38 -28 -42 10 -9 311 -7 317 3 3 4 -6 19 -20 32 -60 56 -59 44 -64
539 l-6 455 -28 60 c-71 153 -240 234 -361 173z"/>
<path d="M24166 11501 c-4 -6 9 -13 31 -16 145 -25 173 -34 208 -66 19 -18 35
-38 35 -43 0 -5 10 -20 23 -34 19 -21 22 -36 25 -134 l4 -110 -31 -30 c-17
-17 -31 -34 -31 -39 0 -5 -20 -9 -44 -9 -25 0 -48 -5 -52 -11 -5 -8 10 -9 54
-4 107 12 102 25 102 -265 0 -239 -1 -250 -20 -262 -25 -16 -26 -42 -1 -65 10
-10 22 -37 26 -60 9 -54 79 -133 117 -133 25 0 126 46 161 73 24 20 21 37 -5
37 -18 0 -59 30 -100 73 -1 1 -4 198 -7 437 l-6 435 -26 56 c-37 79 -93 121
-199 150 -92 25 -254 37 -264 20z"/>
<path d="M25118 11450 c36 -36 65 -75 73 -98 6 -20 18 -45 26 -54 9 -10 19
-38 24 -63 5 -25 17 -57 28 -72 10 -16 22 -46 26 -68 4 -22 13 -47 20 -55 7
-8 23 -42 35 -75 50 -138 59 -161 74 -190 9 -16 16 -37 16 -45 0 -8 11 -37 25
-65 13 -27 25 -57 25 -65 0 -8 11 -37 25 -65 13 -27 25 -55 25 -62 0 -7 11
-36 24 -65 13 -29 26 -65 30 -80 3 -15 17 -40 30 -55 l24 -28 11 42 c6 22 18
46 26 53 8 7 20 31 26 53 6 23 19 52 30 65 10 14 19 38 19 53 0 28 -1 29 -39
23 l-38 -6 -37 72 c-20 39 -36 79 -36 88 0 10 -11 37 -24 62 -13 25 -26 59
-30 75 -4 17 -15 48 -25 70 -18 39 -25 55 -63 165 -10 30 -23 64 -28 75 -84
186 -100 295 -49 346 10 10 19 21 19 24 0 3 -79 5 -176 5 l-177 0 61 -60z"/>
<path d="M25850 11505 c0 -2 17 -21 39 -42 39 -39 101 -149 101 -181 0 -9 11
-38 25 -64 14 -26 25 -53 25 -61 0 -8 -11 -35 -25 -61 -14 -26 -25 -56 -25
-67 0 -22 25 -26 34 -4 17 46 78 -13 116 -111 10 -27 25 -62 34 -79 9 -16 16
-36 16 -42 0 -14 68 -182 80 -198 4 -5 12 -28 18 -50 12 -47 68 -184 82 -200
5 -6 12 -30 16 -53 4 -23 10 -42 13 -42 18 0 59 59 64 93 3 20 15 48 25 62 11
14 23 45 26 69 4 25 15 55 26 68 20 27 30 86 15 90 -5 2 -11 -7 -13 -18 -6
-39 -33 -55 -75 -43 -39 11 -57 37 -57 83 0 13 -9 34 -19 48 -11 13 -24 44
-31 68 -7 25 -18 52 -25 60 -7 8 -18 35 -25 60 -7 24 -18 54 -26 65 -8 11 -19
38 -25 60 -5 22 -18 58 -29 80 -35 76 -78 180 -94 227 -19 56 -10 95 34 150
l31 38 -176 0 c-96 0 -175 -2 -175 -5z"/>
<path d="M26806 11479 c27 -28 29 -36 28 -102 -1 -61 0 -68 10 -46 15 34 52
82 106 134 l45 45 -109 0 -110 0 30 -31z"/>
<path d="M30531 11493 c8 -9 24 -27 37 -39 12 -13 22 -29 22 -37 0 -8 8 -29
18 -48 15 -30 18 -82 22 -489 l5 -455 25 -39 c81 -127 237 -199 328 -152 15 7
43 17 62 21 19 4 63 31 97 59 62 51 62 51 32 54 -17 2 -43 -5 -63 -17 -44 -27
-124 -28 -157 -3 -13 11 -37 22 -54 26 -29 7 -75 48 -95 86 -5 10 -17 51 -25
90 -12 57 -15 159 -15 516 l0 444 -126 0 c-117 0 -125 -1 -113 -17z"/>
<path d="M32478 11491 l-47 -17 147 -1 c119 0 141 2 115 11 -17 6 -35 14 -39
19 -13 13 -127 5 -176 -12z"/>
<path d="M33945 11489 c-35 -16 -37 -19 -15 -19 123 -5 187 -18 231 -48 66
-45 104 -91 129 -159 25 -67 35 -151 21 -173 -9 -13 -58 -15 -335 -15 -388 0
-369 -6 -341 102 20 74 69 171 91 180 8 3 19 14 25 24 7 15 6 19 -6 19 -22 0
-137 -118 -160 -165 -10 -22 -24 -47 -31 -55 -21 -27 -64 -241 -64 -320 0 -98
40 -270 81 -351 56 -112 205 -237 305 -255 21 -3 51 -13 66 -20 35 -18 151
-18 186 0 15 7 43 17 62 21 48 10 128 64 179 122 23 26 51 57 62 68 10 12 19
30 19 42 0 12 6 24 13 26 10 4 10 6 0 6 -7 1 -22 -8 -33 -19 -11 -11 -25 -20
-30 -20 -6 0 -20 -11 -31 -24 -17 -20 -35 -26 -88 -32 -36 -3 -72 -11 -78 -16
-29 -23 -263 17 -293 50 -12 12 -26 22 -31 22 -6 0 -24 10 -39 23 -15 12 -37
29 -49 37 -24 16 -91 104 -91 119 0 4 -10 21 -22 36 -12 15 -28 58 -35 94 -7
36 -18 90 -24 119 -12 63 -7 80 29 107 26 19 43 20 452 21 234 0 431 3 438 8
18 11 14 57 -8 101 -12 22 -25 59 -30 82 -6 23 -19 53 -30 65 -11 13 -36 41
-55 64 -42 50 -136 109 -190 119 -21 3 -52 13 -67 21 -40 21 -163 17 -213 -7z"/>
<path d="M37483 11499 c-6 -6 -25 -14 -43 -18 -17 -3 33 -6 112 -6 78 0 130 2
113 3 -16 2 -38 10 -49 18 -24 17 -117 19 -133 3z"/>
<path d="M42090 11495 c-14 -8 -34 -15 -45 -15 -12 -1 -15 -4 -7 -7 20 -8 183
18 176 28 -8 14 -96 10 -124 -6z"/>
<path d="M43270 11496 c-6 -8 -24 -17 -38 -19 -15 -2 -9 -2 13 0 77 9 90 10
123 11 54 3 26 22 -32 22 -34 0 -58 -5 -66 -14z"/>
<path d="M44581 11490 l-34 -17 39 -6 c21 -4 75 -7 119 -7 76 0 83 -2 135 -37
117 -78 175 -163 233 -343 31 -93 31 -99 32 -295 0 -194 -1 -202 -27 -273 -15
-39 -35 -84 -45 -100 -24 -39 -75 -92 -88 -92 -14 0 -50 -38 -43 -45 19 -20
213 112 230 156 4 11 12 19 18 19 5 0 19 20 31 44 11 25 27 50 35 57 8 6 14
21 14 33 0 11 10 37 22 56 34 54 49 221 33 361 -7 67 -18 116 -27 127 -8 9
-20 32 -27 51 -12 37 -82 126 -140 179 -56 51 -149 102 -204 113 -28 5 -64 16
-80 24 -43 21 -181 18 -226 -5z"/>
<path d="M46067 11491 l-38 -18 47 -7 c26 -3 79 -6 119 -6 70 0 74 -1 117 -40
41 -35 48 -49 69 -124 19 -69 28 -87 51 -101 15 -9 28 -20 28 -26 0 -19 65 -8
95 16 27 22 30 30 28 76 -1 33 -8 61 -20 78 -30 39 -135 121 -163 127 -14 2
-53 13 -87 24 -79 25 -192 26 -246 1z"/>
<path d="M48165 11501 c-3 -6 16 -13 42 -16 27 -4 61 -11 77 -16 16 -5 39 -9
51 -9 34 0 105 -61 133 -115 21 -41 27 -67 30 -146 l4 -95 -39 -42 c-32 -34
-46 -42 -75 -42 -20 0 -39 -4 -43 -10 -3 -5 19 -8 58 -7 101 3 97 14 97 -260
l0 -235 -25 -30 c-14 -16 -25 -36 -25 -43 0 -8 -12 -16 -27 -18 -20 -3 -17 -4
13 -6 49 -1 64 -16 71 -72 7 -52 68 -119 109 -119 24 0 133 49 161 72 18 15
16 27 -4 35 -10 4 -35 20 -55 36 l-37 30 -4 376 c-6 539 -20 599 -151 681 -18
11 -42 20 -53 20 -11 0 -46 9 -78 20 -62 21 -219 29 -230 11z"/>
<path d="M51237 11491 l-38 -18 47 -7 c26 -3 81 -6 122 -6 69 0 79 -3 126 -34
28 -19 59 -43 68 -53 9 -10 22 -22 27 -28 61 -58 121 -177 151 -295 16 -63 31
-282 25 -349 -13 -129 -26 -192 -50 -244 -25 -52 -80 -117 -129 -150 -14 -10
-26 -22 -26 -27 0 -15 80 20 133 58 60 43 160 165 176 215 7 20 18 43 25 50
12 12 51 152 66 240 10 52 0 127 -24 196 -9 24 -16 53 -16 64 0 29 -55 123
-114 193 -64 77 -182 157 -254 173 -29 6 -69 18 -88 26 -51 21 -178 19 -227
-4z"/>
<path d="M13276 11485 c-11 -8 -27 -15 -36 -15 -9 0 -34 -9 -55 -20 -22 -12
-59 -25 -82 -31 -51 -14 -66 -47 -24 -55 14 -3 38 -14 51 -24 l25 -19 3 -504
3 -505 -36 -37 c-19 -21 -35 -42 -35 -46 0 -5 79 -9 175 -9 96 0 175 4 175 8
0 5 -12 19 -26 33 -15 13 -38 42 -53 64 l-26 40 -3 377 -3 377 25 49 25 49
-25 22 c-23 20 -24 27 -24 125 0 138 -8 156 -54 121z"/>
<path d="M19935 11491 c-3 -5 -20 -13 -38 -16 -17 -4 -53 -18 -79 -31 -26 -13
-52 -24 -57 -24 -5 0 -21 -4 -35 -10 -32 -12 -25 -34 15 -51 64 -26 64 -21 67
-474 5 -503 1 -561 -39 -611 -16 -20 -29 -41 -29 -45 0 -5 72 -9 160 -9 88 0
160 4 160 8 0 5 -12 19 -26 33 -58 53 -59 59 -62 498 -3 403 -3 404 19 434 21
29 21 30 3 61 -13 22 -19 58 -22 138 -3 80 -8 108 -18 108 -7 0 -15 -4 -19 -9z"/>
<path d="M47256 11491 c-3 -5 -27 -14 -53 -21 -26 -6 -53 -16 -59 -21 -6 -5
-36 -18 -65 -28 -62 -21 -68 -39 -21 -62 40 -18 47 -28 69 -99 15 -48 17 -106
18 -460 0 -395 -1 -406 -22 -465 -13 -33 -34 -70 -47 -81 -14 -12 -22 -25 -19
-28 11 -10 323 -7 323 4 0 5 -11 19 -24 32 -48 47 -50 74 -53 665 -3 533 -4
553 -23 563 -10 6 -21 6 -24 1z"/>
<path d="M50226 11485 c-11 -8 -29 -15 -40 -15 -11 0 -38 -9 -60 -20 -23 -10
-59 -26 -81 -33 -53 -18 -57 -42 -10 -57 72 -24 70 -6 70 -558 0 -490 0 -494
-21 -511 -19 -16 -44 -52 -44 -65 0 -10 308 -7 314 3 3 4 -4 17 -15 27 -55 50
-54 33 -59 659 -5 624 -4 608 -54 570z"/>
<path d="M15740 11481 c-8 -5 -31 -11 -51 -15 -21 -4 -42 -13 -49 -21 -7 -8
-27 -17 -46 -21 -19 -3 -46 -15 -60 -27 l-26 -20 43 -21 c43 -21 44 -23 66
-106 21 -84 21 -94 18 -785 -2 -630 -4 -707 -20 -765 -12 -44 -27 -73 -46 -91
-16 -14 -26 -29 -22 -33 10 -10 331 -7 338 4 3 5 -6 16 -19 26 -14 9 -37 41
-51 71 -25 55 -25 57 -25 334 l0 279 28 11 c15 6 47 8 71 4 30 -5 41 -3 36 4
-3 6 -13 11 -21 11 -8 0 -14 4 -14 10 0 5 -13 24 -29 42 -15 18 -38 59 -50 91
-20 54 -21 75 -21 370 l0 312 25 37 24 36 -24 16 c-24 16 -25 21 -25 114 0
136 -8 157 -50 133z"/>
<path d="M18690 11480 c-22 -7 -21 -8 13 -9 20 -1 37 4 37 9 0 11 -14 11 -50
0z"/>
<path d="M35067 11484 c-3 -3 -25 -10 -48 -15 -24 -6 -50 -15 -57 -22 -8 -7
-35 -19 -61 -28 -56 -19 -63 -40 -19 -60 41 -17 66 -66 79 -151 6 -37 9 -228
7 -448 l-3 -385 -26 -55 c-14 -30 -33 -61 -42 -69 -9 -7 -14 -17 -11 -22 3 -5
75 -9 160 -9 129 0 154 2 154 15 0 8 -11 22 -24 30 -47 31 -56 114 -56 527 0
332 2 373 17 399 15 26 16 33 3 62 -7 17 -15 68 -17 112 -4 105 -9 125 -32
125 -10 0 -20 -3 -24 -6z"/>
<path d="M43414 11478 c-3 -4 11 -8 30 -8 20 0 36 2 36 4 0 8 -61 12 -66 4z"/>
<path d="M48090 11480 c-21 -7 -18 -8 18 -9 26 -1 41 3 37 9 -7 11 -19 11 -55
0z"/>
<path d="M52450 11471 c-25 -9 -56 -22 -70 -28 -14 -7 -42 -19 -62 -27 -45
-18 -49 -43 -9 -57 20 -7 35 -25 52 -61 l24 -51 0 -441 0 -441 -29 -58 c-15
-32 -34 -61 -42 -64 -8 -3 -11 -9 -8 -14 6 -10 307 -12 318 -2 3 4 -7 20 -23
37 -54 56 -61 119 -61 534 1 307 3 370 15 386 18 24 19 68 3 84 -8 8 -15 53
-18 115 -6 116 -8 119 -90 88z"/>
<path d="M24034 11470 c-63 -13 -194 -109 -194 -143 0 -8 -10 -27 -21 -41 -35
-44 -29 -96 14 -140 20 -20 42 -36 49 -36 7 0 30 16 51 35 37 34 37 34 37 115
0 50 5 91 14 108 22 43 93 100 129 105 l32 4 -35 0 c-19 1 -53 -3 -76 -7z"/>
<path d="M42263 11473 c9 -2 25 -2 35 0 9 3 1 5 -18 5 -19 0 -27 -2 -17 -5z"/>
<path d="M18569 11442 c-68 -41 -119 -83 -119 -98 0 -7 -11 -25 -25 -40 -20
-21 -25 -37 -25 -77 0 -45 4 -54 36 -84 40 -37 52 -36 99 2 29 24 30 29 36
125 l6 101 42 43 c60 61 33 78 -50 28z"/>
<path d="M37744 11460 l-28 -5 28 -18 c54 -36 116 -102 127 -135 9 -27 13 -31
25 -21 11 9 14 32 12 93 l-3 81 -66 5 c-36 3 -79 3 -95 0z"/>
<path d="M42428 11463 c-43 -2 -78 -8 -78 -13 0 -5 18 -21 40 -35 43 -27 93
-89 116 -142 8 -18 16 -33 19 -33 3 0 5 52 5 115 0 86 -3 114 -12 113 -7 -1
-48 -4 -90 -5z"/>
<path d="M47965 11439 c-102 -63 -155 -140 -155 -223 0 -38 5 -48 35 -75 41
-36 60 -39 75 -11 6 11 17 20 26 20 23 0 34 44 34 133 l0 82 44 45 c29 30 40
47 33 52 -21 13 -41 8 -92 -23z"/>
<path d="M14366 11451 c-3 -5 -30 -23 -59 -39 -134 -76 -232 -228 -289 -447
-18 -71 -3 -229 30 -320 29 -80 69 -158 100 -198 34 -43 120 -122 148 -137 16
-8 40 -21 53 -29 37 -23 200 -61 262 -61 31 0 73 7 92 15 20 8 49 15 64 15 17
0 23 4 17 9 -5 5 -66 11 -136 13 -115 3 -129 5 -150 26 -14 12 -29 22 -35 22
-12 0 -133 129 -133 141 0 5 -11 25 -25 45 -14 20 -25 44 -25 53 0 9 -11 36
-24 61 -15 29 -26 71 -30 117 -3 39 -11 84 -16 98 -15 39 -12 212 5 275 8 30
15 69 15 86 0 17 8 42 19 55 10 13 22 35 26 48 9 29 94 115 135 136 17 9 30
18 30 20 0 9 -69 5 -74 -4z"/>
<path d="M32320 11434 c-88 -52 -192 -166 -243 -266 -11 -21 -23 -38 -27 -38
-4 0 -13 -26 -19 -57 -6 -32 -19 -71 -28 -88 -20 -37 -30 -241 -14 -300 21
-79 57 -171 85 -215 36 -57 144 -159 199 -187 127 -65 223 -76 328 -39 81 29
139 57 139 67 0 4 -54 8 -119 10 -106 4 -122 6 -143 26 -13 12 -35 25 -51 28
-15 4 -32 15 -37 25 -6 10 -19 21 -29 25 -22 7 -94 98 -128 163 -29 55 -73
255 -72 330 1 110 39 275 81 349 31 55 92 123 154 170 l29 22 -30 1 c-16 0
-50 -12 -75 -26z"/>
<path d="M37353 11453 c-12 -2 -44 -27 -72 -55 -41 -41 -55 -64 -71 -118 -25
-85 -25 -135 0 -210 18 -54 43 -86 110 -143 8 -7 92 -51 185 -97 225 -112 263
-137 333 -223 31 -39 32 -43 32 -133 0 -92 0 -93 -37 -138 -21 -24 -44 -45
-50 -45 -7 -1 -13 -5 -13 -11 0 -5 -11 -10 -24 -10 -13 0 -47 -7 -75 -16 -47
-16 -55 -16 -109 0 -32 9 -72 16 -89 16 -19 0 -43 10 -61 25 -17 14 -35 25
-41 25 -20 0 -113 93 -128 128 -9 22 -19 32 -31 30 -15 -3 -17 -17 -17 -108
l0 -105 95 -7 c52 -4 128 -15 168 -24 115 -25 229 -11 349 43 28 13 56 23 61
23 4 0 18 10 30 23 11 12 26 27 32 34 53 53 61 68 72 133 17 100 1 207 -38
253 -42 47 -140 127 -157 127 -8 0 -26 9 -41 21 -14 11 -41 25 -60 30 -18 5
-43 18 -56 29 -13 11 -31 20 -41 20 -23 0 -69 21 -69 31 0 5 -20 14 -45 20
-25 6 -45 15 -45 20 0 5 -17 17 -38 28 -21 11 -55 37 -74 59 -29 32 -38 51
-43 96 -4 31 -4 77 0 103 5 40 14 55 53 91 25 23 41 41 36 41 -5 -1 -19 -4
-31 -6z"/>
<path d="M41960 11445 c-7 -8 -16 -15 -20 -15 -13 0 -62 -52 -95 -101 -29 -42
-30 -48 -30 -154 0 -107 1 -111 30 -150 38 -50 57 -67 123 -111 64 -43 180
-104 196 -104 7 0 27 -11 46 -25 19 -14 41 -25 49 -25 9 0 29 -11 45 -25 16
-14 34 -25 40 -25 6 0 33 -19 59 -42 96 -83 127 -201 76 -285 -35 -58 -93
-113 -120 -113 -13 0 -45 -7 -71 -14 -40 -13 -55 -13 -105 -1 -32 8 -73 14
-91 15 -29 0 -104 42 -152 85 -64 59 -110 114 -110 134 0 10 -3 12 -10 5 -7
-7 -10 -54 -8 -120 l3 -109 85 -7 c47 -3 110 -11 140 -18 30 -6 88 -14 128
-17 164 -12 366 78 423 189 10 20 24 38 31 40 10 4 13 34 13 111 0 94 -2 108
-21 129 -12 13 -25 32 -28 43 -3 11 -21 32 -39 47 -68 58 -110 88 -121 88 -7
0 -27 11 -45 24 -18 13 -47 27 -66 30 -18 4 -38 13 -45 21 -7 8 -31 20 -54 26
-22 6 -50 19 -61 29 -11 9 -33 21 -49 24 -16 4 -43 18 -60 32 -69 54 -106 89
-106 100 0 6 -9 21 -20 34 -23 26 -35 79 -26 115 8 33 60 107 85 123 12 7 21
17 21 22 0 15 -26 12 -40 -5z"/>
<path d="M43134 11445 c-47 -21 -111 -102 -134 -169 -26 -76 -25 -134 1 -207
33 -90 90 -137 293 -239 212 -107 232 -119 267 -151 15 -15 31 -28 36 -30 4
-2 21 -21 37 -43 23 -31 30 -52 34 -106 2 -37 -1 -82 -7 -101 -14 -43 -95
-129 -122 -129 -11 0 -49 -7 -84 -16 -60 -15 -68 -15 -105 0 -22 9 -58 16 -79
16 -27 0 -49 8 -68 24 -15 13 -37 26 -48 30 -27 8 -113 93 -132 129 -27 52
-38 27 -38 -84 l0 -104 95 -7 c52 -4 125 -14 162 -23 86 -19 166 -18 248 3
214 58 310 160 310 333 0 104 -21 149 -107 228 -42 39 -84 71 -94 71 -9 0 -27
9 -41 20 -14 10 -44 26 -68 34 -24 8 -48 22 -52 30 -5 9 -22 16 -38 16 -16 0
-41 11 -57 23 -15 13 -43 27 -62 31 -19 3 -40 15 -48 26 -8 11 -20 20 -28 20
-18 0 -69 44 -96 82 -30 41 -41 107 -29 171 9 43 18 59 56 95 48 45 48 49 -2
27z"/>
<path d="M43520 11453 c1 -5 21 -23 45 -41 25 -18 63 -55 84 -82 21 -27 41
-46 45 -43 3 4 6 44 6 90 l0 83 -90 0 c-49 0 -90 -3 -90 -7z"/>
<path d="M44402 11422 c-71 -42 -165 -130 -194 -182 -74 -135 -88 -172 -105
-284 -13 -90 -14 -122 -4 -167 6 -30 11 -71 11 -90 0 -19 14 -61 30 -94 16
-33 30 -65 30 -71 0 -6 9 -19 20 -29 11 -10 20 -23 20 -30 0 -6 31 -43 68 -81
72 -73 160 -127 227 -140 22 -4 54 -13 72 -21 18 -7 61 -13 95 -12 66 0 203
31 191 42 -3 4 -61 7 -129 7 -116 0 -124 1 -152 25 -17 14 -35 25 -41 25 -16
0 -96 80 -120 120 -31 54 -91 176 -91 187 0 6 -10 39 -22 74 -19 56 -21 87
-22 254 -1 186 0 191 27 257 33 82 78 149 118 180 16 13 42 33 57 45 l27 22
-25 0 c-14 0 -53 -17 -88 -37z"/>
<path d="M45908 11432 c-68 -40 -137 -98 -190 -163 -27 -31 -48 -60 -48 -64 0
-4 -11 -30 -26 -58 -17 -34 -30 -88 -41 -163 -15 -104 -15 -123 0 -243 11 -86
24 -144 37 -168 11 -21 20 -41 20 -46 0 -5 14 -28 30 -52 17 -24 30 -47 31
-52 1 -15 126 -118 170 -140 116 -57 250 -79 307 -49 15 8 45 18 67 22 22 4
64 23 95 42 98 63 205 192 160 192 -19 0 -67 -29 -73 -43 -3 -8 -26 -18 -52
-22 -26 -3 -61 -15 -79 -26 -44 -27 -149 -26 -194 1 -17 11 -51 23 -73 26 -25
4 -50 16 -62 30 -11 13 -24 24 -29 24 -12 0 -78 67 -78 78 0 5 -7 15 -15 22
-26 22 -83 153 -104 243 -24 102 -28 241 -8 290 8 18 17 50 21 72 4 22 15 51
24 65 9 14 23 37 32 52 23 41 76 95 120 123 22 14 40 27 40 30 0 12 -39 1 -82
-23z"/>
<path d="M51104 11449 c-3 -6 -25 -19 -48 -30 -68 -30 -182 -148 -214 -221 -6
-16 -16 -28 -21 -28 -5 0 -14 -24 -20 -53 -6 -28 -20 -66 -31 -82 -18 -27 -20
-48 -20 -180 0 -141 2 -153 25 -197 14 -26 25 -55 25 -65 0 -10 14 -38 30 -62
17 -24 30 -48 30 -54 0 -5 11 -20 24 -32 13 -12 25 -26 27 -31 8 -19 126 -110
169 -130 120 -57 276 -79 360 -49 23 8 54 15 69 15 20 0 23 2 11 10 -8 5 -66
10 -128 10 -111 0 -148 8 -165 36 -4 8 -15 14 -23 14 -18 0 -117 99 -139 139
-43 79 -84 174 -90 212 -4 24 -16 77 -26 118 -45 178 -7 421 85 544 24 32 61
70 82 84 59 39 61 43 27 43 -18 0 -35 -5 -39 -11z"/>
<path d="M7918 11423 c7 -3 16 -2 19 1 4 3 -2 6 -13 5 -11 0 -14 -3 -6 -6z"/>
<path d="M17308 11423 c7 -3 16 -2 19 1 4 3 -2 6 -13 5 -11 0 -14 -3 -6 -6z"/>
<path d="M33775 11420 c4 -6 11 -8 16 -5 14 9 11 15 -7 15 -8 0 -12 -5 -9 -10z"/>
<path d="M26805 11267 c-4 -10 -5 -21 -1 -24 10 -10 18 4 13 24 -4 17 -4 17
-12 0z"/>
<path d="M26751 11114 c0 -11 3 -14 6 -6 3 7 2 16 -1 19 -3 4 -6 -2 -5 -13z"/>
<path d="M26700 10988 c0 -36 4 -35 14 5 4 16 2 27 -4 27 -5 0 -10 -14 -10
-32z"/>
<path d="M18815 10959 c-16 -6 -14 -8 13 -8 33 -1 41 4 20 12 -7 2 -22 1 -33
-4z"/>
<path d="M25950 10941 c0 -17 2 -31 4 -31 8 0 13 51 5 56 -5 3 -9 -9 -9 -25z"/>
<path d="M48215 10960 c-4 -6 7 -10 27 -10 25 0 29 3 18 10 -19 13 -37 13 -45
0z"/>
<path d="M24213 10953 c9 -2 23 -2 30 0 6 3 -1 5 -18 5 -16 0 -22 -2 -12 -5z"/>
<path d="M18710 10913 c-8 -3 -17 -9 -20 -13 -3 -3 -24 -14 -47 -23 -83 -33
-243 -153 -243 -183 0 -6 -11 -25 -25 -44 -22 -30 -25 -44 -25 -118 0 -72 4
-92 30 -146 17 -35 43 -74 58 -87 39 -34 150 -79 196 -79 41 0 159 42 187 66
8 8 21 14 27 14 7 0 12 6 12 14 0 11 -14 13 -63 9 -92 -8 -179 36 -236 119
-36 52 -36 54 -36 154 0 95 2 104 30 145 40 60 134 147 168 154 15 4 25 11 21
16 -6 10 -12 10 -34 2z"/>
<path d="M24100 10913 c-8 -3 -17 -10 -20 -14 -3 -4 -26 -17 -50 -29 -114 -53
-223 -143 -241 -200 -6 -19 -19 -43 -28 -54 -26 -29 -21 -151 7 -196 12 -19
22 -42 22 -51 0 -28 71 -90 139 -121 53 -24 76 -29 116 -25 83 8 203 62 201
91 -1 5 -36 10 -78 11 -62 1 -82 5 -100 21 -13 11 -35 28 -50 37 -15 9 -43 42
-63 72 -33 52 -35 61 -35 137 0 72 3 88 31 137 35 62 104 131 162 160 28 14
33 20 21 25 -8 3 -16 6 -17 5 -1 0 -9 -3 -17 -6z"/>
<path d="M48098 10908 c-21 -20 -56 -38 -72 -38 -8 0 -21 -6 -28 -13 -7 -7
-28 -22 -47 -33 -63 -35 -140 -115 -167 -172 -24 -50 -26 -64 -22 -141 4 -67
10 -97 31 -137 29 -57 84 -110 124 -120 15 -4 38 -13 52 -20 39 -21 96 -17
173 11 108 39 182 103 95 83 -56 -13 -135 -3 -161 20 -12 10 -33 23 -48 30
-15 6 -35 24 -44 39 -9 15 -25 40 -35 55 -15 22 -19 46 -19 124 0 94 1 99 34
148 43 65 116 133 155 147 17 6 28 15 25 20 -8 13 -30 11 -46 -3z"/>
<path d="M26646 10864 c-4 -15 -2 -32 3 -37 8 -8 11 0 11 26 0 44 -5 47 -14
11z"/>
<path d="M25897 10836 c-4 -15 -6 -31 -2 -34 10 -10 16 6 13 35 l-3 28 -8 -29z"/>
<path d="M26597 10743 c-3 -16 -1 -35 4 -43 6 -10 8 -2 9 28 0 48 -5 55 -13
15z"/>
<path d="M25847 10753 c-11 -10 -8 -63 3 -63 6 0 10 16 10 35 0 36 -2 40 -13
28z"/>
<path d="M25798 10644 c-5 -4 -8 -23 -8 -43 0 -25 3 -32 11 -24 6 6 9 25 7 43
-2 17 -6 28 -10 24z"/>
<path d="M34482 10550 c0 -14 2 -19 5 -12 2 6 2 18 0 25 -3 6 -5 1 -5 -13z"/>
<path d="M46550 10525 c-10 -12 -10 -15 4 -15 9 0 16 7 16 15 0 8 -2 15 -4 15
-2 0 -9 -7 -16 -15z"/>
<path d="M24403 10413 c9 -2 23 -2 30 0 6 3 -1 5 -18 5 -16 0 -22 -2 -12 -5z"/>
<path d="M18890 10360 c0 -5 6 -10 14 -10 8 0 18 5 21 10 3 6 -3 10 -14 10
-12 0 -21 -4 -21 -10z"/>
<path d="M24290 10360 c0 -5 6 -10 14 -10 8 0 18 5 21 10 3 6 -3 10 -14 10
-12 0 -21 -4 -21 -10z"/>
<path d="M48295 10360 c-3 -5 3 -10 14 -10 11 0 23 5 26 10 3 6 -3 10 -14 10
-11 0 -23 -4 -26 -10z"/>
<path d="M22715 6420 c3 -5 46 -10 94 -10 85 0 88 -1 117 -32 17 -18 42 -53
55 -78 l24 -45 6 -635 6 -635 27 -84 c14 -47 33 -92 40 -100 7 -9 21 -30 30
-48 28 -56 164 -183 196 -183 11 0 30 -11 44 -24 21 -19 40 -24 103 -29 47 -3
97 -14 126 -27 41 -18 62 -21 155 -17 72 2 122 9 152 21 25 10 74 21 110 24
48 4 72 11 93 28 16 13 38 24 50 24 24 0 32 6 137 111 99 99 125 151 157 319
26 133 27 143 32 711 7 646 -2 573 81 661 34 36 38 38 102 38 37 0 70 5 73 10
4 7 -93 10 -285 10 -192 0 -289 -3 -285 -10 3 -5 39 -10 79 -10 72 0 72 0 114
-43 23 -24 47 -59 52 -77 14 -50 13 -1213 -1 -1282 -19 -92 -56 -186 -89 -229
-39 -48 -145 -139 -164 -139 -6 0 -27 -11 -46 -25 -19 -14 -47 -25 -62 -25
-16 0 -50 -10 -76 -22 -43 -21 -62 -23 -202 -23 -141 1 -159 3 -195 23 -21 12
-49 22 -61 22 -13 0 -36 11 -52 25 -17 14 -34 25 -39 25 -5 0 -21 12 -36 28
-14 15 -31 32 -36 37 -27 26 -59 72 -66 95 -4 14 -15 43 -25 65 -32 68 -43
244 -47 775 -4 438 -2 517 12 597 16 88 19 94 61 132 43 40 45 41 118 41 41 0
78 5 81 10 4 7 -125 10 -380 10 -255 0 -384 -3 -380 -10z"/>
<path d="M24915 6420 c3 -5 32 -10 63 -10 50 0 64 -5 112 -38 50 -35 56 -44
77 -108 22 -69 22 -72 22 -820 1 -720 0 -755 -19 -816 -14 -47 -29 -72 -60
-101 -40 -36 -42 -37 -120 -37 -47 0 -80 -4 -80 -10 0 -6 108 -10 305 -10 197
0 305 4 305 10 0 6 -36 10 -87 10 -85 1 -89 2 -124 33 -19 18 -46 57 -60 87
l-24 55 -3 697 c-3 766 -3 768 53 768 31 0 75 -41 75 -69 0 -11 11 -37 25 -57
14 -20 25 -47 25 -58 0 -12 11 -37 25 -56 14 -19 25 -44 25 -56 0 -12 11 -36
25 -52 14 -17 25 -39 25 -50 0 -10 11 -36 25 -56 14 -20 25 -42 25 -49 0 -6
11 -34 24 -62 25 -51 68 -145 113 -245 30 -65 73 -158 118 -255 18 -38 44 -95
57 -125 14 -30 39 -85 57 -122 17 -37 31 -73 31 -81 0 -8 7 -20 15 -27 8 -7
20 -31 27 -54 6 -22 20 -53 29 -67 10 -14 21 -37 24 -52 9 -33 21 -35 31 -4 4
12 15 32 25 45 10 13 21 37 25 55 4 18 17 48 30 67 13 19 24 43 24 53 0 11 9
31 19 46 11 15 23 40 27 57 4 16 15 40 25 53 10 12 21 38 25 57 3 18 12 38 20
45 8 6 14 15 14 20 0 8 167 384 189 427 5 9 21 43 35 75 54 120 79 174 107
230 16 31 29 63 29 71 0 7 11 29 24 48 13 19 26 51 30 70 3 19 15 43 25 52 10
9 22 31 25 48 8 43 33 68 67 68 62 0 60 25 57 -761 l-3 -714 -26 -46 c-14 -25
-41 -60 -59 -77 -31 -30 -37 -32 -111 -32 -43 0 -81 -4 -84 -10 -4 -7 123 -10
375 -10 252 0 379 3 375 10 -3 6 -41 10 -84 10 -78 0 -79 0 -119 40 -74 74
-73 64 -70 950 3 601 6 784 16 813 7 21 31 56 53 78 39 39 39 39 118 39 44 0
83 5 86 10 4 7 -75 10 -229 10 l-234 0 -26 -31 c-14 -17 -26 -41 -26 -53 0
-12 -11 -37 -24 -55 -13 -18 -27 -47 -30 -66 -4 -18 -13 -38 -21 -45 -8 -6
-21 -35 -29 -65 -9 -29 -22 -58 -30 -64 -7 -6 -19 -31 -25 -55 -6 -24 -17 -49
-26 -56 -8 -7 -15 -19 -15 -27 0 -8 -14 -44 -31 -81 -17 -37 -40 -85 -49 -107
-17 -37 -48 -105 -107 -235 -14 -30 -33 -73 -44 -96 -10 -22 -19 -45 -19 -51
0 -6 -8 -21 -19 -34 -10 -13 -22 -38 -25 -56 -4 -18 -15 -42 -25 -55 -10 -13
-22 -37 -25 -55 -4 -18 -16 -43 -26 -55 -10 -13 -23 -42 -29 -65 -6 -23 -16
-45 -22 -48 -5 -4 -17 -24 -25 -45 -19 -47 -41 -56 -87 -36 -26 11 -37 22 -42
46 -4 18 -18 48 -31 67 -13 20 -24 44 -24 54 0 10 -11 35 -25 55 -14 20 -25
44 -25 53 0 9 -12 34 -25 56 -14 22 -25 47 -25 55 0 9 -11 31 -24 50 -13 19
-26 49 -30 67 -4 17 -14 37 -22 44 -8 6 -14 17 -14 23 0 7 -11 34 -24 62 -13
27 -35 74 -48 104 -32 70 -74 159 -130 280 -25 52 -49 106 -53 120 -4 14 -15
36 -25 50 -9 14 -20 38 -24 54 -4 16 -16 40 -26 53 -10 13 -21 41 -25 63 -4
21 -13 41 -20 44 -8 3 -19 24 -25 48 -7 24 -21 53 -33 66 -20 22 -25 22 -254
22 -154 0 -232 -3 -228 -10z"/>
<path d="M27610 6420 c0 -6 31 -10 74 -10 69 0 77 -2 108 -30 18 -16 36 -30
40 -30 4 0 15 -26 25 -57 17 -53 18 -118 18 -828 0 -877 1 -861 -70 -932 l-42
-43 -76 0 c-42 0 -79 -4 -82 -10 -4 -7 123 -10 375 -10 252 0 379 3 375 10 -3
6 -40 10 -81 10 -65 0 -78 3 -97 23 -12 13 -29 26 -37 29 -9 3 -28 30 -43 60
l-28 54 3 805 3 804 24 40 c13 22 38 55 55 73 29 31 33 32 107 32 43 0 81 5
84 10 4 7 -120 10 -364 10 -241 0 -371 -4 -371 -10z"/>
<path d="M28500 6420 c8 -5 39 -10 68 -10 40 0 62 -6 90 -25 20 -14 42 -25 48
-25 6 0 23 -13 37 -30 15 -16 31 -30 36 -30 5 0 12 -9 16 -19 3 -11 14 -23 24
-26 39 -12 41 -55 41 -816 0 -404 -5 -763 -10 -799 -8 -58 -13 -68 -54 -107
-46 -43 -46 -43 -120 -43 -41 0 -78 -4 -81 -10 -4 -7 96 -10 291 -10 178 0
294 4 289 9 -6 5 -45 11 -87 13 -74 3 -79 5 -109 38 -61 66 -59 37 -59 784 0
609 2 686 16 700 37 38 77 10 194 -136 58 -71 119 -145 135 -163 56 -61 120
-137 128 -151 4 -8 18 -25 30 -39 12 -13 33 -38 47 -55 27 -32 72 -85 94 -110
7 -8 42 -51 76 -95 35 -44 71 -89 81 -100 64 -70 103 -115 132 -153 44 -60
241 -302 266 -328 12 -12 21 -26 21 -32 0 -6 11 -19 25 -28 14 -9 25 -21 25
-27 0 -10 64 -77 74 -77 3 0 7 395 8 878 l3 877 24 40 c13 22 37 52 53 68 27
25 35 27 114 27 49 0 84 4 84 10 0 6 -105 10 -296 10 -194 0 -293 -3 -289 -10
3 -5 40 -10 82 -10 72 0 76 -1 106 -32 18 -18 43 -62 56 -98 l25 -65 3 -615
c4 -671 6 -644 -54 -656 -28 -6 -36 -1 -68 32 -20 22 -43 53 -52 69 -9 17 -24
36 -34 43 -11 7 -19 18 -19 24 0 6 -10 21 -22 34 -57 58 -179 201 -208 244
-27 40 -210 264 -240 295 -11 12 -20 25 -20 29 0 5 -9 18 -20 30 -45 46 -140
166 -140 175 0 5 -6 14 -14 18 -14 8 -126 140 -161 189 -20 28 -114 145 -125
154 -3 3 -30 34 -60 70 -30 36 -59 68 -65 72 -5 4 -109 8 -230 8 -146 0 -215
-4 -205 -10z"/>
<path d="M30755 6420 c3 -5 39 -10 78 -10 69 0 74 -2 114 -38 75 -66 73 -36
73 -911 0 -878 1 -863 -71 -932 -40 -39 -42 -39 -119 -39 -43 0 -82 -4 -85
-10 -4 -7 125 -10 379 -10 251 0 386 4 386 10 0 6 -35 10 -84 10 -79 0 -85 2
-114 30 -18 17 -35 30 -40 30 -4 0 -17 21 -29 48 -22 45 -22 59 -24 412 -1
201 2 373 6 382 4 10 17 20 28 24 31 10 886 11 923 2 58 -15 57 -9 55 -377 -2
-320 -4 -342 -25 -409 -16 -53 -32 -80 -60 -107 -36 -34 -40 -35 -111 -35 -41
0 -77 -4 -80 -10 -4 -7 124 -10 376 -10 229 0 379 4 374 9 -6 5 -46 11 -90 13
-76 4 -82 6 -118 40 -21 20 -46 58 -57 87 -19 49 -20 81 -20 839 0 770 1 788
21 832 11 25 37 62 57 83 36 37 36 37 119 37 49 0 83 4 83 10 0 6 -132 10
-377 10 -248 0 -373 -4 -363 -10 8 -5 46 -10 83 -10 58 0 71 -3 90 -23 12 -13
30 -26 40 -30 9 -3 17 -14 17 -24 0 -10 8 -31 18 -48 15 -27 17 -70 20 -402
l3 -372 -30 -15 c-26 -14 -93 -16 -483 -16 -394 0 -456 2 -476 16 l-22 15 0
376 c0 370 0 377 23 421 12 25 30 47 39 50 9 2 24 15 33 28 14 22 22 24 100
24 46 0 87 5 90 10 4 7 -123 10 -375 10 -252 0 -379 -3 -375 -10z"/>
<path d="M33770 6409 c-25 -12 -79 -24 -120 -28 -56 -5 -83 -12 -104 -29 -16
-12 -38 -22 -49 -22 -12 0 -37 -11 -56 -23 -127 -84 -160 -109 -220 -168 -79
-79 -166 -202 -181 -257 -5 -22 -16 -45 -24 -51 -8 -7 -19 -41 -26 -77 -6 -36
-19 -85 -28 -107 -24 -58 -23 -331 1 -395 9 -23 21 -69 27 -102 6 -33 19 -75
29 -93 11 -17 22 -43 26 -57 4 -13 16 -36 25 -50 9 -14 34 -51 55 -82 56 -85
176 -197 260 -244 17 -9 38 -25 48 -35 10 -11 29 -19 42 -19 13 0 36 -11 52
-24 22 -19 43 -24 104 -28 52 -3 90 -12 118 -26 58 -31 184 -31 243 -1 25 13
69 23 114 26 56 5 82 12 106 29 18 13 42 24 53 24 12 0 34 10 48 23 14 12 50
37 80 55 66 40 183 157 238 238 22 32 46 66 53 74 8 8 19 32 25 52 7 20 18 42
26 48 7 6 16 30 20 53 3 23 18 79 31 124 24 76 25 92 22 250 -3 135 -7 174
-21 200 -10 17 -22 57 -27 88 -5 30 -18 67 -30 82 -11 14 -20 32 -20 41 0 31
-113 181 -194 258 -95 89 -131 118 -164 128 -12 4 -27 16 -32 27 -7 12 -21 19
-40 19 -15 0 -41 11 -57 24 -21 18 -45 24 -100 29 -42 3 -88 14 -112 26 -56
29 -178 29 -241 0z m240 -49 c93 -13 223 -78 290 -143 57 -56 139 -169 140
-192 0 -6 11 -31 25 -57 14 -26 25 -54 25 -63 0 -8 9 -41 20 -72 39 -112 55
-404 33 -625 -12 -114 -53 -277 -78 -308 -7 -8 -16 -26 -20 -40 -11 -35 -40
-72 -117 -149 -79 -78 -135 -121 -159 -121 -10 0 -35 -11 -55 -25 -36 -25 -40
-25 -239 -25 -199 0 -203 0 -239 25 -20 14 -42 25 -49 25 -30 0 -126 80 -192
161 -22 27 -85 128 -85 138 0 3 -12 29 -25 56 -14 28 -25 58 -25 68 0 10 -10
43 -22 75 -20 53 -22 78 -25 347 -3 234 -1 300 11 340 8 28 20 70 26 95 7 25
23 68 36 96 13 28 24 55 24 59 0 20 80 125 140 184 65 64 80 74 185 123 74 33
249 47 375 28z"/>
</g>
</svg>
